<svg width="484" height="633" viewBox="0 0 484 633" fill="none" xmlns="http://www.w3.org/2000/svg">
<g clip-path="url(#clip0_283_3931)">
<g clip-path="url(#clip1_283_3931)">
<mask id="mask0_283_3931" style="mask-type:alpha" maskUnits="userSpaceOnUse" x="43" y="-14" width="663" height="661">
<mask id="path-1-outside-1_283_3931" maskUnits="userSpaceOnUse" x="42.96" y="-14" width="663" height="661" fill="black">
<rect fill="white" x="42.96" y="-14" width="663" height="661"/>
<path d="M374.73 151.304L395.525 -13L395.362 152.602L436.627 -7.80975L415.832 156.494L476.917 2.40857L435.652 162.982L515.583 17.6549L454.335 171.741L551.974 37.605L471.881 182.932L585.441 62.0965L487.965 196.07L615.821 90.4807L502.099 211.154L642.302 122.433L514.283 228.022L664.559 157.467L524.356 246.188L682.268 194.935L531.992 265.49L695.102 234.348L537.19 285.602L702.9 275.059L539.79 306.038L705.5 316.419L539.79 326.799L702.9 357.779L537.19 347.398L695.102 398.49L531.992 367.51L682.268 438.066L524.356 386.812L664.559 475.533L514.283 404.978L642.302 510.567L502.099 421.684L615.821 542.519L487.965 436.768L585.441 570.904L471.881 450.068L551.974 595.233L454.335 461.097L515.583 615.183L435.652 470.018L476.917 630.429L415.832 476.344L436.627 640.81L395.362 480.236L395.525 646L374.73 481.534L353.935 646L353.935 480.236L312.67 640.81L333.627 476.344L272.542 630.429L313.807 470.018L233.876 615.183L295.124 461.097L197.485 595.233L277.578 450.068L163.856 570.904L261.495 436.768L133.638 542.519L247.361 421.684L107.157 510.567L235.176 404.978L84.9 475.533L225.104 386.812L67.1918 438.066L217.468 367.51L54.3574 398.49L212.269 347.398L46.5593 357.779L209.67 326.799L43.96 316.419L209.67 306.038L46.5593 275.059L212.269 285.602L54.3574 234.348L217.468 265.49L67.1918 194.935L225.104 246.188L84.9 157.467L235.176 228.022L107.157 122.433L247.361 211.154L133.638 90.4807L261.495 196.07L163.856 62.0965L277.578 182.932L197.485 37.605L295.124 171.741L233.876 17.6549L313.807 162.982L272.542 2.40857L333.627 156.494L312.67 -7.80975L353.935 152.602V-13L374.73 151.304Z"/>
</mask>
<path d="M374.73 151.304L395.525 -13L395.362 152.602L436.627 -7.80975L415.832 156.494L476.917 2.40857L435.652 162.982L515.583 17.6549L454.335 171.741L551.974 37.605L471.881 182.932L585.441 62.0965L487.965 196.07L615.821 90.4807L502.099 211.154L642.302 122.433L514.283 228.022L664.559 157.467L524.356 246.188L682.268 194.935L531.992 265.49L695.102 234.348L537.19 285.602L702.9 275.059L539.79 306.038L705.5 316.419L539.79 326.799L702.9 357.779L537.19 347.398L695.102 398.49L531.992 367.51L682.268 438.066L524.356 386.812L664.559 475.533L514.283 404.978L642.302 510.567L502.099 421.684L615.821 542.519L487.965 436.768L585.441 570.904L471.881 450.068L551.974 595.233L454.335 461.097L515.583 615.183L435.652 470.018L476.917 630.429L415.832 476.344L436.627 640.81L395.362 480.236L395.525 646L374.73 481.534L353.935 646L353.935 480.236L312.67 640.81L333.627 476.344L272.542 630.429L313.807 470.018L233.876 615.183L295.124 461.097L197.485 595.233L277.578 450.068L163.856 570.904L261.495 436.768L133.638 542.519L247.361 421.684L107.157 510.567L235.176 404.978L84.9 475.533L225.104 386.812L67.1918 438.066L217.468 367.51L54.3574 398.49L212.269 347.398L46.5593 357.779L209.67 326.799L43.96 316.419L209.67 306.038L46.5593 275.059L212.269 285.602L54.3574 234.348L217.468 265.49L67.1918 194.935L225.104 246.188L84.9 157.467L235.176 228.022L107.157 122.433L247.361 211.154L133.638 90.4807L261.495 196.07L163.856 62.0965L277.578 182.932L197.485 37.605L295.124 171.741L233.876 17.6549L313.807 162.982L272.542 2.40857L333.627 156.494L312.67 -7.80975L353.935 152.602V-13L374.73 151.304Z" stroke="black" stroke-width="2" stroke-miterlimit="10" mask="url(#path-1-outside-1_283_3931)"/>
</mask>
<g mask="url(#mask0_283_3931)">
<rect x="-798.344" y="-51.7642" width="1173.55" height="714.783" rx="45" fill="black"/>
</g>
<path d="M98.9346 465.076L145.463 490.402L98.9346 515.932L73.4814 562.313L48.0283 515.932L1.49985 490.402L48.0283 465.076L73.4814 418.491L98.9346 465.076Z" fill="#3078CE"/>
<path d="M222.504 234.699L305.647 279.956L222.504 325.577L177.021 408.457L131.537 325.577L48.3941 279.956L131.537 234.699L177.021 151.456L222.504 234.699Z" fill="#191A23"/>
</g>
</g>
<defs>
<clipPath id="clip0_283_3931">
<rect width="707" height="633" fill="white"/>
</clipPath>
<clipPath id="clip1_283_3931">
<rect width="704" height="659" fill="white" transform="translate(1.5 -13)"/>
</clipPath>
</defs>
</svg>
