<svg width="619" height="490" viewBox="0 0 619 490" fill="none" xmlns="http://www.w3.org/2000/svg">
<g clip-path="url(#clip0_184_4833)">
<path d="M315.25 41.1882L332.562 36.0963L327.511 53.4283L332.562 70.7113L315.25 65.6684L297.889 70.7113L302.989 53.4283L297.889 36.0963L315.25 41.1882Z" fill="url(#paint0_radial_184_4833)" stroke="white" stroke-miterlimit="10"/>
</g>
<g clip-path="url(#clip1_184_4833)">
<path d="M135.367 342.592L157.133 354.432L135.367 366.366L123.46 388.048L111.553 366.366L89.7866 354.432L111.553 342.592L123.46 320.815L135.367 342.592Z" fill="url(#paint1_radial_184_4833)" stroke="white" stroke-miterlimit="10"/>
</g>
<path d="M348.023 198.353C402.215 228.195 448.994 259.318 480.814 285.508C496.727 298.606 508.879 310.454 516.349 320.277C520.085 325.19 522.632 329.573 523.9 333.333C525.169 337.095 525.139 340.169 523.831 342.536C522.523 344.904 519.934 346.569 516.07 347.505C512.207 348.44 507.135 348.627 500.98 348.093C488.672 347.026 472.151 343.084 452.566 336.633C413.401 323.735 362.077 300.839 307.885 270.997C253.693 241.156 206.916 210.032 175.095 183.842C159.182 170.745 147.03 158.897 139.56 149.074C135.824 144.161 133.277 139.778 132.009 136.018C130.74 132.256 130.77 129.181 132.078 126.814C133.386 124.446 135.975 122.782 139.839 121.846C143.702 120.912 148.773 120.724 154.929 121.258C167.237 122.325 183.758 126.266 203.344 132.717C242.508 145.615 293.831 168.512 348.023 198.353Z" stroke="url(#paint2_radial_184_4833)"/>
<path d="M332.003 227.345C386.193 257.185 432.696 288.8 464.072 315.784C479.763 329.279 491.652 341.597 498.829 351.943C502.419 357.116 504.814 361.773 505.927 365.818C507.04 369.86 506.862 373.246 505.376 375.937C503.889 378.627 501.115 380.584 497.096 381.8C493.075 383.017 487.853 383.479 481.555 383.207C468.961 382.665 452.181 379.199 432.377 373.147C392.777 361.048 341.184 338.646 286.994 308.806C232.804 278.965 186.302 247.351 154.926 220.366C139.235 206.872 127.347 194.552 120.169 184.207C116.58 179.034 114.185 174.378 113.071 170.333C111.958 166.291 112.136 162.905 113.622 160.214C115.109 157.523 117.883 155.567 121.902 154.351C125.923 153.133 131.146 152.671 137.444 152.942C150.038 153.485 166.817 156.952 186.621 163.003C226.221 175.103 277.813 197.505 332.003 227.345Z" stroke="url(#paint3_radial_184_4833)"/>
<path d="M315.985 256.336C370.175 286.177 416.677 317.792 448.054 344.776C463.745 358.271 475.633 370.589 482.811 380.934C486.4 386.108 488.795 390.765 489.909 394.809C491.022 398.852 490.844 402.238 489.357 404.928C487.871 407.619 485.097 409.575 481.078 410.792C477.057 412.009 471.834 412.47 465.536 412.199C452.942 411.657 436.163 408.19 416.359 402.139C376.758 390.039 325.165 367.637 270.975 337.797C216.786 307.957 170.284 276.342 138.907 249.358C123.216 235.863 111.328 223.544 104.151 213.199C100.561 208.026 98.166 203.369 97.0523 199.325C95.9393 195.282 96.1171 191.896 97.6036 189.206C99.0903 186.515 101.864 184.559 105.883 183.342C109.904 182.125 115.127 181.663 121.425 181.934C134.019 182.477 150.798 185.944 170.602 191.995C210.203 204.095 261.795 226.496 315.985 256.336Z" stroke="url(#paint4_radial_184_4833)"/>
<ellipse cx="146.841" cy="89.8304" rx="15.2457" ry="15.2199" fill="url(#paint5_radial_184_4833)"/>
<ellipse cx="426.915" cy="427.675" rx="9.83591" ry="9.81928" fill="url(#paint6_radial_184_4833)"/>
<ellipse cx="517.605" cy="282.859" rx="23.1144" ry="23.0753" fill="url(#paint7_radial_184_4833)"/>
<path d="M431.411 259.215C431.411 330.5 374.021 388.288 303.228 388.288C232.434 388.288 175.044 330.5 175.044 259.215C175.044 187.93 232.434 130.142 303.228 130.142C374.021 130.142 431.411 187.93 431.411 259.215Z" fill="url(#paint8_radial_184_4833)"/>
<path fill-rule="evenodd" clip-rule="evenodd" d="M221.986 308.94L204.207 312.097L198.669 297.527L176.696 301.428L176.441 317.027L158.662 320.184L161.716 247.054L194.277 241.273L221.986 308.94ZM176.662 288.886L194.441 285.729L183.436 256.99L177.242 258.09L176.662 288.886Z" fill="white"/>
<path d="M245.622 267.933L251.016 266.975L254.897 245.028L273.573 241.712L265.655 270.598L284.435 297.853L265.559 301.204L254.181 280.931L247.388 282.137L243.585 305.105L224.706 308.457L233.096 276.379L215.844 251.962L234.523 248.645L245.622 267.933Z" fill="white"/>
<path fill-rule="evenodd" clip-rule="evenodd" d="M334.708 263.626L300.548 269.691L302.379 280.149L334.54 274.438L337.005 288.519L299.453 295.186L286.058 285.744L280.211 252.354L289.591 238.868L329.143 231.845L334.708 263.626ZM299.104 261.444L318.904 256.89L317.213 247.235L297.237 250.782L299.104 261.444Z" fill="white"/>
<path fill-rule="evenodd" clip-rule="evenodd" d="M391.733 218.865L399.763 264.726L389.728 279.158L347.778 286.606L335.45 216.207L377.4 208.759L391.733 218.865ZM361.986 268.944L382.561 265.29L375.376 224.258L354.801 227.911L361.986 268.944Z" fill="white"/>
<path d="M448.974 223.011L426.99 258.024L454.458 253.147L456.923 267.227L408.78 275.775L406.667 263.708L428.651 228.696L401.684 233.484L399.219 219.403L446.861 210.944L448.974 223.011Z" fill="white"/>
<path d="M303.228 128.142C358.899 128.142 406.395 163.321 425.009 212.792L446.511 208.975L448.485 208.625L448.831 210.6L450.944 222.666L451.076 223.424L450.668 224.074L433.208 251.88C433.262 252.872 433.306 253.867 433.338 254.865L454.108 251.178L456.082 250.827L456.428 252.802L458.894 266.882L459.237 268.848L457.272 269.197L432.637 273.571C425.536 339.196 370.319 390.288 303.228 390.288C246.497 390.288 198.254 353.758 180.414 302.799L178.669 303.109L178.44 317.06L178.414 318.708L176.791 318.996L159.012 322.153L156.56 322.588L156.664 320.1L159.718 246.971L159.784 245.365L161.366 245.085L174.052 242.832C182.059 178.185 236.829 128.142 303.228 128.142Z" stroke="url(#paint9_radial_184_4833)" stroke-width="4"/>
<defs>
<radialGradient id="paint0_radial_184_4833" cx="0" cy="0" r="1" gradientUnits="userSpaceOnUse" gradientTransform="translate(315.225 53.4038) scale(17.3368 66.9186)">
<stop stop-color="#2679DE"/>
<stop offset="1" stop-color="#2D8CFF"/>
</radialGradient>
<radialGradient id="paint1_radial_184_4833" cx="0" cy="0" r="1" gradientTransform="matrix(16.8367 16.8082 -65.0983 64.9882 123.46 354.432)" gradientUnits="userSpaceOnUse">
<stop stop-color="#2679DE"/>
<stop offset="1" stop-color="#2D8CFF"/>
</radialGradient>
<radialGradient id="paint2_radial_184_4833" cx="0" cy="0" r="1" gradientTransform="matrix(196.315 108.102 -78.5299 142.129 327.954 234.675)" gradientUnits="userSpaceOnUse">
<stop stop-color="#2679DE"/>
<stop offset="1" stop-color="#2D8CFF"/>
</radialGradient>
<radialGradient id="paint3_radial_184_4833" cx="0" cy="0" r="1" gradientTransform="matrix(196.315 108.102 -87.9478 159.174 309.499 268.075)" gradientUnits="userSpaceOnUse">
<stop stop-color="#2679DE"/>
<stop offset="1" stop-color="#2D8CFF"/>
</radialGradient>
<radialGradient id="paint4_radial_184_4833" cx="0" cy="0" r="1" gradientTransform="matrix(196.315 108.102 -87.9478 159.174 293.48 297.067)" gradientUnits="userSpaceOnUse">
<stop stop-color="#2679DE"/>
<stop offset="1" stop-color="#2D8CFF"/>
</radialGradient>
<radialGradient id="paint5_radial_184_4833" cx="0" cy="0" r="1" gradientUnits="userSpaceOnUse" gradientTransform="translate(146.841 89.8304) scale(15.2457 58.847)">
<stop stop-color="#2679DE"/>
<stop offset="1" stop-color="#2D8CFF"/>
</radialGradient>
<radialGradient id="paint6_radial_184_4833" cx="0" cy="0" r="1" gradientUnits="userSpaceOnUse" gradientTransform="translate(426.915 427.675) scale(9.83591 37.9658)">
<stop stop-color="#2679DE"/>
<stop offset="1" stop-color="#2D8CFF"/>
</radialGradient>
<radialGradient id="paint7_radial_184_4833" cx="0" cy="0" r="1" gradientUnits="userSpaceOnUse" gradientTransform="translate(517.605 282.859) scale(23.1144 89.2196)">
<stop stop-color="#2679DE"/>
<stop offset="1" stop-color="#2D8CFF"/>
</radialGradient>
<radialGradient id="paint8_radial_184_4833" cx="0" cy="0" r="1" gradientUnits="userSpaceOnUse" gradientTransform="translate(307.793 259.215) scale(149.131 499.056)">
<stop stop-color="#2A78D8"/>
<stop offset="1" stop-color="#2D8CFF"/>
</radialGradient>
<radialGradient id="paint9_radial_184_4833" cx="0" cy="0" r="1" gradientUnits="userSpaceOnUse" gradientTransform="translate(307.793 259.215) scale(149.131 499.056)">
<stop stop-color="#2679DE"/>
<stop offset="1" stop-color="#2D8CFF"/>
</radialGradient>
<clipPath id="clip0_184_4833">
<rect width="35.4093" height="35.3494" fill="white" transform="translate(297.547 35.7535)"/>
</clipPath>
<clipPath id="clip1_184_4833">
<rect width="48.5906" height="48.5906" fill="white" transform="matrix(0.707705 0.706508 -0.707705 0.706508 123.46 320.15)"/>
</clipPath>
</defs>
</svg>
