<svg width="268" height="250" viewBox="0 0 268 250" fill="none" xmlns="http://www.w3.org/2000/svg">
<path d="M268 125C268 194.036 208.006 250 134 250C59.9938 250 0 194.036 0 125C0 55.9644 59.9938 0 134 0C208.006 0 268 55.9644 268 125Z" fill="#116CDA"/>
<path d="M60.0909 171.5H48.2727L82.4545 78.4091H94.0909L128.273 171.5H116.455L88.6364 93.1364H87.9091L60.0909 171.5ZM64.4545 135.136H112.091V145.136H64.4545V135.136ZM148.227 78.4091L172.227 117.136H172.955L196.955 78.4091H210.227L180.955 124.955L210.227 171.5H196.955L172.955 133.5H172.227L148.227 171.5H134.955L164.955 124.955L134.955 78.4091H148.227Z" fill="white"/>
</svg>
