<svg width="132" height="38" viewBox="0 0 132 38" fill="none" xmlns="http://www.w3.org/2000/svg">
<path d="M12.0093 32L17.5533 6.8H29.2893L34.8333 32H28.4253L27.3813 26.6H19.4613L18.4173 32H12.0093ZM20.2173 22.244H26.6253L24.5373 11.588H22.3053L20.2173 22.244ZM35.8143 32L40.7103 21.38L36.1743 11.84H42.9063L45.6063 19.22H47.5503L50.2503 11.84H56.9823L52.4463 21.38L57.3423 32H50.5383L47.8023 24.26H45.3543L42.6183 32H35.8143ZM58.6509 27.896V15.944L62.7549 11.84H77.0109V23.216H64.6989V26.96H76.2909V32H62.7549L58.6509 27.896ZM64.6989 20.264L71.8989 19.904V16.448H64.6989V20.264ZM86.2213 26.744H93.6373V12.056H86.2213V26.744ZM80.1733 32V6.8H95.2933L99.6853 11.192V27.608L95.2933 32H80.1733ZM102.161 32V27.68L111.989 16.88H102.269V11.84H119.441V16.16L109.613 26.96H119.513V32H102.161Z" fill="black"/>
</svg>
