<svg width="230" height="182" viewBox="0 0 230 182" fill="none" xmlns="http://www.w3.org/2000/svg">
<path d="M93.9852 23.7846C94.1182 21.8387 95.8309 20.3823 97.7803 20.5574L218.662 31.419C220.546 31.5883 221.951 33.2226 221.831 35.1037L220.203 60.5364C220.078 62.4826 218.372 63.9461 216.422 63.7797L95.3951 53.4459C93.4985 53.284 92.0821 51.6374 92.2114 49.745L93.9852 23.7846Z" fill="white"/>
<path d="M4.64876 57.988C4.64642 56.0248 6.27438 54.4489 8.24362 54.508L145.8 58.6411C147.685 58.6978 149.184 60.2372 149.184 62.1169V89.7584C149.184 91.6915 147.602 93.2536 145.662 93.2357L8.14237 91.9662C6.22937 91.9485 4.68727 90.3994 4.685 88.4931L4.64876 57.988Z" fill="white"/>
<path d="M90.8891 87.5378C90.8048 85.5791 92.3612 83.9382 94.3285 83.9117L215.677 82.2776C217.563 82.2522 219.128 83.7248 219.21 85.6025L220.895 123.925C220.98 125.874 219.44 127.512 217.483 127.554L96.1413 130.151C94.2435 130.192 92.6612 128.713 92.5799 126.823L90.8891 87.5378Z" fill="white"/>
<path d="M89.8722 154.903C89.7244 152.949 91.2266 151.258 93.1918 151.168L210.874 145.779C212.728 145.694 214.325 147.071 214.507 148.912L216.446 168.512C216.638 170.454 215.19 172.173 213.237 172.321L95.3624 181.219C93.44 181.364 91.7637 179.928 91.6189 178.012L89.8722 154.903Z" fill="white"/>
<path d="M2.66228 120.401C2.79724 118.462 4.50152 117.01 6.44511 117.178L130.266 127.878C132.131 128.039 133.537 129.639 133.45 131.503L132.402 154.005C132.31 155.97 130.602 157.468 128.634 157.309L4.2499 147.275C2.34456 147.121 0.917934 145.468 1.05017 143.568L2.66228 120.401Z" fill="white"/>
<path d="M5.42956 19.206C5.11852 17.2618 6.48783 15.4482 8.44874 15.2073L128.983 0.399494C130.811 0.174902 132.499 1.40486 132.839 3.2088L135.802 18.9281C136.168 20.8668 134.844 22.7198 132.886 23.0097L12.3885 40.8502C10.4964 41.1304 8.73063 39.8404 8.42949 37.958L5.42956 19.206Z" fill="white"/>
<path d="M93.3411 181.533C91.681 180.507 91.2797 179.64 90.8485 176.153C90.3798 172.35 89.3529 159.553 89.3529 157.514C89.3529 156.078 89.2581 155.408 89.0413 155.333C88.8693 155.276 87.1918 155.11 85.3098 154.966C83.4304 154.822 81.5584 154.638 81.1496 154.556L80.4093 154.407L80.5514 156.627C80.7184 159.168 80.4866 160.127 79.2303 162.094C77.5054 164.792 74.245 166.195 70.9323 165.664C64.8552 164.69 61.8865 159.116 64.3368 153.284C64.4315 153.061 64.1199 152.974 63.2101 152.974C62.0984 152.974 57.1555 152.591 47.3519 151.742C45.7068 151.6 42.6782 151.369 40.6218 151.23C38.5654 151.088 35.649 150.867 34.1409 150.736C32.6329 150.604 29.0983 150.326 26.2891 150.12C21.4135 149.762 11.4729 148.985 5.82704 148.523C2.27254 148.23 0.899096 147.534 0.148812 145.634C-0.0929742 145.028 -0.0506014 143.277 0.353206 136.94C0.839271 129.31 1.21815 124.029 1.51229 120.756C1.66932 118.997 2.27752 117.912 3.61109 116.998C4.43615 116.434 4.61811 116.412 7.34755 116.543C8.92788 116.618 12.6295 116.906 15.5733 117.184C18.5196 117.462 24.4072 117.976 28.6571 118.327C32.9071 118.677 37.4487 119.067 38.7523 119.196C40.056 119.323 42.075 119.491 43.2391 119.571C44.4031 119.653 45.6096 119.77 45.9186 119.832L46.4795 119.949V111.874L43.3861 114.949C41.0056 117.313 40.1906 117.984 39.8491 117.852C39.4851 117.713 40.0186 117.067 42.7455 114.345L46.0881 111.007L40.9907 110.94C36.3644 110.88 35.8833 110.833 35.8085 110.438C35.7312 110.036 36.0976 110.003 40.7414 110.003H45.7591L42.1323 106.496C40.1357 104.569 38.503 102.842 38.503 102.661C38.503 101.754 39.3032 102.323 42.7006 105.642C44.7346 107.631 46.4745 109.258 46.5642 109.258C46.654 109.258 46.7287 106.866 46.7287 103.945C46.7287 99.6158 46.7936 98.6049 47.0777 98.4981C47.2696 98.4236 47.494 98.431 47.5762 98.513C47.6585 98.5925 47.7258 101.044 47.7258 103.96C47.7258 106.874 47.7981 109.258 47.8853 109.258C47.9726 109.258 49.7149 107.634 51.7564 105.647C55.1738 102.326 55.9515 101.769 55.9515 102.659C55.9515 102.837 54.3213 104.561 52.3272 106.494L48.7029 110.003H53.9075C56.7666 110.003 59.177 110.07 59.2568 110.152C59.339 110.234 59.3465 110.458 59.2717 110.649C59.1645 110.932 58.16 110.997 53.8751 110.997H48.6107L51.7788 114.164C53.5212 115.905 55.0218 117.413 55.1115 117.512C55.2012 117.611 55.0791 117.765 54.8423 117.857C54.5158 117.981 53.5935 117.211 51.0684 114.7C49.2289 112.872 47.7233 111.431 47.7183 111.496C47.5762 114.109 47.5463 119.939 47.6735 119.939C47.9152 119.939 53.0501 120.401 54.5806 120.56C55.9989 120.709 65.2989 121.496 72.1537 122.047C74.6887 122.251 77.7197 122.529 78.8838 122.663C80.0479 122.797 83.1886 123.083 85.8632 123.302C88.5353 123.518 90.9631 123.751 91.2573 123.823C91.8754 123.972 91.8904 124.966 91.1002 114.226C90.6391 107.979 90.153 99.4146 90.0309 95.3486L89.976 93.4857L83.7444 93.3317C80.3171 93.2472 65.8473 93.1529 51.5894 93.123C17.1062 93.0485 7.23788 92.8697 6.17352 92.2984C5.23878 91.7967 4.19935 90.5175 4.0124 89.6357C3.77062 88.5106 3.63103 70.2692 3.80551 63.2872L3.98 56.4367L4.69538 55.5053C6.13862 53.6176 6.3505 53.5654 11.8318 53.7095C14.5064 53.7815 20.7879 54.01 25.7906 54.2187C30.7958 54.4273 38.9816 54.7154 43.9868 54.862C48.9921 55.006 57.7387 55.2892 63.4294 55.4879C79.2353 56.0418 107.36 56.8118 117.52 56.9683C122.525 57.0453 127.572 57.1744 128.737 57.2514C129.901 57.3309 130.79 57.3284 130.711 57.2489C130.434 56.9633 118.447 55.863 104.558 54.852C92.9149 54.0026 92.6656 53.9504 91.9178 52.172C91.499 51.1784 91.5314 50.0061 92.2169 41.3251C92.4113 38.8661 92.6207 35.9177 92.683 34.7752L92.8002 32.6987L91.9452 32.8353C91.4766 32.9123 89.0612 33.2302 86.5811 33.5457L82.0694 34.1169L80.504 32.2839L78.136 32.6366C75.6658 33.0067 68.4371 33.9779 63.3048 34.6286C61.6597 34.8373 58.3494 35.2794 55.9515 35.6122C53.5536 35.9451 49.4582 36.5014 46.8534 36.8517C44.2486 37.1994 38.9193 37.9272 35.0133 38.4686C10.5356 41.8665 11.0641 41.8144 9.64826 40.9525C9.19958 40.6817 8.66616 40.0956 8.45927 39.6509C8.03303 38.7294 4.6555 21.9834 4.43615 19.7156C4.25169 17.7807 4.7253 16.6183 6.05387 15.7415C7.09081 15.0584 9.63829 14.5816 16.6925 13.7495C20.2893 13.3247 25.297 12.7087 34.6395 11.5438C38.4781 11.0644 42.5162 10.5652 43.6129 10.4311C44.7097 10.2994 48.8051 9.79022 52.7111 9.30091C56.617 8.81407 62.1158 8.13599 64.925 7.7957C67.7342 7.45541 72.727 6.84439 76.0173 6.43952C79.3075 6.03217 83.8491 5.47083 86.1124 5.19264C88.3758 4.91196 91.514 4.51951 93.0918 4.31832C94.6697 4.11465 98.3139 3.66756 101.193 3.31982C104.072 2.97208 108.165 2.47531 110.291 2.21203C112.417 1.95122 115.221 1.61591 116.523 1.46688C117.824 1.31784 121.107 0.920431 123.816 0.582629C129.806 -0.162523 130.855 -0.17991 131.902 0.455953C133.081 1.1713 133.403 1.83448 133.829 4.44003C134.043 5.7366 134.442 8.02918 134.716 9.5319C135.863 15.7912 136.713 20.9104 136.713 21.5462C136.713 21.9188 136.583 22.3535 136.429 22.5075C136.045 22.89 136.384 22.9471 141.948 23.4364C144.483 23.6575 148.857 24.0574 151.669 24.3232C154.481 24.5889 158.628 24.9789 160.892 25.1875C163.155 25.3962 165.171 25.6123 165.378 25.6669C165.585 25.7241 167.435 25.9004 169.491 26.0594C171.548 26.2208 173.45 26.3922 173.716 26.4444C173.983 26.494 176.114 26.7101 178.452 26.9213C180.79 27.1299 184.779 27.5174 187.314 27.7807C189.849 28.044 194.335 28.496 197.284 28.7866C200.233 29.0748 204.101 29.4647 205.884 29.6535C207.666 29.8398 210.413 30.1205 211.991 30.2744C213.569 30.4284 216.876 30.7687 219.344 31.032C221.812 31.2953 224.504 31.5735 225.326 31.653C227.515 31.8641 228.322 32.182 229.207 33.188L230 34.0847L229.873 37.3335C229.801 39.1194 229.556 43.1507 229.327 46.2927C229.095 49.4348 228.711 54.7055 228.47 58.004C228.003 64.4223 227.901 64.8222 226.518 65.7238C225.433 66.4342 224.202 66.3671 211.741 64.9364C192.202 62.6935 181.994 61.6925 154.672 59.3379C151.594 59.0721 149.032 58.8957 148.982 58.9479C148.929 59.0001 149.091 59.3552 149.343 59.7378C149.749 60.3587 149.792 60.9225 149.732 64.9762C149.695 67.4724 149.717 69.5166 149.784 69.5166C149.852 69.5166 150.442 69.1763 151.101 68.7615C153.042 67.5345 155.079 67.0328 158.125 67.0328C162.178 67.0328 164.658 67.8624 168.048 70.3512C171.396 72.8102 174.09 77.4972 174.1 80.8802L174.103 81.9358H217.649L218.496 82.5046C218.997 82.8375 219.459 83.4237 219.623 83.9328C219.778 84.4048 220.034 88.0883 220.196 92.1196C220.356 96.1508 220.593 100.843 220.72 102.552C220.847 104.261 221.121 108.674 221.331 112.363C221.54 116.051 221.814 120.433 221.944 122.1C222.223 125.733 222.051 126.531 220.732 127.718C219.526 128.803 219.404 128.818 209.747 128.997C205.704 129.072 195.44 129.303 186.94 129.509C178.44 129.712 163.142 130.043 152.948 130.239C142.75 130.435 134.357 130.649 134.295 130.711C134.23 130.773 134.018 133.135 133.819 135.959C133.622 138.783 133.303 142.733 133.111 144.735C132.919 146.737 132.81 148.421 132.862 148.475C132.917 148.53 135.462 148.443 138.515 148.284C141.569 148.123 146.534 147.882 149.55 147.748C168.462 146.901 186.077 146.036 194.791 145.527C196.918 145.403 202.299 145.164 206.756 144.998C217.654 144.591 217.048 144.248 217.617 151.151C217.816 153.587 218.202 158.152 218.474 161.295C219.317 171.071 219.302 170.634 218.798 171.602C217.896 173.341 216.904 173.52 204.388 174.208C197.309 174.598 189.333 175.12 183.45 175.582C179.681 175.877 178.019 175.996 175.1 176.188C170.882 176.463 152.683 177.815 148.304 178.177C145.836 178.383 140.788 178.778 137.087 179.056C133.385 179.335 128.338 179.732 125.87 179.938C123.402 180.144 118.297 180.532 114.529 180.798C110.76 181.061 106.44 181.391 104.932 181.525C103.424 181.662 100.395 181.841 98.2017 181.923C94.403 182.067 94.1711 182.047 93.3411 181.533ZM103.254 180.065C106.507 179.802 111.019 179.461 113.282 179.312C115.546 179.161 119.471 178.88 122.006 178.691C134.886 177.72 140.734 177.271 144.814 176.928C147.282 176.722 151.489 176.394 154.161 176.198C159.01 175.842 172.6 174.836 179.377 174.327C181.344 174.181 185.01 173.898 187.525 173.701C190.041 173.503 192.316 173.341 192.586 173.341C192.855 173.341 193.019 173.249 192.949 173.135C192.832 172.949 192.122 166.076 190.818 152.512C190.552 149.73 190.277 147.397 190.208 147.33C190.14 147.261 187.638 147.328 184.649 147.477C181.658 147.626 174.11 147.974 167.871 148.249C157.856 148.689 145.908 149.235 137.585 149.63C136.077 149.7 131.03 149.924 126.369 150.122C115.294 150.597 102.457 151.193 99.9466 151.349C98.8498 151.419 96.8308 151.54 95.4598 151.622C91.0628 151.881 90.2402 152.718 90.4845 156.699C90.7687 161.347 91.6062 171.54 91.9826 174.956C92.4039 178.768 92.6506 179.369 94.1063 180.11C95.1832 180.656 96.0007 180.654 103.254 180.065ZM74.5017 164.451C76.117 163.893 76.3089 163.542 75.9275 161.851C75.5137 160.005 74.3422 158.438 73.3776 158.438C72.7918 158.438 72.6522 158.545 72.6522 158.997C72.6522 160.005 71.2538 162.561 70.3091 163.279C69.8156 163.654 69.4118 164.044 69.4118 164.146C69.4118 164.384 71.2912 164.832 72.4029 164.856C72.8815 164.866 73.8262 164.682 74.5017 164.451ZM70.7079 161.394C71.0769 160.793 71.4582 159.976 71.5554 159.578C71.7175 158.905 71.6875 158.87 71.1317 159.037C68.5817 159.804 67.2706 159.72 65.4709 158.672C64.4639 158.083 64.4265 158.08 64.429 158.624C64.4365 159.913 66.3284 162.584 67.7766 163.346C68.4621 163.709 69.853 162.782 70.7079 161.394ZM78.8564 160.8C79.5992 159.32 79.7886 158.058 79.3524 157.531C78.7691 156.831 77.0791 156.213 75.7206 156.208C74.6937 156.203 74.2799 156.329 73.7265 156.816C73.0884 157.375 73.071 157.43 73.5371 157.437C73.8187 157.442 74.5242 157.912 75.1025 158.483C75.9051 159.275 76.279 159.926 76.6753 161.232L77.1963 162.941L77.7496 162.425C78.0513 162.142 78.5498 161.409 78.8564 160.8ZM70.1596 158.416C70.4637 158.202 70.4711 158.128 70.1969 158.018C69.4541 157.72 68.1704 156.369 67.6844 155.368C67.3578 154.7 67.1684 153.813 67.1684 152.974V151.64L66.3882 152.368C65.4435 153.254 64.4315 155.303 64.429 156.344C64.4265 156.995 64.5835 157.186 65.4859 157.636C67.6694 158.719 69.3345 158.997 70.1596 158.416ZM71.5878 153.411C71.9592 152.73 72.6971 151.804 73.2255 151.352C74.1627 150.554 74.1752 150.522 73.6617 150.249C72.7918 149.784 70.3291 149.894 69.0578 150.455C67.9261 150.954 67.9162 150.969 67.9162 152.171C67.9162 153.967 68.5593 155.584 69.6236 156.458L70.5335 157.209L70.7229 155.927C70.8276 155.222 71.2164 154.089 71.5878 153.411ZM75.7331 155.333C76.9321 155.333 77.787 155.475 78.3529 155.763C79.3848 156.292 79.6565 156.158 79.3923 155.246C78.9262 153.624 76.8996 151.26 75.6334 150.86C74.4519 150.485 71.6551 154.161 71.6551 156.086V156.978L72.8042 156.155C73.8487 155.408 74.1179 155.333 75.7331 155.333ZM89.637 152.994C89.8913 152.387 90.4347 151.766 91.0828 151.339C92.0898 150.674 92.2942 150.644 97.9026 150.296C101.083 150.1 103.705 149.919 103.733 149.899C103.783 149.856 104.625 138.647 105.061 132.234C105.201 130.184 105.378 127.991 105.455 127.36L105.592 126.213L102.771 125.935C98.0023 125.47 89.0213 124.655 82.9966 124.144C75.4564 123.505 65.4435 122.634 53.085 121.541C49.2463 121.203 42.0675 120.592 37.1321 120.184C18.4822 118.645 16.0892 118.443 12.1583 118.078C6.45269 117.549 4.83248 117.576 4.0124 118.22C3.65097 118.503 3.24467 118.938 3.11256 119.184C2.84335 119.683 2.31741 125.969 1.73662 135.587C1.14088 145.435 1.13839 145.125 1.8438 145.875C2.6564 146.737 3.60859 146.965 7.71895 147.271C9.63829 147.412 13.9555 147.745 17.3156 148.008C20.6757 148.272 24.4321 148.555 25.666 148.637C27.8146 148.778 29.5196 148.918 36.135 149.481C37.7802 149.62 42.0974 149.961 45.7317 150.239C53.1822 150.805 60.9517 151.416 63.5541 151.637C65.2491 151.781 65.3288 151.764 66.296 150.982C68.5518 149.156 71.0195 148.557 73.8536 149.149C75.8752 149.571 77.306 150.405 78.6769 151.963L79.7562 153.19L83.6198 153.547C89.5149 154.094 89.1585 154.126 89.637 152.994ZM122.931 149.049C127.62 148.806 131.523 148.542 131.603 148.463C131.795 148.269 132.932 134.998 132.991 132.234C133.034 130.299 133.011 130.207 132.356 129.429C131.952 128.95 131.414 128.644 130.798 128.548C127.465 128.016 106.846 126.267 106.617 126.496C106.532 126.583 106.32 128.915 106.146 131.68C105.974 134.442 105.707 138.158 105.558 139.933C105.276 143.21 104.889 149.745 104.969 149.824C105.047 149.901 114.032 149.514 122.931 149.049ZM160.518 128.399C167.372 128.25 177.692 128.019 183.45 127.884C189.208 127.748 199.523 127.519 206.372 127.373C215.358 127.179 219.035 127.018 219.583 126.789C220.984 126.205 221.096 125.654 220.747 120.987C220.578 118.702 220.172 112.157 219.847 106.441C219.523 100.726 219.217 96.0093 219.167 95.9571C219.115 95.9074 212.125 95.967 203.63 96.0888C179.262 96.4415 165.137 96.5781 137.585 96.7221C123.465 96.7942 110.623 96.9035 109.045 96.9631C107.467 97.0227 102.826 97.0748 98.7277 97.0798L91.2772 97.0873L91.4542 101.372C91.5539 103.729 91.7334 107.052 91.853 108.761C91.9751 110.47 92.2618 114.549 92.4911 117.827C92.7204 121.106 92.9498 123.836 93.0021 123.893C93.0893 123.992 96.574 124.32 107.549 125.261C110.084 125.48 113.898 125.82 116.024 126.019C118.15 126.218 122.468 126.62 125.621 126.916C131.321 127.447 132.63 127.743 133.405 128.677C133.627 128.943 135.05 128.972 140.866 128.838C144.819 128.746 153.663 128.548 160.518 128.399ZM139.953 95.7162C181.084 95.3411 204.475 95.0902 211.447 94.9511L219.252 94.7947L219.115 92.6486C219.037 91.4688 218.908 89.0893 218.826 87.3581C218.683 84.4246 218.631 84.1738 218.053 83.6323L217.432 83.0536L196.825 83.1032C185.494 83.1306 157.601 83.2796 134.844 83.4361C96.7236 83.6969 93.4059 83.7515 92.7179 84.139C91.3096 84.9338 91.0977 85.7808 91.1027 90.6293C91.1027 93.0187 91.175 95.2368 91.2598 95.5572L91.4168 96.1384L108.768 95.9919C118.312 95.9099 132.343 95.7857 139.953 95.7162ZM89.799 89.8841C89.7367 88.7912 89.637 87.8523 89.5822 87.7952C89.5249 87.7406 81.85 87.6263 72.5276 87.5419C63.2051 87.4549 54.9594 87.3208 54.2067 87.2438C50.4503 86.8588 48.1346 84.3899 48.157 80.7958C48.1695 78.6472 48.7578 77.1768 50.0614 76.0367C52.0107 74.3303 50.7444 74.4148 72.1113 74.6011C87.4784 74.7377 91.6237 74.842 92.5509 75.1177C95.0436 75.8579 96.7884 78.2101 97.0252 81.1485L97.1523 82.7282L101.415 82.5841C103.76 82.5046 115.229 82.368 126.899 82.2786L148.119 82.1196L148.234 76.7496C148.296 73.7963 148.321 71.3447 148.291 71.3025C148.214 71.2007 127.964 70.8405 104.059 70.5176C72.3855 70.0854 50.717 69.775 35.2626 69.5291C27.2438 69.3999 17.1486 69.2608 12.8314 69.2186L4.98204 69.1441L5.0618 79.0794C5.15154 90.1847 5.17895 90.3759 6.79418 91.0466C7.50708 91.3446 11.6075 91.4365 31.2395 91.598C44.2137 91.7023 62.724 91.8066 72.373 91.829L89.9162 91.8712L89.799 89.8841ZM151.823 81.377C152.417 80.9324 152.903 80.4778 152.908 80.366C152.92 80.0059 150.108 76.9781 149.887 77.1147C149.769 77.1867 149.675 78.3566 149.675 79.7153C149.675 82.0774 149.697 82.1842 150.211 82.1842C150.507 82.1842 151.233 81.8216 151.823 81.377ZM154.66 81.9855C154.66 81.68 154.099 81.1907 153.748 81.1907C153.573 81.1907 153.311 81.4142 153.164 81.6874C152.92 82.1395 152.975 82.1842 153.778 82.1842C154.264 82.1842 154.66 82.0948 154.66 81.9855ZM159.336 81.3521L159.897 80.8032L157.195 78.1455L156.49 78.6497C156.101 78.9279 155.51 79.447 155.176 79.8022L154.57 80.448L155.273 81.1807C155.66 81.5806 156.213 81.9607 156.502 82.0203C157.452 82.2215 158.763 81.911 159.336 81.3521ZM160.892 81.68C160.892 81.5558 160.725 81.5186 160.52 81.598C160.313 81.675 160.211 81.8414 160.286 81.9656C160.448 82.2264 160.892 82.0178 160.892 81.68ZM165.555 81.0516L166.5 80.2245L165.378 79.2284C164.763 78.6795 164.202 78.2299 164.132 78.2299C164.062 78.2299 163.402 78.7813 162.664 79.457C161.472 80.5449 161.36 80.7312 161.667 81.0988C162.155 81.685 163.319 82.1271 164.017 81.9954C164.344 81.9333 165.034 81.5086 165.555 81.0516ZM168.696 81.1807L167.497 80.4902L166.792 81.1509L166.089 81.8116L167.664 81.9383C169.878 82.1147 170.069 81.9731 168.696 81.1807ZM172.754 80.6765C172.662 79.986 172.32 78.6174 171.999 77.6338L171.411 75.8504L171.386 78.5007C171.371 79.9587 171.293 81.3273 171.209 81.5434C171.089 81.8588 171.244 81.9358 171.989 81.9358H172.921L172.754 80.6765ZM170.344 78.3964C170.331 76.8191 170.182 75.7088 169.865 74.8569L169.406 73.615L169.377 74.8569C169.362 75.5399 169.122 76.7148 168.843 77.4649C168.021 79.688 168.018 79.7799 168.793 80.2369C170.239 81.0888 170.366 80.9398 170.344 78.3964ZM161.943 79.0273C162.599 78.3839 163.135 77.7357 163.135 77.5891C163.135 77.4426 162.592 76.7893 161.929 76.1385L160.722 74.9538L159.458 75.9498C158.763 76.4962 158.115 77.0725 158.018 77.229C157.866 77.4749 160.258 80.1971 160.625 80.1971C160.695 80.1971 161.285 79.6706 161.943 79.0273ZM155.193 78.5479L156.365 77.3979L153.832 73.7267L153.187 74.2881C152.83 74.5961 152.182 75.1748 151.741 75.5747L150.941 76.3L151.724 77.3184C152.688 78.5727 153.713 79.7004 153.887 79.7004C153.96 79.7004 154.548 79.1813 155.193 78.5479ZM167.619 78.148C168.203 76.834 168.484 74.8047 168.257 73.5877L168.083 72.6661L167.437 73.7615C167.081 74.3651 166.36 75.376 165.835 76.0094C165.311 76.6428 164.88 77.2786 164.88 77.4227C164.88 77.6313 166.762 79.1465 167.076 79.1937C167.116 79.1986 167.362 78.7292 167.619 78.148ZM159.314 74.9538C159.77 74.6731 160.144 74.385 160.144 74.3129C160.144 74.2384 159.658 73.5355 159.062 72.7481L157.983 71.3149L156.554 72.1222C155.767 72.5643 155.021 73.0313 154.897 73.1555C154.687 73.3641 155.749 75.0879 156.789 76.2354C157.163 76.6453 157.217 76.6353 157.833 76.0665C158.192 75.7362 158.858 75.2344 159.314 74.9538ZM165.742 74.6209C166.615 73.3889 167.318 71.7521 166.974 71.7521C166.236 71.7521 162.464 73.6348 161.639 74.4148C161.57 74.4793 162.073 75.0159 162.756 75.607C164.192 76.8514 164.152 76.8638 165.742 74.6209ZM151.39 74.611C152.11 73.9975 152.868 73.4038 153.075 73.2871C153.389 73.1132 153.319 72.8425 152.621 71.5509C152.165 70.7089 151.694 70.0209 151.574 70.0184C151.452 70.0159 150.976 70.2469 150.515 70.53L149.675 71.0467V73.3865C149.675 74.6731 149.764 75.7262 149.877 75.7262C149.989 75.7262 150.669 75.2245 151.39 74.611ZM162.268 72.8177C162.813 72.4476 163.85 71.9036 164.573 71.6105C165.75 71.1336 165.844 71.0417 165.476 70.7362C164.566 69.9836 159.501 70.3189 159.224 71.1485C159.134 71.4143 160.799 73.4908 161.103 73.4908C161.198 73.4908 161.722 73.1878 162.268 72.8177ZM155.896 71.3671L157.407 70.4828L156.721 69.5663C156.343 69.0596 155.931 68.5753 155.809 68.4858C155.567 68.3145 153.179 68.9329 152.838 69.2558C152.624 69.4595 153.892 72.2489 154.199 72.2489C154.301 72.2489 155.064 71.8514 155.896 71.3671ZM148.508 65.7884C148.802 59.4844 148.578 59.1541 143.75 58.8163C142.142 58.7045 134.938 58.4909 127.74 58.3468C105.069 57.8873 80.5937 57.2167 59.4412 56.479C53.6134 56.2753 44.5277 55.9921 39.2508 55.8481C33.9739 55.704 26.1221 55.4233 21.8024 55.2271C17.4851 55.0284 12.4226 54.8645 10.5556 54.8645C7.48963 54.862 7.09829 54.9117 6.50005 55.3811C5.21385 56.3895 5.12163 56.8615 5.09171 62.5942L5.0643 67.9021L21.4708 68.1828C30.4967 68.3368 46.629 68.5927 57.3225 68.7516C85.3048 69.1664 140.512 70.0184 144.316 70.0929C146.098 70.1277 147.723 70.1525 147.93 70.145C148.239 70.1351 148.339 69.385 148.508 65.7884ZM161.809 69.3552C162.544 69.2682 163.105 69.1565 163.055 69.1043C162.609 68.6622 158.025 67.9617 157.337 68.235C156.948 68.389 156.981 68.5032 157.656 69.3204L158.414 70.2345L159.441 69.8743C160.007 69.6756 161.071 69.4421 161.809 69.3552ZM202.067 59.0845C202.232 56.1188 203.027 44.8124 203.104 44.3181C203.157 43.9877 199.871 43.5953 191.426 42.9222C189.644 42.7806 186.055 42.4527 183.45 42.1944C180.845 41.9361 177.871 41.6579 176.844 41.5784C172.233 41.2232 159.929 40.1825 157.838 39.9714C156.569 39.8422 153.905 39.6162 151.918 39.4671C149.931 39.3181 146.115 38.9853 143.443 38.7245C140.771 38.4662 137.74 38.1929 136.713 38.1159C134.34 37.9371 127.071 37.3161 121.807 36.8392C112.003 35.955 102.915 35.1999 99.5727 34.9888C97.5861 34.8646 95.5097 34.7329 94.9613 34.6957L93.9643 34.6261L93.6826 37.9768C93.0794 45.1477 92.7653 50.5451 92.9148 51.1387C93.3286 52.783 92.6332 52.6538 106.178 53.6101C108.235 53.7542 111.712 54.0373 113.905 54.2385C121.067 54.8943 126.541 55.3761 130.98 55.7413C137.715 56.2976 146.432 57.0751 150.423 57.4775C152.409 57.6787 155.326 57.9494 156.903 58.081C165.042 58.7566 178.195 59.9688 190.679 61.1933C192.598 61.3821 195.514 61.6677 197.159 61.8291C198.805 61.9906 200.203 62.1694 200.265 62.229C200.33 62.2887 200.721 62.3036 201.138 62.2638L201.896 62.1893L202.067 59.0845ZM203.356 42.0081C203.441 41.4964 203.511 40.5749 203.513 39.9589C203.513 39.3429 203.698 37.0206 203.925 34.7975C204.149 32.5745 204.288 30.7141 204.236 30.6644C204.181 30.6147 201.053 30.2769 197.284 29.9143C190.771 29.2884 185.302 28.7444 176.997 27.8949C174.955 27.6888 171.535 27.3559 169.394 27.1597C167.255 26.9635 163.26 26.576 160.518 26.3028C156.021 25.8507 152.447 25.5055 148.827 25.1702C148.129 25.1056 145.146 24.8299 142.197 24.5591C139.248 24.2859 130.556 23.5085 122.879 22.8304C115.202 22.1523 107.016 21.4121 104.688 21.1861C102.359 20.9576 99.483 20.7589 98.2915 20.7415C96.3348 20.7117 96.068 20.7663 95.4947 21.3003C95.1483 21.6232 94.7993 22.1821 94.7195 22.5423C94.4528 23.7767 93.8795 33.1284 94.0615 33.3172C94.1637 33.4215 95.8636 33.6102 97.8428 33.7369C102.546 34.0399 112.562 34.8596 119.14 35.4831C126.695 36.2009 132.224 36.6902 137.336 37.0951C145.096 37.7111 156.741 38.7096 157.651 38.8387C158.13 38.9058 162.674 39.2958 167.746 39.7031C172.819 40.1129 179.325 40.6693 182.204 40.9401C185.083 41.2108 189.961 41.6629 193.047 41.9435C198.877 42.4726 202.78 42.8501 203.047 42.9073C203.132 42.9246 203.271 42.5198 203.356 42.0081ZM18.4373 39.3728C21.0421 39.0225 25.5837 38.3916 28.5325 37.9694C31.4813 37.5471 34.7342 37.0976 35.7611 36.9709C38.0469 36.6927 47.9427 35.3638 50.3431 35.0136C51.3027 34.872 53.7705 34.5317 55.8269 34.256C57.8833 33.9803 62.9309 33.2998 67.0438 32.7434C71.1566 32.1895 76.1469 31.5238 78.136 31.2655C80.1251 31.0047 83.8441 30.5079 86.4041 30.1602C88.964 29.8125 91.4567 29.5268 91.9452 29.5268C93.0096 29.5268 93.0021 29.5517 93.2264 25.5527C93.4134 22.2442 93.6626 21.5065 94.9713 20.3614L95.926 19.5269L98.6828 19.666C101.362 19.8001 109.167 20.436 111.635 20.7191L112.856 20.8607L112.691 19.4176C112.495 17.6864 110.259 3.60298 110.161 3.49369C110.097 3.41917 101.188 4.41768 97.4539 4.91693C96.4943 5.0436 94.6423 5.27212 93.3411 5.42363C92.0399 5.57515 88.7297 5.98001 85.9878 6.32278C83.2459 6.66555 76.0671 7.55725 70.0349 8.3024C64.0027 9.04507 57.7786 9.82251 56.2008 10.0262C54.6229 10.2323 50.4727 10.7415 46.978 11.1588C43.4833 11.5761 38.1541 12.2467 35.138 12.6491C32.1219 13.0515 27.8046 13.5979 25.5413 13.8662C11.5152 15.5254 7.90839 16.047 7.06838 16.5413C5.91179 17.2244 5.52044 18.198 5.70739 19.9268C5.88188 21.5139 9.19709 38.3072 9.48374 39.0523C9.57348 39.2858 9.94239 39.6435 10.3038 39.8472C11.094 40.2918 11.9789 40.2396 18.4373 39.3728ZM134.811 22.0579C135.801 21.2805 135.818 21.4643 133.495 8.41418C132.463 2.61938 132.341 2.15242 131.708 1.64323C130.823 0.927883 130.08 0.873238 126.902 1.30046C125.237 1.524 121.466 1.98848 118.517 2.33374C115.568 2.67899 112.724 3.02673 112.195 3.10621L111.231 3.25027L111.393 4.52945C111.48 5.23238 111.834 7.53738 112.178 9.6561C112.522 11.7748 113.03 14.9591 113.31 16.735C113.589 18.511 113.86 20.195 113.915 20.4757C114.008 20.9476 114.312 21.0097 118.073 21.3152C120.304 21.499 124.207 21.8418 126.742 22.0803C133.196 22.6863 134.011 22.6838 134.811 22.0579ZM156.283 21.2879C156.215 21.1066 156.131 19.2437 156.096 17.1474L156.031 13.3396L153 16.2159C150.084 18.9879 149.425 19.4598 149.425 18.7792C149.425 18.4712 152.731 15.1354 154.847 13.3049L155.909 12.3883H151.559C148.638 12.3883 147.155 12.2989 147.04 12.1126C146.694 11.5538 147.646 11.4022 151.539 11.3998L155.525 11.3948L152.671 8.54333C150.408 6.28056 149.879 5.62731 150.123 5.38389C150.368 5.14047 151.023 5.66456 153.287 7.91492L156.143 10.754L156.21 6.54136C156.27 2.99195 156.34 2.32877 156.654 2.32877C156.968 2.32877 157.038 2.98699 157.095 6.4892C157.133 8.77682 157.245 10.6496 157.342 10.6496C157.439 10.6496 158.755 9.42262 160.263 7.92486C162.39 5.81608 163.095 5.25225 163.384 5.43357C163.683 5.62234 163.19 6.23585 160.902 8.52595L158.045 11.3824L162.148 11.4494C165.598 11.509 166.251 11.5786 166.251 11.8916C166.251 12.2045 165.603 12.2741 162.188 12.3312L158.127 12.4007L160.889 15.0386C163.384 17.4206 163.97 18.2253 163.207 18.2253C163.065 18.2253 161.744 17.0803 160.273 15.6794C158.803 14.2785 157.499 13.1335 157.382 13.1335C157.262 13.1335 157.133 14.9964 157.095 17.274C157.045 20.3143 156.946 21.4419 156.716 21.5164C156.544 21.5736 156.35 21.4717 156.283 21.2879ZM97.4265 159.685C96.5292 159.325 95.8337 158.212 95.8337 157.139C95.8337 155.723 97.1075 154.464 98.5382 154.464C100.46 154.464 101.617 155.467 101.617 157.132C101.617 159.129 99.3982 160.48 97.4265 159.685ZM99.8494 158.672C100.575 158.284 100.901 157.251 100.56 156.426C99.7945 154.583 96.8308 155.127 96.8308 157.109C96.8308 158.605 98.4261 159.432 99.8494 158.672ZM105.495 159.042C104.795 158.664 104.059 157.529 104.059 156.824C104.059 156.096 104.807 154.973 105.548 154.593C107.973 153.341 110.859 155.644 109.69 157.897C108.96 159.305 106.981 159.846 105.495 159.042ZM108.609 157.907C109.182 157.228 109.159 156.662 108.529 155.862C108.127 155.356 107.793 155.209 107.033 155.209C104.917 155.209 104.254 157.524 106.143 158.316C107.11 158.721 108.05 158.565 108.609 157.907ZM113.31 158.299C111.193 156.526 112.923 153.361 115.762 153.811C116.779 153.97 118.267 155.398 118.267 156.21C118.267 156.933 117.624 158.088 116.966 158.547C116.064 159.178 114.207 159.052 113.31 158.299ZM116.66 157.581C117.405 156.836 117.432 156.227 116.754 155.366C115.73 154.069 113.282 154.837 113.282 156.456C113.282 157.989 115.506 158.729 116.66 157.581ZM27.8969 128.259C26.9422 127.775 26.2891 126.695 26.2891 125.607C26.2891 122.847 30.3621 121.931 31.6433 124.402C32.917 126.851 30.3421 129.501 27.8969 128.259ZM18.3899 127.055C17.5798 126.315 17.4751 126.081 17.4602 124.968C17.4452 124.049 17.5724 123.57 17.9388 123.16C20.222 120.609 24.2701 123.098 22.954 126.24C22.6848 126.881 22.3034 127.271 21.6952 127.524C20.2819 128.11 19.4144 127.989 18.3899 127.055ZM10.4409 127.05C8.53155 126.193 7.95825 123.883 9.28433 122.403C9.81526 121.809 10.239 121.603 11.0915 121.518C12.4475 121.384 13.2377 121.762 14.0278 122.922C15.6032 125.237 13.0208 128.21 10.4409 127.05ZM109.817 119.626C108.449 118.923 108.215 118.232 107.98 114.174C107.724 109.713 107.808 109.082 108.815 108.123L109.576 107.395L120.09 107.239C125.875 107.152 135.938 107.067 142.454 107.052C153.032 107.025 154.361 107.065 154.879 107.427C155.956 108.178 156.156 109.164 156.156 113.717V117.944L155.428 118.754L154.702 119.566L147.638 119.725C134.298 120.026 110.478 119.963 109.817 119.626ZM148.543 118.726L154.269 118.572L154.857 117.703C155.375 116.941 155.43 116.638 155.311 115.219C155.236 114.33 155.171 112.621 155.166 111.419C155.159 109.4 155.109 109.186 154.505 108.585L153.855 107.937L132.196 108.106C120.284 108.2 110.276 108.376 109.955 108.498C108.928 108.888 108.713 109.911 108.903 113.545C109.097 117.276 109.361 118.389 110.129 118.699C110.732 118.94 139.754 118.962 148.543 118.726ZM160.991 119.104C160.565 118.91 159.952 118.379 159.628 117.927C159.099 117.186 159.02 116.729 158.86 113.515C158.643 109.102 158.93 107.996 160.5 107.184C161.46 106.69 161.936 106.677 181.812 106.583C201.434 106.491 202.175 106.503 203.017 106.961C204.483 107.755 204.787 108.727 204.927 113.048C205.041 116.583 205.016 116.888 204.528 117.656C203.466 119.323 204.308 119.258 181.954 119.362C164.882 119.444 161.644 119.402 160.991 119.104ZM98.6803 92.6064C97.5487 92.2661 97.0227 91.5433 96.8881 90.14C96.7759 88.9899 96.8283 88.8434 97.6334 88.0411C99.0492 86.6303 100.4 86.5657 101.834 87.8399C102.716 88.6273 103.03 90.1375 102.512 91.1012C101.806 92.4102 100.168 93.0535 98.6803 92.6064ZM101.205 91.2626C102.442 90.0307 101.564 87.897 99.822 87.897C98.0347 87.897 97.1125 90.2815 98.4834 91.357C99.3733 92.0525 100.448 92.0153 101.205 91.2626ZM107.148 92.3729C105.184 91.5831 105.007 88.5255 106.859 87.4003C108.446 86.4341 110.413 86.978 111.183 88.5925C111.747 89.7798 111.478 90.91 110.398 91.8513C109.491 92.6462 108.299 92.8374 107.148 92.3729ZM110.024 90.9696C110.71 90.1002 110.677 89.2507 109.93 88.5056C108.673 87.2537 106.552 88.0684 106.552 89.8022C106.552 90.9447 107.29 91.6228 108.529 91.6228C109.289 91.6228 109.623 91.4763 110.024 90.9696ZM115.334 92.3108C113.701 91.5259 113.342 89.0123 114.668 87.6338C116.366 85.8678 119.357 86.8762 119.686 89.3228C120.002 91.6775 117.54 93.3714 115.334 92.3108ZM118.19 91.0838C119.222 90.1151 118.878 88.4584 117.53 87.902C116.642 87.5344 115.423 87.9045 115.017 88.6596C113.965 90.6193 116.563 92.6039 118.19 91.0838ZM28.6297 64.3055C27.7149 63.9379 27.0369 62.8326 27.0369 61.7149C27.0369 58.7616 30.8432 57.7755 32.3612 60.3364C33.7496 62.6737 31.2295 65.3537 28.6297 64.3055ZM20.4314 64.0646C18.9109 63.4362 18.2155 61.4789 19.0405 60.1526C20.0525 58.5306 22.0342 58.1928 23.4251 59.4049C25.7657 61.4466 23.3179 65.2544 20.4314 64.0646ZM11.8318 63.7367C10.9619 63.3046 10.244 61.7596 10.4384 60.7313C10.7874 58.8734 13.1629 57.8252 14.7631 58.8237C15.2118 59.1019 15.7627 59.7179 15.9895 60.1923C17.1287 62.5718 14.317 64.9687 11.8318 63.7367ZM118.773 31.4443C117.722 30.9153 116.959 29.5442 117.103 28.4463C117.567 24.9143 123.003 25.2223 123.003 28.7817C123.003 30.9227 120.663 32.3981 118.773 31.4443ZM121.351 30.2546C121.852 29.8596 122.006 29.5194 122.006 28.8015C122.006 27.6788 121.441 27.0827 120.187 26.879C119.456 26.7598 119.187 26.8492 118.659 27.3758C116.824 29.2039 119.302 31.8591 121.351 30.2546ZM109.982 30.5824C108.409 29.6113 108.185 27.4702 109.518 26.196C110.942 24.8373 113.245 25.1627 114.289 26.8691C114.88 27.8328 114.897 28.3296 114.384 29.4076C113.688 30.8706 111.425 31.4741 109.982 30.5824ZM113.013 29.6287C113.551 29.1791 113.781 28.7668 113.781 28.2526C113.781 26.4692 111.163 25.5552 110.059 26.9511C108.915 28.4016 109.835 29.9938 111.954 30.2372C112.116 30.2571 112.592 29.9814 113.013 29.6287ZM101.941 30.1453C100.168 29.2089 99.7447 27.197 101.021 25.7737C101.946 24.7429 103.763 24.5169 104.982 25.2794C106.101 25.9799 106.545 27.4776 105.981 28.655C105.241 30.1975 103.357 30.8954 101.941 30.1453ZM104.695 28.9183C105.443 28.1731 105.475 27.3237 104.79 26.4543C104.381 25.9377 104.057 25.8011 103.252 25.8011C101.918 25.8011 101.318 26.3475 101.318 27.5596C101.318 29.3256 103.431 30.1751 104.695 28.9183ZM14.5737 24.1667C13.3523 23.6451 12.8413 22.895 12.8338 21.6158C12.8264 20.2596 13.5268 19.2313 14.7233 18.8389C15.9247 18.4439 17.6621 19.0748 18.193 20.0982C18.9882 21.6307 18.4398 23.4613 16.9766 24.1543C15.9397 24.6436 15.6929 24.6461 14.5737 24.1667ZM22.3582 22.8204C20.0625 21.4245 20.8801 17.9794 23.5771 17.6764C24.5891 17.5622 24.811 17.6342 25.6186 18.3396C27.2288 19.7504 27.0294 22.048 25.2223 22.9024C24.0732 23.4464 23.3528 23.424 22.3582 22.8204ZM30.8731 21.8319C29.2105 21.1637 28.712 18.6302 29.9907 17.356C31.3965 15.9551 33.4779 16.2184 34.5248 17.9273C35.1106 18.8836 35.1405 19.6188 34.6345 20.5924C33.9914 21.8319 32.2764 22.3982 30.8731 21.8319Z" fill="black"/>
</svg>
