<svg width="245" height="153" viewBox="0 0 245 153" fill="none" xmlns="http://www.w3.org/2000/svg">
<path d="M24.5741 20.1706C24.5741 18.378 26.0272 16.9248 27.8197 16.9248H206.098C207.89 16.9248 209.343 18.378 209.343 20.1706V126.588C209.343 128.381 207.89 129.834 206.098 129.834H27.8197C26.0272 129.834 24.5741 128.381 24.5741 126.588V20.1706Z" fill="white"/>
<path d="M142.096 152.801C142.096 152.706 142.402 152.099 142.771 151.454C143.758 149.732 146.007 147.768 148.281 146.639L150.233 145.672L31.6263 145.419L29.5398 144.925C26.5283 144.214 25.0052 143.629 22.8955 142.375C19.4829 140.349 16.6685 136.792 15.6322 133.203C15.0735 131.27 15.0434 127.757 15.5766 126.941C15.8038 126.596 16.075 126.313 16.1793 126.313C16.286 126.313 16.4367 127.331 16.5155 128.573C16.803 133.129 18.1592 136.145 21.2356 139.076C23.9642 141.673 27.4185 143.152 32.0227 143.694C34.1973 143.952 149.445 143.998 149.603 143.743C149.668 143.636 149.232 143.314 148.634 143.022C147.101 142.278 144.811 140.397 143.865 139.108C142.342 137.033 141.644 134.196 142.657 134.196C142.812 134.196 143.422 134.956 144.011 135.886C144.598 136.813 145.458 137.963 145.919 138.438C148.49 141.086 152.716 143.235 156.713 143.933C159.72 144.457 159.493 144.865 155.758 145.66C151.397 146.588 148.26 148.167 144.959 151.095C143.088 152.755 142.089 153.351 142.096 152.801ZM209.264 150.056C201.514 148.846 195.844 146.043 191.056 141.054C188.325 138.211 185.761 134.04 185.091 131.355L184.931 130.718H26.9456L25.9603 130.196C25.4155 129.909 24.6435 129.22 24.2424 128.666L23.5122 127.66L23.4449 119.682C23.4078 115.295 23.2989 111.706 23.2015 111.706C23.1041 111.706 21.2286 111.444 19.0332 111.127C9.98482 109.812 4.93786 108.157 2.1188 105.579C0.0323205 103.671 -0.482345 101.913 0.468162 99.9495C1.22857 98.3776 3.92244 96.4417 6.91306 95.3126C7.41846 95.1225 7.29558 95.0205 5.52208 94.1604C0.853001 91.8975 -0.714176 89.644 0.470481 86.8897C1.08251 85.4684 2.65433 84.1817 5.14187 83.0712C5.99501 82.6909 6.69514 82.32 6.69746 82.2504C6.7021 82.1809 6.31262 81.9838 5.83505 81.8122C4.34901 81.279 2.55696 80.1638 1.52531 79.1321C-0.507845 77.0988 -0.452208 75.1559 1.70382 73.1041C2.74938 72.1095 5.02364 70.8088 6.53054 70.3451C7.23299 70.1295 6.97102 69.8814 5.18824 69.0677C3.05308 68.0939 0.887777 66.1997 0.338337 64.8272C-0.658536 62.3395 0.778817 60.2158 4.82891 58.1871C5.79564 57.7049 6.61632 57.2342 6.64878 57.1438C6.68355 57.0534 5.92547 56.5758 4.96568 56.0797C0.618853 53.8284 -0.92746 51.2804 0.537712 48.7811C1.2703 47.5269 2.6636 46.4372 5.019 45.2756L6.95016 44.3227L5.019 43.3652C2.64737 42.1898 0.999055 40.7778 0.417159 39.4238C-0.139236 38.1209 -0.13228 37.6618 0.477436 36.4052C1.05006 35.2228 3.07626 33.6068 5.0816 32.7351C5.78173 32.429 6.56532 32.0882 6.82033 31.9793C7.21908 31.8054 7.10085 31.6941 5.95792 31.184C1.17756 29.0487 -0.825454 26.3454 0.438025 23.7371C1.10802 22.353 2.42018 21.2541 4.87759 20.023L6.87597 19.0214L4.9935 18.0662C2.60333 16.8513 1.1057 15.5692 0.449615 14.1712C-1.40735 10.2228 2.86761 6.85643 12.732 4.49624C22.4342 2.17546 32.4307 0.928126 47.4557 0.163034C53.5296 -0.147639 74.1974 0.0123339 80.7744 0.418064C85.3948 0.705553 96.5714 1.71408 98.7413 2.04331C99.5713 2.1685 101.187 2.37948 102.335 2.51395C105.284 2.85708 111.951 4.23657 115.271 5.19409C116.82 5.63924 119.249 6.56662 120.67 7.2552C123.656 8.70192 124.614 9.65017 124.852 11.396C125.047 12.8056 124.203 14.294 122.72 15.1635C122.142 15.502 121.713 15.8196 121.762 15.8706C121.813 15.9193 140.691 15.9587 163.714 15.9564C192.83 15.9517 205.931 16.0259 206.742 16.1998C208.353 16.5453 209.601 17.5144 210.336 18.9912L210.948 20.2177V92.4308L212.512 91.9625C214.794 91.2831 219.029 91.1348 221.976 91.6332C227.765 92.6139 232.654 95.1318 236.781 99.2563C240.661 103.135 243.052 107.716 244.368 113.793C245.045 116.916 245.208 122.647 244.711 125.784C243.671 132.352 240.775 138.007 236.182 142.433C231.805 146.653 225.831 149.451 219.641 150.179C216.85 150.506 211.768 150.446 209.264 150.056ZM207.208 147.33C204.693 146.231 201.966 144.48 200.886 143.268C200.643 142.996 200.202 142.774 199.908 142.774C199.275 142.774 196.806 143.664 196.808 143.891C196.808 143.977 197.042 144.165 197.33 144.306C197.615 144.448 198.329 144.84 198.918 145.176C200.803 146.261 206.538 148.067 208.166 148.09C208.894 148.099 208.792 148.02 207.208 147.33ZM224.241 147.49C224.987 147.306 226.135 146.945 226.791 146.685C228.298 146.094 232.972 143.458 232.972 143.198C232.972 143.094 232.946 143.006 232.914 143.006C232.881 143.006 232.137 142.799 231.258 142.549L229.663 142.092L228.098 143.534C227.238 144.327 225.555 145.575 224.361 146.305C221.327 148.162 221.378 148.122 222.191 147.963C222.574 147.888 223.497 147.675 224.241 147.49ZM216.025 147.121C216.192 146.68 216.975 141.547 216.975 140.898C216.975 140.782 215.821 140.687 214.409 140.687C211.434 140.687 211.585 140.381 212.969 143.636C214.462 147.149 215.547 148.387 216.025 147.121ZM208.778 145.266C207.588 144.086 206.334 142.769 205.989 142.336L205.36 141.55L203.691 141.826C202.773 141.979 201.932 142.192 201.82 142.303C201.579 142.544 204.229 144.54 206.195 145.6C207.544 146.328 210.076 147.344 210.651 147.388C210.808 147.401 209.965 146.446 208.778 145.266ZM219.746 145.213C220.979 143.602 222.532 141.095 222.414 140.905C222.361 140.819 221.392 140.729 220.26 140.706L218.202 140.664L217.916 143.052C217.759 144.367 217.571 145.897 217.501 146.458L217.372 147.476L218.113 146.926C218.521 146.625 219.256 145.853 219.746 145.213ZM213.266 147.093C213.266 147.044 213.011 146.548 212.7 145.992C212.39 145.433 211.805 144.142 211.4 143.122C210.994 142.101 210.577 141.158 210.468 141.026C210.266 140.773 206.775 141.093 206.775 141.362C206.777 141.438 207.533 142.326 208.455 143.34C210.412 145.479 213.266 147.708 213.266 147.093ZM222.075 146.305C224.433 144.965 228.103 142.234 228.103 141.816C228.103 141.677 225.027 141.151 224.206 141.151C223.979 141.151 223.603 141.526 223.346 142.013C223.093 142.486 222.235 143.785 221.438 144.9C220.64 146.013 219.989 146.989 219.989 147.068C219.989 147.297 220.949 146.947 222.075 146.305ZM197.193 142.384L199.087 141.749L197.984 140.465C196.699 138.969 194.761 136.138 194.035 134.699C193.76 134.145 193.407 133.741 193.257 133.797C193.104 133.855 192.042 134.186 190.894 134.534C189.747 134.879 188.729 135.239 188.634 135.329C188.305 135.64 191.052 139.285 193.018 141.146C194.098 142.169 195.053 143.008 195.141 143.013C195.227 143.017 196.152 142.734 197.193 142.384ZM235.786 140.745C237.891 138.55 241.151 133.72 240.78 133.347C240.617 133.185 237.773 132.445 236.491 132.229C235.57 132.076 235.48 132.107 235.35 132.607C235.07 133.688 232.73 138.051 231.703 139.407C231.126 140.17 230.653 140.863 230.653 140.949C230.653 141.072 233.563 142.183 234.152 142.287C234.226 142.299 234.961 141.605 235.786 140.745ZM202.878 140.833C203.603 140.683 204.262 140.497 204.338 140.418C204.417 140.339 204.081 139.658 203.592 138.902C202.836 137.731 201.67 135.195 200.763 132.746C200.633 132.396 200.355 132.109 200.147 132.109C199.836 132.109 194.986 133.27 194.77 133.398C194.657 133.465 196.342 136.335 197.221 137.567C197.694 138.23 198.603 139.359 199.24 140.077C200.218 141.179 200.49 141.36 200.979 141.244C201.299 141.167 202.152 140.982 202.878 140.833ZM230.669 138.758C232.392 136.342 234.465 132.132 234.105 131.775C233.964 131.634 229.768 131.005 228.344 130.913L227.31 130.845L227.027 131.882C226.072 135.376 225.416 137.478 224.934 138.577C224.635 139.268 224.419 139.862 224.456 139.899C224.605 140.047 228.254 140.643 228.796 140.608C229.232 140.581 229.689 140.131 230.669 138.758ZM208.513 139.871C210.319 139.644 210.261 139.76 209.652 137.631C209.346 136.57 208.859 134.555 208.569 133.152L208.04 130.602L207.234 130.669C206.163 130.757 202.066 131.654 201.857 131.847C201.517 132.16 203.397 136.24 205.217 139.141C205.859 140.166 205.982 140.251 206.638 140.138C207.032 140.07 207.876 139.95 208.513 139.871ZM223.728 138.225C224.54 136.435 226.142 130.998 225.922 130.778C225.692 130.546 219.015 130.208 218.821 130.416C218.725 130.518 218.575 132.605 218.484 135.056L218.32 139.509L220.371 139.586C221.501 139.63 222.56 139.686 222.727 139.711C222.898 139.739 223.334 139.092 223.728 138.225ZM217.075 139.006C217.135 138.719 217.249 136.616 217.325 134.332L217.464 130.18L213.481 130.324C211.291 130.403 209.45 130.516 209.39 130.576C209.269 130.695 210.479 136.208 211.073 138.248L211.444 139.528H214.205C216.882 139.528 216.971 139.512 217.075 139.006ZM192.76 132.522C192.844 132.44 192.788 132 192.638 131.546L192.364 130.718H189.369C187.236 130.718 186.373 130.797 186.373 130.989C186.373 131.137 186.696 131.958 187.088 132.811L187.804 134.365L190.208 133.519C191.529 133.053 192.679 132.605 192.76 132.522ZM197.249 131.613C198.195 131.376 199.152 131.182 199.379 131.182C199.606 131.182 199.857 131.077 199.936 130.95C200.028 130.799 198.927 130.718 196.804 130.718H193.53L193.688 131.239C193.957 132.109 194.263 132.348 194.919 132.19C195.255 132.111 196.303 131.852 197.249 131.613ZM242.442 129.095C243.024 127.004 243.633 123.338 243.636 121.933V120.915L242.21 121.064C241.426 121.145 240.035 121.212 239.122 121.212H237.455L237.191 124.168C237.045 125.793 236.709 127.945 236.444 128.949C236.18 129.953 236.004 130.813 236.053 130.862C236.101 130.91 237.1 131.156 238.273 131.406C239.447 131.657 240.585 131.963 240.803 132.086C241.31 132.371 241.763 131.546 242.442 129.095ZM235.134 129.153C235.561 127.609 235.89 125.555 236.113 123.009L236.27 121.212H228.103L228.089 121.966C228.08 122.381 227.938 124.233 227.772 126.081C227.605 127.929 227.496 129.475 227.53 129.515C227.563 129.554 228.775 129.737 230.222 129.923C231.671 130.108 233.013 130.298 233.203 130.345C234.527 130.674 234.752 130.535 235.134 129.153ZM226.281 128.631C226.534 127.393 226.958 121.653 226.812 121.418C226.742 121.305 224.918 121.212 222.757 121.212H218.83L218.8 124.052C218.767 126.839 218.823 128.921 218.932 129.037C219.004 129.116 225.078 129.508 225.66 129.47C225.984 129.452 226.16 129.211 226.281 128.631ZM215.063 129.097L217.439 129.095V121.212H210.982L210.908 124.4C210.85 126.786 210.737 127.773 210.451 128.327C210.24 128.733 210.136 129.137 210.22 129.22C210.301 129.304 210.89 129.313 211.527 129.236C212.165 129.16 213.755 129.097 215.063 129.097ZM207.108 128.569C207.612 128.283 208.237 127.685 208.499 127.24C208.977 126.429 208.977 126.366 209.037 81.2767L209.098 36.1247H25.4827V81.2419C25.4827 121.954 25.5175 126.433 25.8513 127.133C26.3289 128.142 27.1357 128.65 28.5916 128.863C29.2407 128.958 69.468 129.049 117.983 129.062L206.195 129.088L207.108 128.569ZM217.386 116.517L217.323 112.75L210.948 112.597V120.039L214.019 120.111C215.709 120.15 217.172 120.206 217.27 120.234C217.369 120.262 217.423 118.59 217.386 116.517ZM226.735 119.995C226.907 117.85 226.283 112.258 225.88 112.33C225.745 112.356 224.048 112.448 222.11 112.539L218.586 112.703L218.714 119.937L222.423 120.062C224.463 120.129 226.262 120.208 226.422 120.236C226.582 120.262 226.724 120.155 226.735 119.995ZM236.131 119.183C236.062 118.706 235.934 117.642 235.851 116.819C235.719 115.527 234.775 111.579 234.546 111.349C234.502 111.305 234.052 111.359 233.544 111.47C233.039 111.581 231.485 111.783 230.092 111.92C228.701 112.057 227.523 112.21 227.475 112.258C227.398 112.335 227.521 113.832 228.017 118.836L228.136 120.053H236.259L236.131 119.183ZM242.592 119.902L243.698 119.749L243.55 117.827C243.388 115.715 242.903 113.151 242.326 111.359C241.848 109.88 241.607 109.573 241.12 109.831C240.909 109.94 239.695 110.264 238.42 110.552C237.144 110.839 236.032 111.138 235.948 111.217C235.865 111.294 235.995 111.985 236.238 112.75C236.609 113.923 237.376 118.613 237.376 119.717C237.376 119.986 237.791 120.053 239.43 120.053C240.559 120.053 241.983 119.986 242.592 119.902ZM217.015 111.588C217.263 111.493 217.3 110.612 217.207 107.125L217.091 102.78H212.454L211.777 104.751C211.258 106.265 211.077 107.269 210.999 109.091L210.897 111.458L213.414 111.533C214.798 111.574 216.106 111.63 216.319 111.658C216.532 111.683 216.845 111.653 217.015 111.588ZM225.736 111.136C225.989 110.886 223.717 103.066 223.267 102.637C223.186 102.56 222.031 102.56 220.703 102.637L218.285 102.78L218.343 106.947C218.375 109.24 218.461 111.21 218.535 111.329C218.658 111.53 225.527 111.347 225.736 111.136ZM232.276 110.452C233.804 110.22 234.005 110.132 233.948 109.729C233.832 108.941 230.938 103.279 230.259 102.514L229.61 101.781L227.176 102.145C225.836 102.347 224.709 102.535 224.67 102.562C224.63 102.59 224.957 103.701 225.398 105.027C225.836 106.353 226.376 108.245 226.594 109.233L226.993 111.025L228.766 110.872C229.74 110.786 231.321 110.598 232.276 110.452ZM23.3963 98.8251L20.5563 98.4147C17.5077 97.9742 12.8016 96.9193 10.5111 96.1635L9.09923 95.6975L7.45787 96.3652C2.20226 98.5051 0.305881 100.986 1.94493 103.58C3.63961 106.267 9.75995 108.567 18.6437 109.856C20.1738 110.079 21.8685 110.271 22.411 110.288L23.3963 110.315V98.8251ZM238.807 109.24C240.293 108.839 241.086 108.516 241.086 108.308C241.086 107.297 237.423 101.443 236.108 100.353C235.809 100.103 235.364 100.161 233.491 100.689C232.248 101.039 231.2 101.357 231.159 101.394C231.117 101.431 231.666 102.435 232.376 103.627C233.087 104.818 234.056 106.708 234.527 107.823C235.538 110.206 235.39 110.158 238.807 109.24ZM211.108 102.722C211.05 102.5 211.001 102.683 211.001 103.128C211.001 103.573 211.05 103.756 211.108 103.534C211.165 103.311 211.165 102.945 211.108 102.722ZM212.716 98.9549C213.268 97.6172 214.033 95.9062 214.418 95.155C214.805 94.4038 215.121 93.7013 215.121 93.5923C215.121 93.2909 212.547 94.3203 211.701 94.9602L210.948 95.5329V98.5353C210.948 101.208 210.989 101.531 211.332 101.464C211.576 101.417 212.084 100.497 212.716 98.9549ZM217.026 101.331C217.068 101.236 216.996 99.4372 216.866 97.332L216.627 93.5065L215.665 95.2454C214.724 96.9448 213.034 100.819 213.034 101.276C213.034 101.542 216.908 101.596 217.026 101.331ZM222.609 101.357C222.854 101.113 220.311 96.3884 219.131 94.8976C217.787 93.2005 217.794 93.182 218.016 97.958L218.183 101.505H220.323C221.498 101.505 222.528 101.438 222.609 101.357ZM228.803 100.353C228.3 99.4117 224.329 95.5236 223.149 94.8142C221.809 94.0073 220.086 93.3188 219.718 93.4416C219.602 93.481 219.973 94.1372 220.538 94.8999C221.104 95.665 222.145 97.4433 222.847 98.8552L224.127 101.422L226.568 101.081C228.729 100.782 228.986 100.696 228.803 100.353ZM232.677 99.7571C233.852 99.3978 234.55 99.0732 234.46 98.9248C234.121 98.3776 230.442 95.832 229.146 95.25C228.013 94.74 226.181 94.0931 223.524 93.2631C222.947 93.0846 223.251 93.6201 223.925 93.9679C224.892 94.4664 227.352 96.815 228.921 98.7324C229.647 99.6203 230.356 100.346 230.493 100.346C230.632 100.346 231.615 100.082 232.677 99.7571ZM23.3963 92.1665L22.0632 92.3241C19.1352 92.6673 11.1092 94.6287 11.1092 95.002C11.1092 95.4633 20.0579 97.4108 22.7587 97.5337L23.3963 97.5639V92.1665ZM12.1385 93.4045C13.8031 92.9014 16.5225 92.2198 18.1801 91.8883C19.8376 91.5567 21.69 91.1742 22.2951 91.0397L23.3963 90.7939V86.0666L20.9041 85.6562C15.8084 84.8216 11.814 83.973 8.52429 83.0248C7.98413 82.8695 3.99663 84.8401 2.84907 85.8301C1.6505 86.8642 1.04542 88.2413 1.39085 89.1548C1.93102 90.583 3.97345 92.2337 6.66501 93.4138C7.77084 93.896 8.77235 94.2995 8.8929 94.3064C9.01114 94.3134 10.4717 93.9076 12.1385 93.4045ZM23.3963 82.0441C23.3963 80.5209 23.3174 79.2318 23.2224 79.1808C22.6057 78.84 10.4137 81.7867 10.4137 82.2759C10.4137 82.364 10.7012 82.4985 11.0512 82.575C11.4013 82.6538 12.6787 82.9344 13.8912 83.2033C16.3741 83.7505 22.0818 84.7613 22.8746 84.7915C23.387 84.8123 23.3963 84.766 23.3963 82.0441ZM10.9771 80.7689C14.3618 79.7187 17.1067 79.0486 20.4984 78.4482L23.2803 77.9566V73.8159L21.1939 73.5469C17.7535 73.1041 12.9082 72.0469 10.0474 71.1172L8.63557 70.6581L6.93393 71.3815C2.7007 73.1829 0.577125 75.3971 1.45345 77.0942C2.19299 78.5247 3.88535 79.7581 6.69515 80.9173C7.52974 81.2604 8.25536 81.5479 8.311 81.5549C8.36433 81.5618 9.56521 81.2071 10.9771 80.7689ZM23.3963 69.7423C23.3963 67.6696 23.3221 66.9602 23.1065 66.9602C22.0655 66.9648 15.9104 68.335 12.732 69.2717C11.2692 69.7029 10.1726 70.206 10.6942 70.206C10.7731 70.206 11.8372 70.4726 13.0589 70.7972C14.283 71.1241 15.8316 71.4858 16.4993 71.6041C17.1693 71.7223 18.5 71.9681 19.4551 72.1512C20.4103 72.3344 21.69 72.492 22.2951 72.5036L23.3963 72.5245V69.7423ZM11.9206 68.3675C14.5357 67.5491 19.1955 66.4385 21.7155 66.0305L23.3963 65.7592V63.4547C23.3963 61.8086 23.3128 61.1269 23.1065 61.069C22.9465 61.0226 21.6158 60.8047 20.1506 60.5821C17.1507 60.1277 13.0056 59.1586 10.4276 58.3077C8.44779 57.6539 8.18118 57.7026 5.32039 59.2049C2.43641 60.7212 0.931825 62.4624 1.24943 63.916C1.57863 65.4138 3.66975 67.1804 6.69746 68.5205C8.65875 69.3876 8.65643 69.3876 11.9206 68.3675ZM23.3452 57.1647L23.2803 54.3246L22.1212 54.3964C20.0532 54.524 12.0203 56.3555 10.9817 56.9375C10.6548 57.1206 10.8588 57.2528 12.062 57.6377C14.538 58.4352 20.9852 59.8008 23.1134 59.9793C23.3429 60.0002 23.3962 59.3626 23.3452 57.1647ZM12.3055 55.3493C15.4375 54.4428 21.7827 53.0633 22.8746 53.0541C23.38 53.0494 23.3963 52.9799 23.3963 50.7356C23.3963 48.074 23.7115 48.3661 20.3824 47.9349C18.143 47.6451 14.7072 46.8661 11.0234 45.8135L8.50111 45.0948L7.0823 45.6049C4.28874 46.6041 1.60182 48.6954 1.23552 50.1513C0.975873 51.1877 1.77801 52.5417 3.33823 53.7009C4.89845 54.8601 7.69897 56.2582 8.51038 56.279C8.80017 56.2883 10.5088 55.8687 12.3055 55.3493ZM23.3963 41.6356L22.0632 41.8003C20.4079 42.002 15.6971 42.9502 14.0651 43.4093C13.3951 43.5971 12.4051 43.8637 11.8627 44.0028C11.3202 44.1442 10.8774 44.3436 10.8774 44.4479C10.8774 44.6566 13.3046 45.3197 17.2527 46.1937C20.197 46.8452 20.7905 46.9403 22.2951 46.9867L23.3963 47.0214V41.6356ZM9.97787 43.4116C12.3727 42.5561 21.6181 40.5436 23.2224 40.5321C23.3174 40.5297 23.3963 39.5398 23.3963 38.3318C23.3963 35.8001 23.7973 36.1455 20.0347 35.4407C16.3324 34.7452 14.5542 34.3232 11.7027 33.4584C10.2306 33.011 8.83726 32.647 8.60079 32.647C7.16344 32.647 2.50364 35.3109 1.77801 36.5466C0.894732 38.0536 1.4094 39.5537 3.29186 40.9749C4.41161 41.8211 8.10004 43.7176 8.7028 43.757C8.84653 43.7686 9.42148 43.611 9.97787 43.4116ZM23.3452 31.8657L23.4125 29.1136L21.6065 29.2806C18.8315 29.5356 10.8774 31.504 10.8774 31.9352C10.8774 32.3989 21.1939 34.7405 22.8167 34.6455C23.2479 34.62 23.285 34.4299 23.3452 31.8657ZM209.051 27.4884C208.979 20.6026 208.968 20.4588 208.435 19.6033C208.138 19.1234 207.449 18.4719 206.907 18.1543L205.919 17.5747L117.151 17.6349C28.9022 17.6929 28.376 17.6952 27.4556 18.1566C26.9479 18.4116 26.2965 18.975 26.0067 19.4086C25.4897 20.1829 25.4827 20.3058 25.4827 27.3493V34.5017H209.123L209.051 27.4884ZM11.9925 30.2335C14.6168 29.466 19.9744 28.2419 20.7001 28.2419C20.8948 28.2419 21.5857 28.1283 22.2348 27.9892L23.4125 27.7365L23.3476 25.6197L23.2803 23.5053L19.1074 22.6475C16.8123 22.1768 13.6315 21.3955 12.0365 20.9132C10.4415 20.431 8.76771 20.0346 8.31796 20.0346C7.17504 20.0299 4.1821 21.5021 2.86066 22.717C0.744041 24.6599 0.73477 26.0255 2.81893 27.9011C3.84362 28.8215 4.70603 29.3061 7.86357 30.7319C8.73989 31.1261 9.06214 31.089 11.9925 30.2335ZM23.3986 21.4604C23.4009 19.0121 24.8707 17.2292 27.4788 16.5105C29.0135 16.0862 30.3929 16.07 62.738 16.07C81.252 16.07 96.3257 16.0028 96.2376 15.9216C96.0521 15.75 87.5833 14.6812 83.7882 14.3474C68.9789 13.0514 47.8614 13.1418 34.9878 14.5584C33.9052 14.6766 31.9207 14.8922 30.583 15.036C23.387 15.8103 10.6455 18.4603 10.6455 19.1814C10.6455 19.5384 18.1569 21.4813 21.7734 22.0586C23.2827 22.2997 23.3962 22.258 23.3986 21.4604ZM12.3449 17.3312C17.9575 15.7663 25.907 14.3706 34.0605 13.5197C46.795 12.1889 70.6341 12.0173 82.8609 13.1719C91.3088 13.9671 92.7253 14.1503 98.6254 15.1936C101.802 15.757 102.75 15.8173 109.566 15.8984C117.663 15.9958 118.619 15.8938 121.12 14.6812C123.422 13.5637 124.213 12.022 123.244 10.5405C121.106 7.27839 107.72 3.77288 92.5978 2.51627C91.0677 2.38876 87.989 2.12909 85.7588 1.94129C72.3335 0.805247 47.1126 0.856255 36.3788 2.03867C34.1486 2.28443 31.5915 2.54641 30.6989 2.62292C23.2664 3.25818 12.011 5.53722 7.39991 7.3433C1.26334 9.74523 -0.259786 12.3744 2.80734 15.2678C3.92476 16.3204 8.25305 18.5531 8.7909 18.3537C8.981 18.2841 10.5806 17.8227 12.3449 17.3312ZM227.932 78.7333C227.799 78.571 227.048 77.1498 226.262 75.5756C225.126 73.3035 224.89 72.6497 225.105 72.3877C225.479 71.9402 225.643 71.9704 226.438 72.6404C226.816 72.9604 227.248 73.22 227.394 73.22C227.593 73.22 227.642 66.3226 227.586 45.8042L227.514 18.3884L226.884 16.07C225.409 10.6471 222.611 7.05118 218.011 4.6678C215.422 3.32773 213.414 2.80608 209.788 2.52555C207.76 2.37021 194.824 2.30993 172.99 2.35398C154.474 2.39339 139.205 2.35166 139.061 2.26356C138.92 2.17546 138.841 1.90652 138.888 1.66771C138.969 1.24344 139.94 1.22953 174.436 1.15997C211.615 1.08346 212.053 1.09274 215.352 2.09663C217.353 2.70407 220.485 4.33858 222.126 5.63228C225.664 8.41907 228.082 12.8798 228.782 17.9132C228.947 19.0956 229.03 28.7473 229.03 46.574C229.03 75.5199 228.97 74.1706 230.199 72.863C230.911 72.1048 231.724 72.1698 231.632 72.9812C231.555 73.6768 228.785 78.8377 228.428 78.9513C228.289 78.9953 228.064 78.8979 227.932 78.7333ZM78.2428 116.054C77.1857 113.438 70.917 95.6488 68.8282 89.3356L67.8336 86.3263L67.3213 88.9879C67.0408 90.4531 66.5215 93.182 66.1668 95.0506C65.8144 96.9216 65.4342 98.5909 65.3206 98.7602C64.9033 99.3931 64.4999 98.2223 62.9072 91.7839C62.0239 88.2089 61.238 85.283 61.1638 85.2806C61.0873 85.2783 59.8424 86.7111 58.3958 88.4639C53.0822 94.9046 52.3705 95.5769 52.3798 94.1441C52.3821 93.794 52.9524 90.9609 53.6456 87.8472C54.3387 84.7358 54.8557 82.1044 54.7908 82C54.7259 81.898 54.1324 82.0279 53.4671 82.2898C51.2415 83.1685 41.7967 86.2034 41.2867 86.2034C41.0108 86.2034 40.7836 86.1199 40.7836 86.0156C40.7836 85.7281 44.734 81.9792 48.2787 78.9049C50.896 76.6351 51.4038 76.0972 51.0583 75.9581C50.8265 75.8631 49.4077 75.5199 47.9077 75.1907C44.7803 74.5091 37.9622 72.7934 37.8231 72.6543C37.6284 72.4596 38.8524 71.982 40.881 71.4603C42.0378 71.1636 44.7062 70.4842 46.8112 69.951C48.9162 69.4201 50.6897 68.9332 50.7523 68.8683C50.8149 68.8034 50.7314 68.7037 50.5622 68.6434C49.6302 68.3118 40.2457 60.4499 40.4892 60.2065C40.6028 60.0929 42.9813 60.4685 45.8955 61.0551C48.7586 61.6324 51.5684 62.1981 52.1433 62.314C52.7182 62.4299 53.3697 62.5945 53.5922 62.6803C53.8148 62.7661 53.9979 62.7383 53.9979 62.6177C53.9979 62.4971 53.0614 59.6431 51.9184 56.279C50.7755 52.9126 49.9247 50.0748 50.0313 49.9682C50.2492 49.7503 50.7036 50.1073 54.6934 53.6314C60.5704 58.8224 60.9482 59.1307 61.0456 58.8108C61.0989 58.6392 61.7898 55.6809 62.5803 52.238C64.3144 44.696 64.1151 45.3985 64.5138 45.3985C64.8685 45.3985 64.9241 45.5886 67.1057 54.0927C67.8243 56.8981 68.4387 59.2188 68.4665 59.249C68.4967 59.2791 70.1867 57.7652 72.2268 55.8872C78.5465 50.0609 79.2675 49.4999 79.2675 50.418C79.2675 50.6289 78.4237 53.3995 77.392 56.5781C76.3604 59.7567 75.5745 62.416 75.6463 62.4879C75.7159 62.5597 78.1547 62.1331 81.0619 61.5396C87.2703 60.2737 89.642 59.9793 89.3267 60.5125C89.2131 60.705 87.7734 61.9987 86.1297 63.3898C81.354 67.4239 79.4994 69.0607 79.4994 69.2369C79.4994 69.3273 82.3857 70.1295 85.9141 71.0221C89.4426 71.9147 92.3706 72.7679 92.4193 72.9186C92.5236 73.2316 92.3057 73.2989 86.4728 74.7293C82.2234 75.7727 80.7466 75.9952 80.2273 75.6753C79.6802 75.3368 80.2598 75.1003 83.3848 74.3816C85.1375 73.9782 87.1451 73.4866 87.8453 73.2896L89.1203 72.9302L83.7882 71.5693C80.8556 70.8227 78.222 70.1457 77.9345 70.0669C77.647 69.9881 77.4175 69.8049 77.4245 69.6589C77.4361 69.4433 84.1476 63.5149 86.0532 62.0381C86.3384 61.8178 86.445 61.6347 86.2897 61.6324C86.1367 61.63 83.4243 62.1494 80.2644 62.787C77.1045 63.4245 74.4408 63.9462 74.3434 63.9462C74.2461 63.9462 74.1672 63.7723 74.1672 63.5613C74.1672 63.1927 77.3387 53.1491 77.5891 52.7295C77.96 52.1035 76.7614 53.1259 72.7809 56.8355C70.3397 59.1099 68.2115 60.9206 68.0515 60.858C67.8893 60.7977 67.5832 60.0836 67.3676 59.2745C67.1544 58.4653 66.4658 55.8385 65.8399 53.4366C65.2139 51.0347 64.6575 49.0269 64.6042 48.9713C64.479 48.8461 63.8693 50.9582 63.292 53.5131C61.6762 60.6679 61.602 60.9252 61.2125 60.705C61.0062 60.5914 60.0441 59.7845 59.075 58.9174C54.3086 54.6445 52.083 52.6947 51.8999 52.6275C51.7886 52.5857 52.0645 53.578 52.5119 54.83C53.8843 58.6717 55.3889 63.2622 55.3889 63.6146C55.3889 64.0042 54.7375 64.0389 53.5621 63.7143C51.9277 63.2646 43.7557 61.5929 43.6606 61.688C43.5586 61.79 49.8088 66.7747 51.7376 68.131C52.3427 68.5553 52.8388 69.0259 52.8388 69.172C52.8388 69.3204 51.7167 69.7284 50.3466 70.0785C43.7557 71.7663 41.4999 72.4062 41.6576 72.5407C41.8268 72.6914 45.8097 73.6466 50.7268 74.7201C52.1804 75.0377 53.4323 75.36 53.5088 75.4365C53.6595 75.5872 53.5366 75.7008 48.0051 80.6136C44.1984 83.9939 43.7649 84.4205 44.3074 84.2466C44.472 84.1933 47.2007 83.3007 50.3698 82.2643C53.5389 81.2257 56.1864 80.4304 56.2513 80.4977C56.3186 80.5649 56.1447 81.5873 55.8642 82.7744C54.8789 86.9314 54.7004 87.7289 54.253 89.9129C54.0049 91.1232 53.8333 92.1433 53.8681 92.1804C53.9052 92.2152 54.5428 91.4848 55.2869 90.5575C58.5928 86.4352 61.493 83.1732 61.6831 83.3633C61.8408 83.5209 63.5957 90.0915 64.7549 94.8675C64.843 95.2338 64.9682 95.4796 65.0308 95.417C65.0957 95.3544 65.4017 93.801 65.7124 91.9694C66.023 90.1378 66.4867 87.4901 66.7417 86.0875C66.9967 84.6848 67.2077 83.3981 67.21 83.2288C67.2169 82.473 67.7641 83.2219 68.2787 84.6894C69.2362 87.4322 70.553 89.8874 73.2353 93.9331C74.6587 96.0824 75.8689 97.7934 75.9245 97.7377C75.9802 97.6821 75.8735 96.8127 75.6857 95.8041C75.4122 94.3342 74.3991 86.6717 74.3991 86.0712C74.3991 85.9901 75.1038 86.5373 75.9639 87.2838C77.9809 89.0389 81.1222 91.5938 81.1222 91.4802C81.1222 91.4315 80.4452 89.5281 79.6199 87.249C78.7923 84.97 78.1686 83.0503 78.2336 82.9854C78.3448 82.8764 80.9344 83.2474 88.0261 84.3857C89.5933 84.6384 91.0399 84.81 91.2393 84.7706C91.6844 84.6802 84.544 80.3817 81.0063 78.6081C79.7034 77.9543 74.6263 76.2224 74.0699 76.2433C73.9331 76.2479 74.7074 76.6954 75.7901 77.2379C79.664 79.1738 87.3816 83.2288 87.3816 83.3262C87.3816 83.4444 86.5725 83.3331 82.1654 82.6098C80.3803 82.3177 78.3982 82.0093 77.7606 81.9258C77.1231 81.8401 76.4183 81.7195 76.1958 81.6546C75.5768 81.4737 75.6788 81.8748 77.086 85.1114C77.7977 86.7529 78.3309 88.144 78.2707 88.2066C78.1594 88.3155 75.7344 85.6493 74.1835 83.7111C73.7499 83.1685 73.3628 82.7582 73.3234 82.7976C73.284 82.837 73.3489 83.4885 73.4694 84.2466C73.8798 86.8294 74.6564 93.9007 74.5869 94.3992C74.5312 94.7794 74.3689 94.5916 73.9099 93.6225C72.8273 91.3481 70.6596 85.7374 68.9348 80.755C68.0098 78.0772 67.0848 75.4295 66.8831 74.8708C66.4797 73.7533 66.4102 72.9882 66.7139 72.9882C66.8228 72.9882 67.2146 73.0832 67.5832 73.2015C67.9542 73.3197 69.3521 73.7301 70.6898 74.1126C72.0274 74.4975 75.4701 75.4921 78.3402 76.3221C83.0023 77.6715 91.5708 80.0966 102.335 83.1129C108.682 84.8912 110.565 85.5125 110.565 85.8255C110.565 86.1107 108.701 87.5504 100.828 93.3489C98.8503 94.8049 97.1834 96.0476 97.1185 96.1102C96.9933 96.2307 97.8581 97.0491 104.711 103.281C108.304 106.55 109.174 107.457 109.174 107.939C109.174 108.393 108.476 109.242 106.26 111.482C104.655 113.102 103.097 114.56 102.791 114.723C102.075 115.108 102.017 115.068 97.814 111.231C92.6952 106.562 89.0438 103.36 88.8398 103.362C88.7401 103.365 86.9643 105.79 84.8964 108.753C80.7281 114.723 79.1493 116.807 78.7876 116.807C78.6555 116.807 78.4121 116.469 78.2428 116.054ZM102.773 78.3322C102.504 78.2186 102.059 77.843 101.788 77.4976C101.317 76.8994 101.291 76.6189 101.291 72.128V67.3891L101.968 66.7098L102.648 66.0328H107.776C112.874 66.0328 112.909 66.0351 113.458 66.5869C114.225 67.3543 114.316 68.0939 114.232 72.9279L114.158 77.1521L112.874 78.4366L108.068 78.4876C105.425 78.5131 103.042 78.4435 102.773 78.3322ZM112.691 77.0107C113.073 76.6629 113.115 76.1946 113.115 72.2579C113.115 66.5058 113.574 66.9602 107.743 66.9602C103.932 66.9602 103.239 67.0158 102.875 67.3427C102.492 67.6905 102.451 68.1611 102.451 72.1953C102.451 75.9488 102.509 76.7232 102.815 77.0293C103.373 77.5857 112.072 77.5695 112.691 77.0107ZM138.939 78.3322C138.67 78.2186 138.224 77.843 137.953 77.4976C137.483 76.8994 137.457 76.6189 137.457 72.128V67.3891L138.134 66.7098L138.813 66.0328H149.083L149.763 66.7098L150.44 67.3891V76.9226L149.763 77.6784L149.088 78.4366L144.257 78.4876C141.602 78.5131 139.207 78.4435 138.939 78.3322ZM148.856 77.0107C149.239 76.6629 149.281 76.1946 149.281 72.2161C149.281 68.4394 149.225 67.7485 148.898 67.3845C148.55 67.0019 148.077 66.9602 143.958 66.9602C140.673 66.9602 139.293 67.0413 139.015 67.25C138.681 67.5004 138.621 68.1472 138.572 71.9889C138.524 76.0509 138.556 76.4798 138.95 76.9156C139.36 77.3678 139.632 77.3932 143.909 77.3932C147.792 77.3932 148.492 77.3399 148.856 77.0107ZM172.322 78.3322C172.053 78.2186 171.608 77.843 171.337 77.4976C170.866 76.8994 170.841 76.6189 170.841 72.128V67.3891L171.518 66.7098L172.197 66.0328H177.418C182.602 66.0328 182.643 66.0374 183.288 66.5915L183.939 67.1503L184.081 76.8925L182.704 78.4366L177.756 78.4852C175.037 78.5131 172.591 78.4435 172.322 78.3322ZM182.472 77.0107C182.854 76.6629 182.896 76.1946 182.896 72.2161C182.896 68.4394 182.84 67.7485 182.513 67.3845C182.166 66.9996 181.688 66.9602 177.429 66.9602C173.465 66.9602 172.672 67.0181 172.364 67.3242C172.058 67.6302 172 68.4069 172 72.1767C172 75.9465 172.058 76.7232 172.364 77.0293C172.923 77.588 181.853 77.5695 182.472 77.0107ZM58.412 77.6413C58.266 77.3678 58.1709 75.098 58.1709 71.88C58.1709 66.7747 58.1895 66.5521 58.6578 66.1255C59.1098 65.7198 59.5619 65.685 64.5648 65.685C71.325 65.685 70.8799 65.4254 71.0839 69.4827L71.2253 72.3205L70.553 72.1628C70.1821 72.0747 68.6844 71.7038 67.2262 71.3374C65.768 70.9711 64.4373 70.6697 64.2704 70.6697C63.8114 70.6697 63.8855 71.1265 64.894 74.4071C65.404 76.0694 65.8213 77.5764 65.8213 77.7573C65.8213 78.0308 65.1861 78.0888 62.2372 78.0888C58.929 78.0888 58.6323 78.054 58.412 77.6413ZM35.0388 28.7983C32.6463 27.5742 32.2105 24.5092 34.2112 22.9836C35.3471 22.1165 37.5217 21.9612 38.6415 22.6637C40.8299 24.0362 40.8578 26.9134 38.6948 28.5155C37.8532 29.1368 35.987 29.2829 35.0388 28.7983ZM37.9668 27.6785C39.1515 27.0664 39.5317 25.2975 38.7041 24.2472C37.9947 23.343 36.9978 23.0207 35.9151 23.3453C33.9817 23.9249 33.4577 25.8307 34.8487 27.2218C35.7343 28.1074 36.8309 28.2674 37.9668 27.6785ZM45.4248 28.6476C44.013 27.9266 43.4496 27.0827 43.4496 25.6916C43.4496 23.7464 45.0539 22.2139 47.0894 22.2139C48.9974 22.2139 50.3907 23.2665 50.7801 25.0077C50.9679 25.8446 50.9216 26.1483 50.4718 27.0572C49.8806 28.2465 48.434 29.1693 47.1589 29.1693C46.7671 29.1693 45.9859 28.9351 45.4248 28.6476ZM49.0623 27.2102C49.8088 26.3431 49.927 25.629 49.4796 24.6854C48.7308 23.1065 46.5191 22.717 45.2881 23.9481C44.1405 25.0958 44.2935 26.5772 45.6544 27.5023C46.7416 28.2396 48.2903 28.1074 49.0623 27.2102ZM56.1818 28.7427C53.7313 27.5951 53.2677 24.5393 55.3078 22.9836C56.4438 22.1165 58.6183 21.9612 59.7381 22.6637C61.2589 23.6189 61.813 25.4551 61.0943 27.1708C60.4289 28.7659 57.9391 29.5634 56.1818 28.7427ZM59.1284 27.6461C59.5202 27.4444 59.9769 26.932 60.1623 26.4868C60.4521 25.7959 60.4521 25.5873 60.1646 24.8987C59.0913 22.3321 55.1571 22.9234 55.1571 25.6499C55.1571 26.7813 56.4183 28.0101 57.5797 28.0101C58.0457 28.0101 58.7412 27.8478 59.1284 27.6461Z" fill="black"/>
</svg>
