<svg width="252" height="170" viewBox="0 0 252 170" fill="none" xmlns="http://www.w3.org/2000/svg">
<path d="M152.452 13.4312L249.094 21.1061L250.887 22.0015L251.399 24.1761L248.198 85.0641L246.022 88.1341H234.886L236.55 110.647L242.054 157.592V160.151L239.366 161.942L181.893 165.523H178.437L176.005 162.837L174.213 155.034L172.42 129.579L171.524 127.916L169.988 155.802L168.196 158.104L164.1 158.616L133.251 157.081L86.6583 154.906L82.3061 154.395L83.0742 161.686L80.8981 164.756L76.418 165.267L18.6885 169.489L15.7444 169.361C14.9764 169.105 13.2867 168.44 12.6723 167.826C12.0579 167.212 11.7336 166.376 11.6483 166.035L6.01616 133.672L0.640017 93.2507V90.6924L1.02403 89.1574C1.36537 88.5605 2.30406 87.2643 3.32809 86.8549C4.35211 86.4456 10.8376 85.8316 13.9524 85.5758L2.17606 21.1061V19.5711L2.94408 17.6524L5.50414 16.5012L105.091 4.47706L118.659 2.81415L140.804 0.63958L143.492 2.81415L146.18 22.2574L147.332 23.7924L149.124 14.7103L152.452 13.4312Z" fill="white"/>
<path d="M14.384 169.641C12.7737 169.052 11.7395 167.865 11.1737 165.959C10.6258 164.104 9.31765 156.667 7.08271 142.676C6.95982 141.901 6.55789 139.427 6.19436 137.176C5.82827 134.924 4.78633 127.958 3.88006 121.698C2.97124 115.435 2.17506 110.083 2.1085 109.802C2.0445 109.52 1.64257 106.471 1.22016 103.022C-0.351725 90.2483 -0.367085 89.3273 0.956469 87.8179C2.00098 86.6309 3.14533 86.1525 5.60811 85.8787C8.72115 85.5333 24.1328 84.093 27.6912 83.8167C29.3809 83.6862 31.8565 83.4611 33.1954 83.3178C35.4892 83.0722 43.2052 82.3892 50.3478 81.8008C52.1092 81.6549 56.9886 81.2277 61.1948 80.8491C67.6718 80.2683 69.0235 80.212 70.0245 80.4781C70.6748 80.6521 71.3941 80.9642 71.622 81.1714C72.006 81.5193 72.0495 80.8746 72.1775 73.0334C72.3823 60.7151 72.2543 60.9325 79.2535 61.0272C82.3947 61.0707 84.535 60.9453 87.4688 60.5514C89.65 60.2571 93.0497 59.7992 95.021 59.5357C96.9922 59.2696 101.14 58.7554 104.237 58.3947C116.646 56.9441 116.654 56.9416 116.651 56.4939C116.648 56.2636 116.574 55.8082 116.487 55.4782C116.351 54.9717 116.208 54.9026 115.53 55.0254C115.092 55.1021 113.41 55.2863 111.789 55.4347C110.169 55.5805 107.117 55.9285 105.005 56.2073C102.893 56.4887 98.7459 57.0055 95.789 57.3586C92.8321 57.7116 88.6259 58.2207 86.4448 58.4919C84.2636 58.7605 81.4962 59.0547 80.3006 59.1417C79.1051 59.2313 77.0314 59.4666 75.6925 59.6636C74.3536 59.8632 71.0716 60.316 68.3963 60.669C65.721 61.0221 62.7258 61.4289 61.7401 61.5747C60.7545 61.7179 57.9308 62.0659 55.468 62.3447C53.0052 62.6262 47.3602 63.3143 42.9236 63.8772C38.487 64.44 31.8821 65.2766 28.2442 65.7345L21.629 66.566L21.7698 67.4384C21.8492 67.9193 22.0079 68.408 22.1257 68.5256C22.2409 68.6408 24.0022 68.5154 26.0374 68.2442C29.9543 67.7249 37.7472 66.7527 39.4675 66.5685C40.0308 66.5097 41.8151 66.2845 43.4357 66.0696C45.0562 65.8548 48.799 65.384 51.7559 65.0233C54.7127 64.6651 58.7449 64.1509 60.7161 63.8823C72.6639 62.2526 73.4115 62.2117 71.5785 63.2888C70.8028 63.7441 70.7925 63.78 70.8744 65.5426L70.9564 67.3335L68.0123 67.7428C63.8138 68.3261 56.0107 69.3289 47.2758 70.4034C45.6552 70.603 42.9492 70.9458 41.2596 71.1633C36.0729 71.8335 30.4177 72.5448 26.7952 72.9797C24.8931 73.2099 23.2674 73.4402 23.183 73.4939C22.9679 73.6218 23.7999 77.2239 24.0457 77.2393C24.5065 77.27 27.8935 76.8939 30.3793 76.5383C31.8565 76.326 37.3299 75.6352 42.5396 75.0033C47.7494 74.374 54.2571 73.5706 57.004 73.2202C71.9676 71.3168 71.3404 71.3628 71.3404 72.1738C71.3404 72.6317 71.5989 72.5882 62.3801 73.7344C58.3685 74.2332 53.297 74.8728 51.1159 75.1542C48.9347 75.4357 45.2482 75.8834 42.9236 76.152C39.4061 76.5588 29.2452 77.8123 25.0544 78.3547C24.184 78.4673 23.9791 78.5875 24.0739 78.9278C24.3273 79.8539 24.5142 81.7982 24.3708 82.031C23.9791 82.6655 23.4851 81.8801 23.2034 80.1685C23.0396 79.1606 22.6863 77.183 22.4252 75.7759C22.1615 74.3688 21.7135 71.9512 21.4293 70.4034C20.0776 63.0304 19.3147 59.0061 18.9845 57.4839C18.3956 54.7849 15.9047 40.8881 15.618 38.7187C15.4695 37.6032 15.5028 37.4855 15.9252 37.5674C16.2964 37.639 16.5038 38.1558 16.8903 39.9594C17.1617 41.2258 17.4203 42.3029 17.4638 42.3515C17.5431 42.441 18.8923 42.2875 26.2832 41.3537C28.4644 41.0774 31.6901 40.686 33.4514 40.4813C35.2127 40.2767 38.1491 39.9313 39.9796 39.7138C41.81 39.4964 44.8053 39.1433 46.6357 38.931C50.3146 38.4986 57.4879 37.5751 64.5562 36.626C67.0907 36.2831 71.6399 35.7075 74.6685 35.3417C77.697 34.9758 82.8812 34.3337 86.1888 33.9167C89.4964 33.4971 94.2223 32.9343 96.685 32.6682C102.023 32.0901 119.362 29.9206 120.153 29.7313C120.46 29.6571 121.843 29.4831 123.225 29.3424C125.698 29.0917 130.608 28.4547 136.315 27.6463C137.907 27.4211 139.259 27.2881 139.32 27.3495C139.466 27.4928 139.95 30.0306 139.95 30.6395C139.95 31.2023 139.715 31.2714 136.451 31.65L133.847 31.9545L134.006 32.8857C134.349 34.9042 134.298 35.0296 132.966 35.3724C132.296 35.5463 130.048 35.8789 127.974 36.1143C125.903 36.3471 121.269 36.9304 117.678 37.4062C114.086 37.8821 109.89 38.3989 108.351 38.5549C106.813 38.7084 105.481 38.8798 105.392 38.9336C105.305 38.9873 103.569 39.2124 101.534 39.435C99.5011 39.655 96.109 40.0669 93.997 40.3534C85.4975 41.497 76.4452 42.6329 72.6204 43.032C71.8473 43.1139 69.5432 43.4029 67.5003 43.6767C61.63 44.4621 54.1905 45.401 49.3238 45.9664C46.861 46.2529 43.1156 46.7109 41.0036 46.9872C38.8915 47.2609 36.0703 47.6114 34.7314 47.7649C33.3925 47.9184 31.0321 48.2075 29.4833 48.407C25.2233 48.9571 20.3541 49.5659 19.5579 49.6504C19.1688 49.6913 18.8309 49.7732 18.8078 49.832C18.7182 50.0495 19.4529 53.9228 19.6014 54.0149C19.6859 54.066 21.4831 53.8921 23.5951 53.6234C25.7072 53.3574 34.0018 52.3289 42.0276 51.3389C50.0534 50.3488 56.9656 49.4943 57.388 49.438C57.8104 49.3843 59.5948 49.154 61.3561 48.9289C63.1174 48.7038 65.3037 48.4045 66.2202 48.2663C67.1367 48.1282 69.5535 47.8365 71.5964 47.6191C73.6393 47.4042 75.5952 47.179 75.9485 47.1253C76.3018 47.069 80.3902 46.5599 85.0367 45.9945C89.6833 45.4291 94.3503 44.8458 95.405 44.7C96.4598 44.5516 98.3619 44.3188 99.6291 44.1781C100.896 44.04 103.776 43.6946 106.029 43.4132C111.618 42.7122 115.898 42.1929 119.854 41.7298C121.684 41.5175 123.814 41.2437 124.59 41.1235C125.365 41.0058 126.044 40.9521 126.1 41.0058C126.397 41.2872 126.835 44.59 126.61 44.8203C126.356 45.0786 123.077 45.5801 119.424 45.9203C118.343 46.0227 117.401 46.1634 117.329 46.2324C117.26 46.3041 117.319 46.913 117.463 47.5858C117.606 48.2586 117.662 48.9673 117.588 49.1592C117.506 49.3741 116.869 49.5762 115.965 49.6734C115.148 49.7629 113.325 49.9983 111.917 50.2004C108.845 50.6379 98.4694 51.9349 93.485 52.5029C91.5137 52.7255 86.9056 53.3011 83.2447 53.7795C79.5838 54.2553 71.8652 55.2301 66.0922 55.9438C60.3193 56.655 54.9611 57.3483 54.1879 57.4814C53.4148 57.6144 51.6279 57.8447 50.2198 57.9905C48.8118 58.1389 46.8533 58.3717 45.8677 58.5073C44.132 58.7477 42.8699 58.8987 33.0674 60.0448C30.5329 60.3416 27.338 60.7483 25.9658 60.953C24.5936 61.1551 22.9577 61.3214 22.333 61.3214C21.7058 61.3214 21.1375 61.4084 21.0709 61.5184C21.0043 61.6259 21.053 62.2885 21.1784 62.9894C21.3039 63.6904 21.4677 64.6191 21.5445 65.0514L21.6828 65.8394L26.4778 65.2433C29.1172 64.9133 33.4079 64.3607 36.0115 64.0102C41.7895 63.235 46.1212 62.6876 50.3478 62.2015C55.9006 61.5619 63.6474 60.5948 67.6283 60.0423C76.6858 58.7887 80.0753 58.3717 85.2927 57.8651C87.4048 57.6605 89.9393 57.3739 90.9249 57.2281C96.4239 56.412 116.656 54.0763 116.82 54.24C117.061 54.4779 117.432 57.576 117.242 57.7602C117.13 57.8702 115.253 58.2028 113.069 58.5021C110.886 58.8015 107.473 59.2696 105.484 59.5434C103.495 59.8171 101.741 60.0423 101.585 60.0423C101.393 60.0423 101.383 60.2418 101.552 60.6895C101.767 61.2549 101.716 61.3675 101.145 61.5849C100.786 61.7205 99.903 61.8331 99.1862 61.8331C96.6671 61.8331 98.1443 62.0608 102.322 62.3166C107.432 62.6287 117.47 63.2785 122.542 63.6265C124.582 63.7672 128.729 64.0537 131.758 64.2609C134.786 64.4707 138.926 64.7547 140.959 64.8928C142.992 65.0335 144.689 65.1128 144.732 65.0719C145.042 64.7624 146.455 28.7335 146.248 26.4004C146.041 24.0467 144.945 17.106 144.75 16.9115C144.612 16.7734 137.672 17.5409 130.606 18.4747C129.057 18.6793 126.292 19.017 124.462 19.2217C120.588 19.6566 115.952 20.222 111.789 20.7669C107.962 21.2684 100.75 22.1459 99.1171 22.3096C96.4572 22.5757 88.6106 23.5606 84.5247 24.1388C82.9759 24.3588 80.6155 24.6249 79.2766 24.7323C77.9377 24.8372 74.945 25.1749 72.6204 25.4794C65.3959 26.4234 62.3597 26.8071 59.1801 27.173C57.4904 27.3674 54.7255 27.7025 53.0359 27.9174C51.3463 28.1298 48.0643 28.5417 45.7397 28.8308C43.4152 29.1198 40.192 29.5266 38.5715 29.7364C33.4796 30.3964 25.7098 31.3379 23.9791 31.5042C23.0652 31.5937 22.0284 31.7191 21.6751 31.7856C21.3218 31.8496 19.9982 32.0133 18.731 32.1515C17.4638 32.287 14.4685 32.6375 12.0748 32.9292C9.68117 33.2208 7.11343 33.5278 6.37101 33.6123C5.62859 33.6967 4.96553 33.8502 4.90153 33.9551C4.83753 34.06 5.0705 35.7433 5.42378 37.6928C6.1278 41.5865 6.74222 44.9917 7.72272 50.4486C8.61363 55.4066 9.58389 60.7151 10.1573 63.7518C10.421 65.1589 11.1711 69.1882 11.8188 72.7059C12.4691 76.2236 13.2448 80.2274 13.5418 81.6038C13.9309 83.4023 14.0051 84.1826 13.8054 84.3821C13.6518 84.5356 13.4163 84.5919 13.2832 84.5075C12.9939 84.3309 12.1516 80.7698 11.4579 76.7992C11.1891 75.2515 10.4287 71.107 9.77078 67.5893C8.4293 60.426 8.24242 59.418 6.97006 52.3673C6.47341 49.6222 5.83851 46.1122 5.55435 44.5644C5.27018 43.0166 4.57128 39.0461 3.99527 35.7382C3.42181 32.4303 2.67171 28.1733 2.32866 26.2724C1.11263 19.5185 1.18688 18.6103 3.10436 16.8425C4.35112 15.6938 4.13607 15.7501 10.2828 15.0286C12.6765 14.7498 16.5934 14.2893 18.987 14.0053C21.3807 13.7239 25.8736 13.1969 28.9713 12.8361C40.5223 11.4956 43.3819 11.1553 46.2517 10.7869C47.8722 10.5797 50.7523 10.2446 52.6519 10.0399C54.5515 9.83524 59.1033 9.3159 62.7642 8.8861C66.425 8.45374 70.918 7.93185 72.7484 7.72718C74.5789 7.52252 79.0718 7.00062 82.7327 6.57082C86.3936 6.14102 91.0017 5.61913 92.9729 5.4119C94.9442 5.20468 96.8438 4.97955 97.1971 4.91047C97.5503 4.83884 99.7366 4.55486 102.061 4.27857C104.386 3.99971 107.266 3.61085 108.461 3.4113C110.448 3.07872 114.058 2.69241 122.03 1.95561C124.894 1.69211 130.268 1.08578 136.97 0.272239C140.009 -0.0961593 140.35 -0.0936004 141.374 0.297822C142.72 0.812045 143.921 2.11167 144.136 3.28082C144.22 3.75411 144.643 6.79084 145.073 10.0271C145.503 13.2634 146.061 17.349 146.312 19.1091L146.773 22.307L146.96 20.0046C147.413 14.3788 148.483 12.9692 152.29 12.9692C153.964 12.9717 165.461 13.7878 168.367 14.1127C168.999 14.1844 171.593 14.3635 174.127 14.5118C176.662 14.6602 179.196 14.8342 179.759 14.8982C181.167 15.0568 186.646 15.4738 189.743 15.658C191.151 15.7424 193.399 15.9138 194.736 16.0392C197.349 16.2848 198.21 16.3487 207.024 16.9397C210.193 17.152 213.13 17.3797 213.552 17.4437C213.974 17.5076 216.337 17.6816 218.8 17.83C221.263 17.9784 224.202 18.2035 225.328 18.334C227.359 18.5642 227.999 18.6179 234.673 19.1066C249.815 20.2118 250.222 20.2834 251.282 22.0052C252.055 23.2613 252.135 24.2642 251.846 29.0866C251.7 31.5477 251.403 36.5569 251.19 40.2153C250.975 43.8737 250.681 48.824 250.535 51.2161C250.389 53.6081 250.046 59.6534 249.769 64.6472C248.597 85.9555 248.589 86.0552 247.98 87.0428C247.353 88.0558 246.055 88.8106 244.529 89.051C243.966 89.1406 241.723 89.0459 239.542 88.8413C237.363 88.6366 235.533 88.5189 235.474 88.5752C235.159 88.8899 238.423 124.343 240.312 141.141C241.104 148.166 241.562 151.697 242.261 156.163C242.739 159.228 242.601 160.282 241.567 161.462C240.525 162.646 239.642 162.805 231.473 163.268C223.536 163.716 217.602 164.076 212.656 164.411C210.756 164.539 207.587 164.713 205.616 164.798C203.645 164.885 199.441 165.12 196.272 165.325C178.461 166.476 178.973 166.481 176.974 165.105C176.162 164.544 175.453 163.145 175.033 161.27C174.14 157.281 172.763 144.214 172.217 134.51C172.071 131.921 171.91 129.759 171.861 129.71C171.723 129.57 171.477 135.119 171.18 145.106C170.899 154.634 170.745 156.074 169.893 157.274C168.871 158.706 167.607 159.049 163.357 159.047C161.255 159.047 156.885 158.878 153.647 158.676C150.408 158.474 144.878 158.179 141.358 158.023C137.838 157.87 133.174 157.634 130.99 157.504C128.806 157.374 123.451 157.092 119.086 156.877C114.721 156.665 107.809 156.322 103.725 156.115C90.482 155.45 83.0937 155.148 82.9682 155.273C82.9016 155.342 83.022 156.478 83.237 157.798C83.9564 162.239 83.6389 163.685 81.6651 164.933C80.3723 165.755 80.2929 165.765 70.0603 166.463C65.9054 166.745 60.0326 167.159 57.004 167.382C53.9754 167.604 48.7913 167.942 45.4837 168.134C42.1761 168.326 37.1635 168.658 34.3474 168.876C17.5739 170.17 15.9969 170.232 14.384 169.641ZM22.8399 168.523C24.6627 168.387 28.746 168.101 31.9154 167.883C35.0847 167.668 38.1926 167.433 38.8275 167.364C39.4624 167.292 42.8596 167.062 46.3797 166.85C58.6553 166.115 78.3038 164.744 79.7297 164.524C80.7921 164.363 82.2642 163.084 82.4715 162.145C82.5586 161.748 82.2872 159.249 81.8674 156.591C81.4475 153.933 80.8049 149.742 80.4389 147.281C80.0728 144.82 79.6094 141.709 79.4072 140.373C79.0155 137.759 78.1604 131.665 77.098 123.872C76.7319 121.199 76.2122 117.4 75.9434 115.43C75.4544 111.856 74.4406 103.621 73.8339 98.2891C73.542 95.7206 73.4704 95.4801 73.0044 95.5287C72.7228 95.5568 70.2472 95.7641 67.5003 95.9841C64.7533 96.2041 59.7996 96.6134 56.492 96.8923C53.1844 97.1686 48.1129 97.5702 45.2277 97.78C42.3425 97.9924 39.5751 98.2226 39.0835 98.2942C38.1824 98.4221 29.4474 99.1513 20.6511 99.8292C16.1274 100.177 11.4604 100.589 9.25876 100.832C8.69555 100.893 6.88046 101.024 5.22666 101.119C2.833 101.257 2.21858 101.369 2.21858 101.669C2.21858 102.426 3.025 108.538 3.76998 113.45C4.19239 116.228 4.65576 119.421 4.79913 120.547C5.04233 122.458 5.3265 124.374 6.57325 132.443C8.76979 146.646 11.8572 164.614 12.336 165.972C12.7968 167.274 13.1065 167.678 14.1229 168.3C15.0266 168.853 17.5687 168.917 22.8399 168.523ZM185.263 164.805C186.884 164.724 191.894 164.432 196.4 164.158C205.416 163.608 219.696 162.769 226.864 162.367C240.259 161.615 240.154 161.631 241.155 160.277C241.631 159.633 241.646 159.448 241.367 157.591C240.617 152.6 239.742 146.091 239.401 142.932C238.733 136.771 236.193 111.669 235.96 108.906C235.835 107.43 235.535 103.859 235.295 100.975C235.057 98.0921 234.834 95.6975 234.801 95.6592C234.77 95.6208 232.22 95.7052 229.14 95.851C226.058 95.9969 220.946 96.2271 217.776 96.3678C214.607 96.506 211.21 96.6748 210.224 96.7439C209.238 96.8104 204.745 97.0432 200.24 97.2556C195.734 97.4705 189.687 97.7647 186.799 97.9054C183.912 98.0486 179.736 98.238 177.519 98.3301C174.086 98.4708 173.482 98.5577 173.459 98.9057C173.444 99.1283 173.397 99.6578 173.356 100.08C173.024 103.59 172.665 118.646 172.798 123.529C173.198 138.145 174.926 157.031 176.313 161.935C176.925 164.097 178.838 165.294 181.295 165.054C181.858 164.997 183.643 164.887 185.263 164.805ZM168.131 157.325C169.475 156.493 169.703 155.772 169.811 152.014C169.995 145.572 170.438 135.055 170.807 128.349C171.319 119.017 171.884 107.911 172.217 100.592C172.371 97.2146 172.65 91.9778 172.837 88.9513C173.026 85.9248 173.103 83.3716 173.013 83.2743C172.921 83.1771 170.197 82.975 166.959 82.8266C163.72 82.6783 160.438 82.4966 159.663 82.4224C158.887 82.3482 153.127 82.0029 146.862 81.6524C140.598 81.3044 130.862 80.7314 125.23 80.3809C119.598 80.0304 112.685 79.6287 109.869 79.4855C107.053 79.3422 100.948 78.9994 96.301 78.7205C91.6545 78.4442 85.6076 78.0861 82.8607 77.9275C80.1137 77.7688 76.8471 77.5591 75.6003 77.4618C73.7008 77.3135 73.3091 77.3467 73.1836 77.6716C72.9865 78.1884 73.5369 86.7639 74.0131 90.6142C74.223 92.3027 74.6403 95.7564 74.9373 98.2891C76.865 114.611 80.9022 144.139 81.9851 149.839C82.1848 150.893 82.3512 152.103 82.3538 152.525C82.3615 154.073 79.7323 153.823 111.661 155.335C116.167 155.547 124.057 155.949 129.198 156.225C134.339 156.501 142.113 156.913 146.478 157.143C150.843 157.374 156.143 157.655 158.255 157.767C164.524 158.105 167.051 157.993 168.131 157.325ZM6.57069 99.8216C7.90961 99.7371 10.7897 99.5094 12.9709 99.315C15.152 99.1206 17.9169 98.8878 19.115 98.8008C20.3131 98.7112 23.7692 98.4247 26.7952 98.1638C29.8212 97.9028 33.4514 97.6137 34.8594 97.5216C36.2675 97.4295 38.976 97.1967 40.8756 97.0023C42.7752 96.8104 46.0597 96.529 48.1718 96.3781C50.2838 96.2271 55.468 95.8178 59.6921 95.4673C63.9162 95.1168 68.6958 94.7458 70.3164 94.641L73.2604 94.4516L73.1862 93.4283C72.9839 90.5681 72.2543 84.6072 71.9983 83.7093C71.8012 83.0262 71.4197 82.4992 70.8437 82.1103C69.7967 81.4068 68.0558 81.3658 62.1241 81.9159C59.943 82.118 55.2171 82.5171 51.6279 82.8036C48.0387 83.0901 44.813 83.3818 44.4597 83.4483C44.1064 83.5174 40.4225 83.8704 36.2675 84.2337C32.1125 84.5944 26.9283 85.0549 24.7472 85.2545C22.566 85.454 18.0731 85.8506 14.7629 86.1345C9.18196 86.613 5.85387 86.966 3.8263 87.3011C3.37317 87.3753 2.65379 87.7284 2.23138 88.084C0.994869 89.1252 0.851505 90.1767 1.31488 94.7868C1.89601 100.566 1.79617 100.259 3.07364 100.1C3.6599 100.029 5.23178 99.9034 6.57069 99.8216ZM178.863 97.143C181.188 97.01 188.1 96.6672 194.224 96.3806C200.347 96.0941 206.051 95.7999 206.896 95.7257C207.741 95.6489 211.427 95.4775 215.088 95.3445C223.884 95.0221 233.646 94.5617 234.299 94.4389C234.819 94.3416 234.819 94.3416 234.373 89.5627C233.815 83.5583 233.805 83.5123 232.683 82.5273L231.752 81.7112L226.493 81.8749C223.6 81.9645 219.389 82.1512 217.136 82.2894C214.883 82.4275 210.332 82.6603 207.024 82.8036C203.716 82.9469 198.184 83.236 194.736 83.4483C191.287 83.6581 185.299 84.0111 181.431 84.2286C177.406 84.4563 174.329 84.7377 174.237 84.8861C174.15 85.0294 174.002 86.8355 173.909 88.9026C173.815 90.9698 173.666 93.7251 173.577 95.0273L173.41 97.3937L174.025 97.3912C174.363 97.3886 176.539 97.276 178.863 97.143ZM246.556 86.8867C247.537 85.8199 247.499 86.0987 248.108 75.0084C248.323 71.0686 248.676 64.9082 248.889 61.3214C249.104 57.7346 249.385 52.8969 249.516 50.5765C249.646 48.2561 249.895 44.0835 250.069 41.3051C250.24 38.5293 250.327 36.2038 250.263 36.1373C250.064 35.9403 230.456 34.3644 218.288 33.5688C217.093 33.4895 215.708 33.3718 215.216 33.3078C214.725 33.2439 212.303 33.0699 209.84 32.9241C203.01 32.5199 191.036 31.6833 186.031 31.2637C183.569 31.0565 179.652 30.7674 177.327 30.6216C169.634 30.1381 150.554 28.667 148.516 28.401L147.482 28.2654L147.021 39.4836C146.77 45.6543 146.417 53.9279 146.238 57.8677C146.058 61.8075 145.946 65.0719 145.987 65.1205C146.028 65.1691 147.42 65.3098 149.084 65.4326C153.503 65.755 162.269 66.3843 166.831 66.7067C171.511 67.0367 172.199 67.2158 173.356 68.4054C174.365 69.4441 174.864 71.2886 174.726 73.4683L174.639 74.8268L177.583 74.9982C179.204 75.0928 181.794 75.2745 183.343 75.405C184.892 75.5329 187.081 75.6992 188.207 75.7759C206.369 77.0014 221.383 78.0682 228.4 78.631C239.89 79.5546 240.177 79.5878 240.177 79.9971C240.177 80.5958 238.129 80.6009 231.37 80.0176C224.765 79.4471 219.376 79.0454 205.36 78.0784C189.441 76.9809 180.276 76.3362 176.278 76.0343L174.59 75.9064L174.419 79.6543C174.327 81.7163 174.281 83.4227 174.316 83.4483C174.352 83.4713 175.65 83.3997 177.199 83.2871C180.535 83.0441 191.372 82.4454 201.904 81.921C206.056 81.7138 211.53 81.4298 214.064 81.2891C229.171 80.45 229.819 80.4295 231.237 80.7467C233.738 81.307 234.816 82.6603 235.087 85.5845L235.254 87.3728L237.717 87.5365C239.068 87.6286 240.351 87.7437 240.561 87.7975C240.771 87.8486 242.02 87.8716 243.333 87.8461L245.722 87.8L246.556 86.8867ZM173.354 78.654C173.71 71.8335 173.671 70.7514 173.052 69.7639C172.184 68.3773 171.636 68.1751 168.119 67.9398C166.355 67.8221 160.822 67.4358 155.823 67.0802C150.823 66.7271 143.163 66.2078 138.798 65.9315C134.433 65.6552 130.171 65.3687 129.326 65.2996C126.103 65.031 120.389 64.637 114.349 64.2686C110.901 64.0588 105.487 63.7134 102.317 63.5037C99.1478 63.2939 94.0226 62.9562 90.9249 62.7515C87.8272 62.5443 83.1602 62.3038 80.5566 62.2117C75.8819 62.048 75.8103 62.0531 74.9475 62.6415C74.4457 62.9843 73.9414 63.6239 73.7648 64.1432C73.5881 64.6523 73.3731 67.4384 73.2655 70.5672L73.0787 76.0906L75.4723 76.262C76.7908 76.3567 78.7338 76.4871 79.7886 76.5511C80.8433 76.615 83.6082 76.7839 85.9328 76.9272C92.1128 77.3109 106.746 78.1475 112.941 78.4698C115.898 78.6233 118.778 78.7947 119.342 78.8459C119.905 78.8996 121.518 79.0096 122.926 79.0889C128.135 79.3883 147.19 80.5318 153.262 80.9105C156.711 81.1254 160.802 81.3633 162.351 81.4426C163.9 81.5193 166.606 81.6677 168.367 81.7752C170.128 81.8826 171.931 81.985 172.373 82.0054L173.18 82.0438L173.354 78.654ZM27.9473 70.91C29.3553 70.713 31.1985 70.4802 32.0434 70.3932C32.8882 70.3088 35.653 69.966 38.1875 69.6334C40.722 69.3034 44.813 68.7866 47.2758 68.4847C49.7385 68.1854 53.8295 67.666 56.364 67.3283C58.8985 66.9932 62.9894 66.4688 65.4522 66.1669C67.915 65.8624 70.0757 65.5733 70.2523 65.5222C70.429 65.471 70.5724 65.1256 70.5724 64.7547C70.5724 64.1842 70.4853 64.1023 69.9963 64.2225C69.6789 64.3019 68.3835 64.4912 67.1163 64.6472C65.849 64.8007 63.7191 65.0898 62.3801 65.2868C61.0412 65.4838 57.5288 65.9392 54.5719 66.2948C44.1346 67.5535 40.4532 68.0165 36.8409 68.5154C34.8338 68.7943 31.7797 69.1831 30.0567 69.3827C23.7206 70.1118 22.4149 70.3446 22.5609 70.7283C22.6377 70.9253 22.6991 71.194 22.6991 71.3296C22.6991 71.5879 23.6668 71.5086 27.9473 70.91ZM25.5152 59.1545C27.2765 58.9319 33.8405 58.121 40.1076 57.3483C46.3746 56.5757 53.2279 55.7136 55.34 55.4347C57.452 55.1533 60.6188 54.7516 62.3801 54.5444C68.02 53.8767 79.6222 52.4261 85.8048 51.6177C87.9168 51.3414 90.3361 51.0446 91.1809 50.9577C92.0257 50.8732 93.8101 50.643 95.149 50.446C96.4879 50.249 98.7894 49.965 100.269 49.8141C101.749 49.6632 104.166 49.3766 105.645 49.1796C107.125 48.9801 110.005 48.6321 112.045 48.4045C117.053 47.8467 116.976 47.8672 116.764 47.179C116.669 46.8669 116.556 46.5727 116.513 46.5241C116.472 46.4755 114.728 46.6725 112.642 46.9616C110.553 47.2481 108.213 47.5551 107.437 47.6395C106.662 47.7265 104.358 48.0105 102.317 48.274C100.277 48.5349 96.5314 48.9929 93.997 49.2922C91.4625 49.589 87.2563 50.1134 84.6527 50.4562C78.2295 51.2979 72.7587 51.9861 66.3483 52.7536C63.3914 53.1092 59.3029 53.6234 57.26 53.8972C52.0887 54.5905 44.365 55.578 39.2115 56.2022C36.8179 56.4913 33.0725 56.9595 30.8913 57.2409C28.7101 57.5249 26.4624 57.8063 25.8992 57.8677C21.396 58.3589 20.3951 58.5661 20.3951 59.0036C20.3951 59.6611 20.6843 59.835 21.542 59.6892C21.9669 59.6176 23.7539 59.3771 25.5152 59.1545ZM24.1174 56.4683C26.2243 56.1894 28.8689 55.8466 29.9953 55.7059C31.1217 55.5652 33.7714 55.2224 35.8835 54.9461C37.9955 54.6723 42.1991 54.1428 45.2277 53.7744C51.1747 53.0478 55.6625 52.4799 63.2762 51.4847C65.9514 51.1367 71.0793 50.4997 74.6685 50.0699C78.2577 49.6401 82.4639 49.1208 84.0127 48.9161C85.5615 48.7089 88.8461 48.3047 91.3089 48.0156C93.7717 47.7291 97.5171 47.2686 99.6291 46.9974C103.374 46.5139 107.901 45.9587 112.301 45.4445C114.872 45.1426 118.161 44.7307 119.598 44.5286C120.161 44.4493 121.83 44.2497 123.31 44.0835C126.187 43.7585 126.023 43.8737 125.913 42.2875C125.862 41.5737 126.451 41.5533 119.086 42.528C114.183 43.1753 109.672 43.7151 104.194 44.3086C102.338 44.5081 100.551 44.7358 100.226 44.81C99.6522 44.9431 98.2364 45.1196 88.6208 46.2427C86.2272 46.5241 83.6338 46.8618 82.8607 46.9948C82.0875 47.1253 80.1854 47.3555 78.6366 47.5014C77.0877 47.6472 74.1513 47.9926 72.1084 48.2714C67.0984 48.9545 54.7767 50.5176 50.9879 50.9525C47.8876 51.3082 44.7029 51.7149 37.6755 52.6436C35.5634 52.925 32.8549 53.2576 31.6593 53.3855C30.4612 53.5134 28.1572 53.7897 26.5392 53.9995C24.9213 54.2093 22.7017 54.46 21.6111 54.5547C19.6501 54.7286 19.627 54.7389 19.627 55.4475C19.627 56.2611 19.8549 56.9723 20.1134 56.9723C20.2107 56.9723 22.013 56.7446 24.1174 56.4683ZM23.2188 47.3786C24.8342 47.1611 28.0573 46.762 30.3793 46.4908C37.5885 45.644 57.4239 43.1676 63.2762 42.3796C65.2474 42.1161 68.0123 41.7707 69.4203 41.6147C70.8284 41.4561 74.2256 41.0442 76.9725 40.6988C79.7195 40.3509 83.8642 39.8366 86.1888 39.5552C88.5133 39.2713 93.1214 38.6931 96.429 38.2684C99.7366 37.8437 104.288 37.2783 106.541 37.0123C108.794 36.7436 112.481 36.2985 114.734 36.0222C123.594 34.9375 131.896 33.9576 132.846 33.8886C133.233 33.8604 133.547 33.7171 133.547 33.5713C133.537 32.942 133.217 32.1745 133.015 32.2998C132.895 32.374 131.494 32.5992 129.907 32.7987C128.32 32.9983 126.1 33.2874 124.974 33.4408C123.847 33.5918 122.004 33.8169 120.878 33.9397C119.751 34.0625 117.102 34.3951 114.99 34.6791C112.877 34.9631 109.076 35.4389 106.541 35.7357C104.007 36.0324 100.205 36.4955 98.0931 36.7641C95.981 37.0327 93.6181 37.3193 92.8449 37.4011C92.0718 37.483 89.8241 37.767 87.8528 38.0305C83.6697 38.5933 78.0196 39.2994 70.3164 40.223C67.2878 40.5862 63.2557 41.103 61.3561 41.3716C59.4566 41.6403 55.9416 42.0905 53.5479 42.3745C39.3831 44.0553 28.2109 45.4445 19.179 46.652C18.0628 46.8004 17.9707 46.8976 18.2574 47.6395C18.3854 47.9772 18.626 48.0386 19.3531 47.9235C19.8651 47.8416 21.606 47.596 23.2188 47.3786ZM31.7873 43.4157C38.6867 42.5638 46.7509 41.5763 49.7078 41.2181C52.6647 40.86 56.3512 40.3944 57.9 40.1871C59.4489 39.9774 61.5814 39.7036 62.6362 39.5783C63.6909 39.4529 65.8823 39.174 67.5054 38.9617C69.1259 38.7468 71.43 38.4577 72.6255 38.3196C73.8185 38.1814 77.907 37.6698 81.7086 37.1811C85.5103 36.695 89.312 36.2243 90.1569 36.1348C91.0017 36.0452 93.421 35.751 95.533 35.4773C97.6451 35.2035 101.792 34.6867 104.749 34.3337C107.706 33.9781 111.393 33.515 112.941 33.3053C114.49 33.0955 116.794 32.8166 118.062 32.6836C121.436 32.328 138.752 30.1227 139.069 30.005C139.223 29.9513 139.292 29.4959 139.231 28.9612L139.121 28.0147L138.063 28.1579C130.34 29.2119 119.923 30.5346 117.678 30.7521C116.761 30.839 115.34 31.0258 114.516 31.1665C113.054 31.4147 110.86 31.6935 103.853 32.5173C99.4602 33.0366 93.3518 33.7785 86.8288 34.587C84.0127 34.9349 79.7502 35.4542 77.3565 35.7408C74.9629 36.0247 71.7372 36.429 70.1883 36.6387C64.4487 37.4114 38.2566 40.6758 35.3714 40.9777C32.0536 41.3256 18.0782 43.1343 17.6916 43.2674C17.538 43.3211 17.4663 43.7688 17.5303 44.306C17.6353 45.2066 17.6763 45.2424 18.4417 45.1068C18.8821 45.0275 24.888 44.2651 31.7873 43.4157ZM250.775 29.5983C251.095 23.9955 250.975 23.0976 249.769 22.0819C248.876 21.3323 248.599 21.2888 241.329 20.7669C235.599 20.355 228.457 19.8024 223.408 19.3829C221.788 19.2473 218.506 19.0017 216.112 18.8354C213.718 18.6691 211.589 18.5028 211.376 18.467C211.164 18.4286 209.725 18.3186 208.176 18.2214C206.627 18.1267 203.227 17.8786 200.624 17.6714C198.02 17.4641 193.64 17.1316 190.895 16.932C181.605 16.2566 172.099 15.5403 167.343 15.1565C164.739 14.9442 160.016 14.5835 156.847 14.3507C148.47 13.7367 148.616 13.6318 148.014 20.703C147.807 23.1334 147.635 25.638 147.635 26.2724L147.633 27.4237L149.105 27.4595C149.914 27.48 153.8 27.7358 157.743 28.0274C161.685 28.3217 168.999 28.8487 173.999 29.2017C178.999 29.5548 184.355 29.9615 185.903 30.1022C187.452 30.2455 190.737 30.4783 193.2 30.6216C195.662 30.7648 198.025 30.9363 198.448 31.0028C198.87 31.0693 202.152 31.297 205.744 31.5093C209.336 31.7217 212.792 31.957 213.424 32.0312C214.056 32.1054 217.917 32.3919 222 32.6682C226.084 32.9445 231.613 33.3539 234.289 33.5764C247.063 34.6433 250.174 34.8658 250.327 34.7328C250.417 34.6535 250.619 32.3433 250.775 29.5983ZM11.0508 31.8982C13.3037 31.6296 17.049 31.1767 19.371 30.8928C30.8299 29.4882 36.7795 28.7694 40.7476 28.3165C43.1412 28.0428 45.3352 27.7614 45.622 27.6949C45.9087 27.6258 47.693 27.393 49.5901 27.1755C51.4845 26.9606 54.3031 26.6127 55.852 26.4029C59.2748 25.9424 67.2033 24.9779 74.7965 24.0979C77.8941 23.7397 82.1567 23.2229 84.2687 22.9492C86.3808 22.6754 90.6996 22.1535 93.869 21.7877C97.0383 21.4244 101.357 20.9025 103.469 20.6313C109.071 19.9073 121.379 18.4056 125.23 17.9732C127.06 17.766 131.758 17.1904 135.67 16.6915C139.582 16.1927 143.176 15.7833 143.655 15.7833C144.136 15.7833 144.576 15.6963 144.635 15.5915C144.697 15.4866 144.597 14.4223 144.415 13.225C144.233 12.0277 143.89 9.4387 143.652 7.46879C143.15 3.30385 142.851 2.42379 141.694 1.72025C140.616 1.06276 140.201 1.06788 133.696 1.84049C124.58 2.9201 124.935 2.84079 122.524 4.34252C122.019 4.65464 121.244 5.1356 120.796 5.41446C120.348 5.69076 119.982 5.97985 119.982 6.0566C119.982 6.13335 121.018 6.76781 122.288 7.46879C124.459 8.6712 124.551 8.75563 123.888 8.93215C123.499 9.03704 122.342 9.19822 121.318 9.29032C120.294 9.38241 119.403 9.54359 119.342 9.64336C119.278 9.7457 119.526 10.4492 119.895 11.2065C120.657 12.785 121.049 13.9925 120.796 13.9899C120.701 13.9874 120.115 13.5857 119.498 13.0945C118.878 12.6033 118.284 12.2017 118.174 12.2017C118.064 12.2017 117.619 11.9049 117.186 11.5416L116.4 10.879L116.113 11.6056C115.955 12.0047 115.573 13.1176 115.263 14.0795L114.7 15.8268L113.62 13.5064L112.542 11.1835L111.078 12.1275C110.271 12.6468 109.355 13.2992 109.037 13.5755C108.28 14.2407 108.29 13.9081 109.099 11.3063C109.841 8.91168 109.816 9.05495 109.462 9.27241C109.311 9.36707 108.075 9.36195 106.715 9.25961L104.245 9.07542L104.882 8.56631C105.231 8.28745 106.252 7.61973 107.148 7.07993L108.779 6.10265L107.686 5.54749C106.472 4.92582 107.419 4.87977 97.1971 6.06427C94.8725 6.3329 92.2817 6.62455 91.4369 6.71409C90.5921 6.80107 89.6141 6.91619 89.2608 6.9648C88.2163 7.11063 74.3433 8.73516 66.3483 9.64848C63.8138 9.93757 59.8969 10.393 57.644 10.6641C55.3912 10.9328 50.9571 11.4495 47.7878 11.8128C41.9099 12.4857 35.2025 13.2787 31.5313 13.7367C30.4049 13.8774 27.8704 14.1665 25.8992 14.3814C23.9279 14.5937 21.0479 14.9365 19.499 15.1412C17.9502 15.3459 14.9549 15.6938 12.8429 15.9138C4.81961 16.7453 3.8519 17.0343 2.91236 18.8584C2.39267 19.8715 2.45667 21.1251 3.24261 25.2491C3.49605 26.5871 3.9031 28.8154 4.14887 30.2046L4.59432 32.7271L5.77451 32.5557C6.42477 32.4636 8.79795 32.1668 11.0508 31.8982ZM117.296 10.4134C118.056 10.9737 118.737 11.4342 118.807 11.4342C118.929 11.4342 118.448 9.73291 118.056 8.78889C117.877 8.35397 117.998 8.32583 119.69 8.40514C120.829 8.45886 121.49 8.3949 121.441 8.23629C121.397 8.09558 120.586 7.56857 119.636 7.06713L117.913 6.15382L121.853 3.5034H120.844C120.289 3.5034 119.383 3.73364 118.83 4.01506C117.327 4.78 116.881 4.65208 117.882 3.74388C118.64 3.05569 118.666 2.98662 118.138 3.09407C117.816 3.16058 116.131 3.35757 114.396 3.53665C111.513 3.83086 111.254 3.89994 111.37 4.33997C111.467 4.71092 111.395 4.78256 111.067 4.65464C110.282 4.34508 107.949 4.18903 107.949 4.44742C107.949 4.58301 108.525 4.9642 109.229 5.29422C110.589 5.93124 110.786 6.22033 110.061 6.5171C109.217 6.86247 107.158 8.16977 107.273 8.28745C107.337 8.34885 108.149 8.4077 109.078 8.41281C110.005 8.41793 110.765 8.46909 110.765 8.52794C110.765 8.58678 110.53 9.33636 110.241 10.1934C109.951 11.0504 109.777 11.8128 109.854 11.887C109.931 11.9638 110.676 11.4316 111.513 10.7051L113.031 9.38497L113.571 10.8279C114.606 13.5908 114.629 13.5985 115.307 11.3728L115.911 9.39009L117.296 10.4134ZM43.5713 160.479C43.5099 160.185 43.2206 158.563 42.9262 156.875C42.6318 155.186 42.1095 152.482 41.7614 150.863C41.4158 149.243 41.019 147.345 40.8833 146.641L40.6349 145.362L40.7655 146.769C40.8346 147.544 41.1137 149.271 41.385 150.607C41.6564 151.942 42.0532 154.188 42.2657 155.595C42.4782 157.003 42.724 158.405 42.8136 158.714C42.9518 159.195 42.8494 159.295 42.0865 159.438C40.1793 159.796 40.0231 159.661 39.5725 157.258C39.3498 156.064 38.9504 153.933 38.6867 152.525C37.9802 148.765 37.9546 150.394 38.6535 154.572L39.2525 158.154L37.9699 158.351C37.0969 158.484 36.631 158.453 36.5081 158.259C36.3468 157.998 36.1318 156.872 35.5097 153.037C35.397 152.334 35.2895 152.009 35.2742 152.316C35.2486 152.792 35.0438 152.896 33.8559 153.045C33.0904 153.142 32.3582 153.152 32.2251 153.07C32.092 152.989 31.9026 152.257 31.8027 151.443C31.7029 150.632 31.4059 148.931 31.1371 147.665C30.6763 145.477 30.6609 145.444 30.8171 147.025C30.9092 147.941 30.9912 149.09 31.0014 149.578C31.0193 150.453 30.9988 150.471 29.7393 150.653C29.0353 150.755 28.3697 150.747 28.257 150.635C28.1444 150.522 27.8295 149.174 27.5556 147.642C27.2816 146.107 27.0563 144.843 27.0538 144.835C27.0538 144.825 26.3677 144.868 25.5331 144.927L24.0124 145.037L23.8588 144.178C23.7718 143.702 23.4799 142.221 23.2086 140.885C22.5737 137.767 22.7529 139.933 23.5081 144.541C23.8025 146.339 23.9689 147.887 23.8793 147.979C23.7871 148.069 23.0345 148.194 22.205 148.253L20.6997 148.363L20.4232 146.989C20.1672 145.718 19.3736 140.918 19.3736 140.629C19.371 140.558 18.6798 140.54 17.835 140.588C16.7162 140.652 16.2733 140.583 16.1991 140.333C16.0173 139.713 13.1245 121.02 12.8352 118.602L12.6662 117.172L14.4071 117.008C15.5053 116.906 16.2068 116.944 16.3117 117.111C16.4014 117.257 16.6855 118.528 16.9441 119.935L17.4151 122.496L19.0075 122.325C20.8738 122.125 20.6203 121.708 21.4421 126.367L22.0181 129.629H24.2582L24.1225 128.797C24.0457 128.339 23.8102 126.814 23.5951 125.407C23.3775 124 23.0806 122.174 22.9321 121.345C22.7657 120.424 22.7529 119.751 22.8988 119.605C23.0294 119.475 23.8665 119.403 24.7574 119.446C26.6263 119.536 26.4189 119.183 27.1741 123.542L27.6068 126.024L29.3041 126.101L31.0014 126.175L31.1832 127.07C31.283 127.561 31.5057 128.692 31.6773 129.58L31.9922 131.197L33.5487 131.115L35.1052 131.036L35.5097 133.21L35.9116 135.385L37.4886 135.298C39.0349 135.213 39.0656 135.224 39.2295 135.937C39.8567 138.677 40.0538 139.217 40.3892 139.128C40.5863 139.076 41.2289 138.977 41.8151 138.905C42.4552 138.828 42.8417 138.662 42.7803 138.488C42.5601 137.864 41.6538 131.353 41.7639 131.176C41.8279 131.074 42.7163 131 43.7403 131.013L45.5989 131.036L45.7986 132.315C46.1493 134.543 46.244 134.812 46.582 134.546C46.7535 134.413 47.4473 134.297 48.1283 134.29C48.8067 134.285 49.4262 134.216 49.503 134.139C49.5798 134.065 49.3545 132.067 49.0012 129.705C48.6505 127.341 48.4406 125.323 48.5353 125.218C48.6275 125.113 49.4109 124.954 50.271 124.862L51.8327 124.701L52.104 126.078C52.2525 126.835 52.5008 128.375 52.6596 129.501C52.8157 130.626 53.1101 132.522 53.3149 133.712C53.5172 134.904 53.7937 136.917 53.9294 138.189C54.065 139.46 54.3595 141.768 54.5796 143.316C54.7998 144.863 55.1838 147.542 55.4321 149.269C55.6804 150.996 55.8289 152.464 55.7598 152.531C55.6933 152.597 54.9713 152.653 54.1547 152.653H52.6724L52.4215 151.694C52.2832 151.167 52.0938 150.297 51.9965 149.763C51.9018 149.23 51.7661 148.849 51.697 148.916C51.6279 148.985 51.7712 150.172 52.017 151.551C52.9412 156.793 53.0999 158.146 52.8055 158.341C52.6493 158.445 51.9991 158.532 51.3539 158.532L50.1865 158.538L49.7616 156.171C49.2112 153.091 48.5251 148.926 48.3843 147.793C48.3228 147.301 48.0515 145.516 47.7775 143.827C47.5062 142.139 47.1145 139.621 46.9097 138.235C46.7049 136.848 46.4719 135.648 46.3951 135.569C46.157 135.334 46.2159 135.83 47.1324 141.865C47.6188 145.055 48.1359 148.701 48.2844 149.967C48.4329 151.234 48.7273 153.18 48.9424 154.291C49.1548 155.404 49.2649 156.381 49.183 156.46C49.1036 156.542 48.3894 156.611 47.5983 156.614C46.1724 156.619 46.1596 156.611 45.9189 155.723C45.4376 153.963 45.4786 155.427 45.9855 158.028C46.2671 159.487 46.4514 160.725 46.3951 160.781C46.3388 160.837 45.7064 160.914 44.9871 160.95C43.8401 161.009 43.6686 160.953 43.5713 160.479ZM44.365 151.878C44.5467 151.697 44.516 151.003 44.2651 149.658C44.0654 148.581 43.6533 145.966 43.3486 143.845L42.7956 139.99L41.8075 139.908C40.2202 139.777 40.0615 139.923 40.4788 141.108C40.8295 142.1 42.4116 149.763 42.4116 150.469C42.4116 150.666 42.5243 151.124 42.6625 151.484C42.9236 152.175 43.8529 152.39 44.365 151.878ZM35.3151 150.597C35.2409 150.31 35.1206 150.131 35.0514 150.203C34.9132 150.341 35.1564 151.118 35.3407 151.118C35.4022 151.118 35.3894 150.883 35.3151 150.597ZM40.3636 149.233C40.3636 149.182 40.1972 148.174 39.9949 146.994C39.7927 145.815 39.3882 143.044 39.0963 140.839C38.807 138.631 38.4973 136.643 38.4128 136.418C38.2925 136.104 38.0467 136.05 37.3248 136.18C36.8153 136.272 36.3724 136.367 36.3417 136.388C36.2163 136.485 38.5254 148.793 38.7354 149.128C38.8557 149.322 40.3636 149.42 40.3636 149.233ZM50.9827 147.133C50.9802 147.002 50.8368 146.15 50.6653 145.234C50.184 142.666 49.3417 137.278 49.2649 136.28C49.2009 135.444 49.1318 135.38 48.2358 135.305C47.5753 135.252 47.2758 135.331 47.2758 135.561C47.2706 136.505 49.1625 146.943 49.3878 147.222C49.6771 147.578 50.9904 147.504 50.9827 147.133ZM36.5696 146.383C36.6412 146.311 36.4313 144.613 36.1062 142.609C35.7785 140.606 35.2537 137.383 34.9362 135.449L34.3628 131.931H33.4386C32.9291 131.931 32.4555 131.987 32.389 132.056C32.2789 132.164 34.1221 143.559 34.5983 145.728C34.7494 146.409 34.8825 146.513 35.6044 146.513C36.0627 146.513 36.4979 146.455 36.5696 146.383ZM46.9557 145.894C46.989 145.861 46.733 144.116 46.3874 142.016C46.0392 139.916 45.5503 136.817 45.2994 135.129L44.8437 132.059L43.9784 131.977C43.5048 131.931 43.0209 131.987 42.9057 132.105C42.7009 132.31 43.3384 136.84 44.1038 140.629C44.3163 141.683 44.6184 143.392 44.7746 144.423L45.0562 146.299L45.9727 146.127C46.4796 146.032 46.9199 145.928 46.9557 145.894ZM32.1125 141.438C32.3634 141.279 32.3813 140.854 32.1944 139.588C32.0587 138.682 31.5877 135.525 31.1473 132.571C30.7096 129.616 30.2692 127.126 30.1719 127.04C30.0747 126.953 29.5627 126.937 29.0353 127.004C27.9524 127.142 27.9242 127.242 28.3441 129.401C28.4925 130.161 28.8919 132.507 29.2375 134.617C30.4305 141.955 30.3486 141.653 31.1115 141.648C31.4827 141.648 31.9333 141.553 32.1125 141.438ZM53.1639 139.491C53.1639 139.427 52.9207 137.728 52.6237 135.717C52.3268 133.704 51.8941 130.677 51.6637 128.989L51.2439 125.919L50.4118 125.84C49.672 125.768 49.5798 125.829 49.5798 126.402C49.5798 127.6 51.185 138.342 51.5024 139.286C51.6023 139.575 53.1639 139.767 53.1639 139.491ZM28.5489 138.693C28.641 138.616 28.3927 136.922 26.9053 127.454C25.6867 119.682 25.9146 120.419 24.7216 120.419C23.8076 120.419 23.7257 120.472 23.846 120.994C23.9203 121.311 24.2736 123.586 24.6294 126.047C25.4128 131.435 26.5187 138.335 26.6672 138.769C26.7389 138.979 27.0563 139.033 27.617 138.925C28.0804 138.836 28.5002 138.731 28.5489 138.693ZM21.9311 136.045C21.9311 135.914 21.7135 134.446 21.4472 132.783C21.181 131.117 20.7586 128.344 20.5077 126.617C20.2568 124.891 19.9266 123.379 19.7755 123.258C19.2917 122.869 17.835 123.238 17.835 123.747C17.835 124.215 18.411 127.694 19.3557 132.934C19.645 134.543 19.883 135.953 19.883 136.068C19.883 136.186 20.3439 136.28 20.9071 136.28C21.4703 136.28 21.9311 136.175 21.9311 136.045ZM17.579 129.181C17.579 128.505 16.6087 122.726 15.9585 119.523L15.6461 117.988L14.7552 118.075C14.2663 118.124 13.8362 118.193 13.7978 118.231C13.7594 118.267 13.9027 119.436 14.1178 120.83C14.3303 122.222 14.681 124.512 14.8935 125.919C15.5258 130.122 15.426 129.884 16.5754 129.884C17.4996 129.884 17.579 129.828 17.579 129.181ZM55.8801 148.069C55.811 147.706 55.5755 146.142 55.3553 144.595C55.1326 143.047 54.5387 138.902 54.0318 135.385C52.5495 125.08 52.1629 122.14 52.1501 121.122L52.1399 120.163H53.6606C54.4977 120.163 55.2504 120.273 55.3323 120.406C55.4654 120.621 56.0773 124.914 57.1371 133.082C57.3394 134.63 57.6875 137.104 57.9103 138.583C58.7551 144.129 59.2415 148.181 59.0853 148.34C58.9957 148.43 58.2661 148.552 57.4623 148.616C56.0568 148.724 55.9979 148.703 55.8801 148.069ZM56.1029 132.762C55.7214 129.455 54.682 121.803 54.5745 121.506C54.5131 121.329 54.0983 121.186 53.6554 121.186C52.9514 121.186 52.8695 121.258 52.9898 121.762C53.0641 122.079 53.1946 122.857 53.274 123.489C53.8167 127.7 54.4875 132.136 54.7307 133.1C54.9713 134.054 55.1147 134.234 55.6446 134.234C56.259 134.234 56.2693 134.2 56.1029 132.762ZM59.4233 144.339C59.3823 144.198 59.1058 142.3 58.8114 140.118C58.5144 137.935 58.0485 134.597 57.7746 132.699C56.2744 122.258 55.7035 117.589 55.8878 117.29C56.0465 117.034 58.5733 117.042 58.9778 117.297C59.1519 117.407 59.4591 118.843 59.6742 120.554C59.8866 122.24 60.414 126.149 60.8441 129.245C61.2742 132.34 61.7376 135.794 61.8784 136.92C62.0166 138.045 62.2931 140.118 62.4954 141.525C62.6976 142.932 62.7821 144.16 62.6848 144.252C62.3878 144.538 59.5052 144.615 59.4233 144.339ZM59.8124 129.181C59.8073 128.795 59.6895 127.613 59.5487 126.559C59.4079 125.505 59.1186 123.271 58.9087 121.595C58.6962 119.922 58.4632 118.454 58.389 118.334C58.3148 118.213 57.9154 118.116 57.5007 118.116C56.5995 118.116 56.6098 117.947 57.2523 122.337C58.4325 130.411 58.302 129.884 59.1033 129.884C59.7177 129.884 59.8201 129.782 59.8124 129.181ZM62.8922 139.926C62.8896 139.821 62.6592 138.178 62.375 136.28C61.182 128.283 60.8723 126.019 60.5804 123.156C60.4089 121.496 60.3244 120.083 60.391 120.019C60.4575 119.953 61.0464 119.876 61.7017 119.848L62.8922 119.797L62.8768 118.635C62.8691 117.998 62.6566 115.635 62.4057 113.383C62.0806 110.464 62.0294 109.236 62.2291 109.103C62.3827 108.998 63.161 108.911 63.9571 108.911L65.4061 108.906L65.5495 109.866C65.6289 110.393 65.8772 112.437 66.0999 114.407C66.3226 116.376 66.7271 119.656 66.9985 121.698C67.2724 123.737 67.6641 126.73 67.8715 128.349C68.0789 129.969 68.3809 132.243 68.5397 133.407C68.701 134.569 68.765 135.692 68.6856 135.902C68.5013 136.38 66.2202 136.426 65.7262 135.96C65.4471 135.697 65.4113 135.884 65.5316 137.048C65.6109 137.823 65.7569 138.828 65.8516 139.286L66.0282 140.118H64.4589C63.5987 140.118 62.8922 140.031 62.8922 139.926ZM64.5485 133.476C64.633 133.343 64.5792 132.507 64.4333 131.621C63.8855 128.334 63.1482 122.649 63.1482 121.705C63.1482 120.633 62.8563 120.398 61.7888 120.603C61.0131 120.751 61.031 120.695 61.3433 122.081C61.4688 122.644 61.6454 123.911 61.7324 124.896C61.8221 125.881 62.119 128.17 62.3929 129.987C62.6669 131.801 62.8922 133.384 62.8922 133.504C62.8922 133.804 64.3616 133.781 64.5485 133.476ZM66.2151 122.785C66.2126 122.68 66.0974 121.81 65.9591 120.856C65.762 119.495 64.6842 110.316 64.6842 110.001C64.6842 109.963 64.272 109.929 63.7651 109.929C62.8486 109.929 62.8461 109.932 62.9971 110.889C63.079 111.416 63.3735 114.125 63.6551 116.909C63.9341 119.692 64.2848 122.197 64.4333 122.473C64.6919 122.959 66.2279 123.228 66.2151 122.785ZM182.084 158.625C182.002 158.412 181.935 158.205 181.935 158.161C181.935 158.121 182.678 158.005 183.584 157.908C184.68 157.793 185.197 157.632 185.128 157.432C185.069 157.266 184.669 154.772 184.242 151.886C183.812 149 183.295 145.546 183.092 144.211C182.89 142.876 182.662 141.233 182.585 140.565C182.509 139.898 182.383 138.831 182.304 138.199L182.161 137.048H184.081C185.138 137.048 186.054 137.135 186.118 137.24C186.182 137.344 186.418 138.583 186.641 139.99C188.62 152.508 189.439 157.412 189.58 157.55C189.669 157.642 190.102 157.66 190.537 157.591L191.333 157.468L191.103 156.276C190.857 155.015 190.465 152.19 188.981 141.013C188.476 137.214 187.834 132.379 187.555 130.268C187.273 128.158 186.981 126.014 186.904 125.505C186.74 124.407 187.037 124.266 189.521 124.259L191.093 124.256L191.264 125.983C191.863 132.003 193.883 147.294 195.222 155.979C195.399 157.128 195.401 157.13 196.387 157.069C196.93 157.036 197.401 156.98 197.431 156.941C197.46 156.905 197.337 155.839 197.157 154.572C195.675 144.208 195.209 140.852 194.858 138.071C194.323 133.819 193.317 125.021 192.68 119.012C192.396 116.338 192.05 113.232 191.914 112.112C191.469 108.487 191.354 108.725 193.648 108.594C194.738 108.533 195.67 108.512 195.716 108.545C195.765 108.579 196.018 110.891 196.282 113.683C197.383 125.292 198.14 131.524 200.503 148.304C201.737 157.074 201.617 156.601 202.618 156.698C203.619 156.798 203.606 157.148 202.802 151.571C201.502 142.53 200.544 135.131 199.06 122.657C198.747 120.019 198.565 117.786 198.658 117.694C198.747 117.602 199.674 117.474 200.713 117.407L202.605 117.285L202.756 118.405C202.838 119.019 202.974 120.214 203.056 121.058C203.837 129.055 207.426 155.91 207.766 156.291C207.858 156.394 208.337 156.412 208.829 156.332L209.727 156.186L209.154 152.18C206.658 134.725 205.836 128.173 206.113 127.897C206.294 127.715 209.658 127.323 209.807 127.467C209.904 127.561 210.316 130.414 211.473 138.966C212.346 145.418 213.68 155.601 213.68 155.81C213.68 155.902 214.195 155.979 214.824 155.979C215.628 155.979 215.935 155.885 215.856 155.659C215.792 155.483 215.626 154.419 215.485 153.293C215.342 152.167 214.932 149.115 214.571 146.513C213.703 140.223 212.487 130.749 211.883 125.535C211.614 123.212 211.317 120.779 211.225 120.127L211.059 118.94L212.049 118.791C212.595 118.71 213.498 118.61 214.059 118.571C215.331 118.484 215.275 118.305 215.979 124.64C216.872 132.665 218.552 145.859 219.64 153.421C219.952 155.59 219.955 155.595 220.687 155.544C221.091 155.514 221.455 155.457 221.493 155.416C221.532 155.373 221.355 153.728 221.097 151.758C220.841 149.788 220.446 146.739 220.224 144.978C220.001 143.218 219.648 140.514 219.44 138.966C218.941 135.249 218.37 130.314 217.774 124.512C217.505 121.91 217.108 118.126 216.89 116.105C216.296 110.569 216.166 111.053 218.314 110.84C219.312 110.74 220.183 110.715 220.249 110.781C220.316 110.848 220.592 113.13 220.864 115.852C222.264 129.943 222.676 133.538 224.56 148.176C225.554 155.897 225.374 155.212 226.396 155.212C227.241 155.212 227.266 155.184 227.131 154.38C227.054 153.922 226.885 152.684 226.754 151.63C226.621 150.576 226.053 146.027 225.49 141.525C224.141 130.744 223.431 124.479 223.349 122.596L223.28 121.061L225.067 120.884C226.142 120.777 226.913 120.805 227.005 120.953C227.09 121.089 227.361 122.951 227.607 125.095C228.28 130.926 230.287 147.455 230.784 151.246L231.219 154.572L232.497 154.7C233.408 154.792 233.777 154.938 233.777 155.212C233.777 155.519 233.219 155.629 230.961 155.762C229.412 155.854 226.416 156.059 224.304 156.217C222.192 156.373 217.756 156.673 214.448 156.877C211.14 157.084 206.819 157.371 204.848 157.512C202.877 157.652 199.19 157.885 196.656 158.031C192.245 158.282 186.372 158.673 183.556 158.901C182.542 158.983 182.196 158.919 182.084 158.625ZM114.319 143.17C111.958 142.824 108.264 141.688 106.316 140.711C98.8611 136.971 94.253 131.831 91.9284 124.663C90.3412 119.769 90.4769 114.074 92.3022 108.84C94.765 101.781 100.213 96.3039 107.314 93.7455C111.07 92.3922 113.873 91.9368 118.446 91.9394C121.953 91.9394 123.074 92.0391 125.058 92.5176C128.676 93.3951 132.011 94.8507 135.398 97.033C137.093 98.1254 141.048 101.692 141.499 102.536C141.824 103.142 140.877 103.83 125.519 114.11L120.691 117.343L146.99 117.477L146.916 119.267C146.693 124.586 143.44 131.488 139.059 135.927C135.35 139.688 129.705 142.517 124.59 143.18C122.314 143.474 116.354 143.469 114.319 143.17ZM124.59 142.047C127.411 141.617 131.53 140.274 132.472 139.478C132.511 139.445 131.059 137.13 129.244 134.331C127.426 131.534 124.423 126.827 122.567 123.872C120.711 120.917 119.101 118.467 118.986 118.428C118.873 118.387 114.585 119.377 109.46 120.623C104.335 121.872 98.5564 123.269 96.621 123.729C94.6856 124.19 93.1009 124.647 93.1009 124.75C93.1009 125.167 94.4194 128.134 95.172 129.411C98.2876 134.699 104.137 139.194 110.509 141.195C114.362 142.405 120.005 142.745 124.59 142.047ZM136.289 136.991C140.534 133.66 144.074 128.042 145.298 122.688C145.57 121.511 145.859 120.058 145.946 119.459L146.099 118.372H133.297C126.256 118.372 120.494 118.431 120.494 118.502C120.494 118.712 123.461 123.445 127.117 129.068C132.5 137.35 133.092 138.347 132.953 138.877C132.833 139.335 132.882 139.33 133.765 138.8C134.28 138.488 135.416 137.674 136.289 136.991ZM118.958 116.435C118.958 116.213 119.129 114.112 119.337 111.766C119.772 106.885 120.389 99.2178 120.65 95.5006L120.826 92.9704L116.756 93.1162C112.043 93.2876 109.232 93.9195 105.699 95.6029C103.456 96.6697 98.9174 99.6348 99.0429 99.952C99.1094 100.116 103.054 103.513 113.21 112.148C114.892 113.578 116.725 115.218 117.281 115.793C118.338 116.883 118.958 117.121 118.958 116.435ZM138.222 104.317C139.313 103.575 140.206 102.889 140.206 102.794C140.206 102.702 139.428 101.863 138.478 100.932C135.555 98.0665 131.976 95.9048 127.613 94.3672C125.081 93.4744 122.037 92.9627 121.889 93.4053C121.838 93.5588 121.612 96.158 121.39 99.1845C121.167 102.211 120.757 107.21 120.483 110.295C120.207 113.383 119.982 116.064 119.982 116.259C119.982 116.55 126.95 111.986 138.222 104.317ZM133.358 114.598C131.069 114.557 129.198 114.435 129.198 114.33C129.198 114.133 138.798 108.302 140.462 107.486C140.954 107.243 143.03 105.987 145.07 104.695C151.112 100.868 153.726 99.379 154.054 99.5811C154.502 99.8599 156.934 105.135 157.704 107.499C158.385 109.592 159.407 113.744 159.407 114.417C159.407 114.739 157.917 114.783 148.462 114.734C142.444 114.701 135.647 114.642 133.358 114.598ZM87.2947 90.2279C86.2579 89.8109 85.815 88.0251 86.5088 87.076C87.3357 85.9478 89.5092 86.1653 90.1697 87.4418C91.1015 89.2429 89.266 91.0235 87.2947 90.2279ZM9.21268 95.2038C8.4165 94.797 7.59472 93.5127 7.59472 92.6736C7.59472 92.0238 8.29618 90.8188 8.93108 90.3737C10.2213 89.4706 12.6278 90.1051 13.3728 91.5454C14.5939 93.9042 11.6831 96.4625 9.21268 95.2038ZM17.9374 93.7097C16.5089 92.2822 16.8161 90.2586 18.6056 89.3324C20.6255 88.2912 22.9551 89.6701 22.9551 91.9087C22.9551 92.6276 22.7554 93.0395 22.0847 93.7097C21.3423 94.4516 21.0376 94.5796 20.011 94.5796C18.9845 94.5796 18.6798 94.4516 17.9374 93.7097ZM27.6426 93.569C26.6647 92.9729 26.2832 92.3257 26.2832 91.2589C26.2832 89.5832 27.4276 88.4396 29.0993 88.4396C30.3102 88.4396 31.1064 88.9615 31.667 90.1204C32.156 91.1284 32.1662 91.2793 31.8155 92.121C31.3931 93.1316 30.0875 94.0653 29.0993 94.0653C28.746 94.0653 28.0932 93.8428 27.6426 93.569ZM178.175 93.0548C176.841 92.4869 176.301 90.4146 177.148 89.1227C178.018 87.7923 180.896 87.7284 181.8 89.0178C182.898 90.586 181.728 92.9755 179.759 93.1853C179.196 93.2441 178.482 93.1878 178.175 93.0548ZM187.475 92.5227C185.806 92.0289 184.882 90.1741 185.609 88.7722C186.029 87.9586 187.381 87.1604 188.335 87.1604C189.887 87.1604 191.408 88.6008 191.408 90.0692C191.408 90.8291 190.327 92.1875 189.541 92.4127C188.448 92.7248 188.202 92.7376 187.475 92.5227ZM195.217 91.2998C194.551 90.7063 194.41 90.389 194.41 89.4962C194.41 86.7102 198.176 85.6561 199.628 88.0354C200.212 88.9896 200.24 89.7546 199.725 90.7472C199.223 91.7168 198.619 92.0212 197.188 92.0212C196.272 92.0212 195.852 91.8677 195.217 91.2998ZM203.312 72.4041C197.495 71.1044 193.927 67.9372 190.063 60.6588C187.276 55.4015 185.484 52.7997 182.834 50.1569C180.919 48.2484 180.092 47.6293 178.323 46.7723C177.133 46.1966 175.799 45.6543 175.361 45.5647C174.593 45.4112 174.526 45.4726 173.479 47.289C168.966 55.12 165.822 59.0803 162.663 60.9121C160.208 62.3345 156.859 62.9818 155.2 62.3499C153.995 61.8945 154.52 61.6489 156.982 61.5184C159.156 61.4058 159.637 61.2856 161.393 60.4183C164.847 58.7119 167.581 55.4731 171.933 47.9337C172.814 46.4115 173.49 45.1196 173.436 45.0659C173.382 45.0121 172.419 44.8944 171.301 44.8049C166.572 44.4237 163.149 46.1148 159.519 50.6276C157.103 53.6311 155.976 54.6698 155.144 54.6647C154.42 54.6621 154.425 54.6519 155.705 53.4495C156.414 52.7843 157.635 51.4335 158.418 50.4486C162.64 45.1298 166.833 43.1139 172.174 43.8353C173.989 44.0809 174.058 44.0707 174.47 43.4823C178.392 37.8795 180.796 36.3573 185.647 36.4008C189.434 36.4341 191.436 37.2681 194.303 40.0055C195.562 41.2105 196.52 42.5843 199.316 47.2148C201.973 51.6152 205.096 54.327 209.028 55.6573C210.823 56.2611 211.356 56.3199 215.216 56.325C218.89 56.3301 219.714 56.2508 221.542 55.7315C223.902 55.0586 223.534 55.4194 227.174 50.1927C229.675 46.6008 233.444 42.8145 235.697 41.63C237.102 40.8932 237.688 40.7397 239.473 40.6451C241.221 40.553 241.585 40.599 241.585 40.9163C241.585 41.2002 241.162 41.3307 239.908 41.4305C236.708 41.6889 233.067 44.1295 229.965 48.1026C227.988 50.6302 225.382 54.4242 225.523 54.5675C225.579 54.6212 227.113 53.9253 228.93 53.0222C232.65 51.1751 235.51 49.3357 238.487 46.8746C240.254 45.4112 241.585 44.7819 241.585 45.4035C241.585 45.7105 237.01 49.3741 234.621 50.9781C232.502 52.4031 226.957 55.2428 225.664 55.5678C224.781 55.7903 224.586 56.0308 222.5 59.5306C217.74 67.5125 214.149 70.933 209.21 72.1892C207.794 72.5499 204.5 72.6701 203.312 72.4041ZM208.588 71.2989C211.947 70.6772 215.37 68.1521 218.375 64.0818C219.955 61.938 223.25 56.458 222.953 56.4657C222.85 56.4657 221.685 56.696 220.362 56.9774C217.379 57.6042 213.122 57.6502 210.531 57.0772C208.202 56.5629 205.027 55.0407 203.112 53.5211C201.333 52.1089 199.935 50.2592 197.334 45.864C195.173 42.2159 192.769 39.5194 190.86 38.5984C188.177 37.309 185.435 36.9892 182.836 37.6672C180.294 38.3272 178.085 40.0234 176.257 42.7148C175.253 44.1909 175.187 44.6923 175.998 44.6923C177.332 44.6923 181.935 47.5577 183.889 49.5992C185.993 51.8019 188.873 56.1741 191.267 60.8097C195.46 68.9222 201.54 72.6062 208.588 71.2989ZM238.838 67.5407C239.086 67.4742 239.432 67.4793 239.606 67.5484C239.78 67.62 239.575 67.6737 239.153 67.6686C238.73 67.6609 238.59 67.6046 238.838 67.5407ZM234.993 67.2849C235.238 67.2209 235.643 67.2209 235.889 67.2849C236.134 67.3488 235.935 67.4025 235.441 67.4025C234.947 67.4025 234.747 67.3488 234.993 67.2849ZM231.665 67.029C231.91 66.9651 232.315 66.9651 232.561 67.029C232.806 67.093 232.607 67.1467 232.113 67.1467C231.618 67.1467 231.419 67.093 231.665 67.029ZM225.328 66.6939C225.241 66.5532 225.293 66.438 225.441 66.438C225.59 66.438 225.712 66.5532 225.712 66.6939C225.712 66.8346 225.661 66.9497 225.6 66.9497C225.538 66.9497 225.415 66.8346 225.328 66.6939ZM228.208 66.7809C228.385 66.7092 228.672 66.7092 228.848 66.7809C229.025 66.8525 228.882 66.9088 228.528 66.9088C228.175 66.9088 228.032 66.8525 228.208 66.7809ZM219.955 66.1848C219.865 66.039 219.968 65.998 220.195 66.085C220.638 66.2538 220.72 66.438 220.352 66.438C220.218 66.438 220.039 66.3255 219.955 66.1848ZM188.789 64.0921C189.009 63.8721 189.239 63.8669 189.672 64.0742C190.22 64.3402 190.202 64.3581 189.372 64.3735C188.699 64.3863 188.561 64.3198 188.789 64.0921ZM185.588 63.959C185.837 63.8925 186.182 63.8976 186.356 63.9667C186.531 64.0383 186.326 64.0921 185.903 64.087C185.481 64.0793 185.34 64.023 185.588 63.959ZM182.26 63.7032C182.509 63.6367 182.854 63.6418 183.028 63.7109C183.202 63.7825 182.998 63.8362 182.575 63.8311C182.153 63.8234 182.012 63.7672 182.26 63.7032ZM178.799 63.4551C178.976 63.3834 179.263 63.3834 179.439 63.4551C179.616 63.5267 179.472 63.583 179.119 63.583C178.766 63.583 178.623 63.5267 178.799 63.4551ZM172.463 63.1122C171.856 62.9178 171.867 62.905 172.655 62.882C173.113 62.8666 173.487 62.9715 173.487 63.1122C173.487 63.4013 173.367 63.4013 172.463 63.1122ZM175.86 63.1915C176.109 63.125 176.454 63.1301 176.628 63.1992C176.802 63.2709 176.598 63.3246 176.175 63.3195C175.753 63.3118 175.612 63.2555 175.86 63.1915ZM168.815 62.6876C168.992 62.6159 169.278 62.6159 169.455 62.6876C169.632 62.7592 169.488 62.8155 169.135 62.8155C168.782 62.8155 168.638 62.7592 168.815 62.6876ZM239.473 54.7568C239.649 54.6851 239.936 54.6851 240.113 54.7568C240.289 54.8284 240.146 54.8847 239.793 54.8847C239.439 54.8847 239.296 54.8284 239.473 54.7568ZM213.68 52.3673C213.68 52.2266 213.852 52.1115 214.064 52.1115C214.277 52.1115 214.448 52.2266 214.448 52.3673C214.448 52.508 214.277 52.6231 214.064 52.6231C213.852 52.6231 213.68 52.508 213.68 52.3673ZM216.821 52.4466C217.07 52.3801 217.415 52.3852 217.589 52.4543C217.763 52.5259 217.559 52.5796 217.136 52.5745C216.714 52.5668 216.573 52.5106 216.821 52.4466ZM207.231 51.9375C207.416 51.8633 207.638 51.871 207.723 51.958C207.807 52.0424 207.656 52.1012 207.387 52.091C207.088 52.0782 207.026 52.0194 207.231 51.9375ZM179.759 50.5765C179.421 50.4306 179.378 50.3513 179.631 50.3437C179.844 50.336 180.187 50.4409 180.399 50.5765C180.868 50.8784 180.463 50.8784 179.759 50.5765ZM230.064 40.8549C229.755 40.6553 229.796 40.6067 230.272 40.6041C230.602 40.6016 230.792 40.7116 230.705 40.8549C230.515 41.1619 230.541 41.1619 230.064 40.8549ZM227.062 40.6783C227.31 40.6118 227.655 40.6169 227.83 40.686C228.004 40.7576 227.799 40.8114 227.376 40.8063C226.954 40.7986 226.813 40.7423 227.062 40.6783ZM223.856 40.4302C224.033 40.3585 224.32 40.3585 224.496 40.4302C224.673 40.5018 224.53 40.5581 224.176 40.5581C223.823 40.5581 223.68 40.5018 223.856 40.4302ZM220.528 40.1743C220.705 40.1027 220.992 40.1027 221.168 40.1743C221.345 40.246 221.202 40.3023 220.848 40.3023C220.495 40.3023 220.352 40.246 220.528 40.1743ZM217.2 39.9185C217.377 39.8469 217.664 39.8469 217.84 39.9185C218.017 39.9901 217.873 40.0464 217.52 40.0464C217.167 40.0464 217.024 39.9901 217.2 39.9185ZM213.749 39.655C213.998 39.5885 214.343 39.5936 214.517 39.6627C214.691 39.7343 214.486 39.788 214.064 39.7829C213.642 39.7752 213.501 39.719 213.749 39.655ZM207.024 39.3199C207.024 38.9975 207.546 38.9975 208.048 39.3199C208.347 39.5143 208.276 39.568 207.728 39.5706C207.341 39.5731 207.024 39.4606 207.024 39.3199ZM210.544 39.4068C210.721 39.3352 211.007 39.3352 211.184 39.4068C211.361 39.4785 211.217 39.5348 210.864 39.5348C210.511 39.5348 210.367 39.4785 210.544 39.4068ZM204.08 39.064C203.88 38.7391 204.218 38.7391 204.72 39.064C205.05 39.2789 205.045 39.3122 204.671 39.3148C204.433 39.3173 204.167 39.2047 204.08 39.064ZM201.072 38.8952C201.248 38.8236 201.535 38.8236 201.712 38.8952C201.888 38.9668 201.745 39.0231 201.392 39.0231C201.038 39.0231 200.895 38.9668 201.072 38.8952ZM174.974 37.0992C175.159 37.0251 175.381 37.0327 175.466 37.1197C175.55 37.2041 175.399 37.263 175.131 37.2527C174.831 37.24 174.77 37.1811 174.974 37.0992ZM168.367 36.7615C168.367 36.6208 168.474 36.5057 168.608 36.5057C168.741 36.5057 168.92 36.6208 169.007 36.7615C169.094 36.9023 168.986 37.0174 168.766 37.0174C168.546 37.0174 168.367 36.9023 168.367 36.7615ZM171.646 36.8434C171.831 36.7692 172.053 36.7769 172.138 36.8639C172.222 36.9483 172.071 37.0071 171.803 36.9969C171.503 36.9841 171.442 36.9253 171.646 36.8434ZM165.231 36.5927C165.407 36.5211 165.694 36.5211 165.871 36.5927C166.047 36.6643 165.904 36.7206 165.551 36.7206C165.198 36.7206 165.054 36.6643 165.231 36.5927ZM161.583 36.2499C161.38 35.925 161.974 35.925 162.479 36.2499C162.791 36.452 162.758 36.498 162.302 36.5006C161.992 36.5032 161.67 36.3906 161.583 36.2499ZM158.846 36.0759C159.03 36.0017 159.253 36.0094 159.338 36.0964C159.422 36.1808 159.271 36.2397 159.002 36.2294C158.703 36.2166 158.641 36.1578 158.846 36.0759ZM155.503 35.8252C155.679 35.7536 155.966 35.7536 156.143 35.8252C156.319 35.8968 156.176 35.9531 155.823 35.9531C155.469 35.9531 155.326 35.8968 155.503 35.8252ZM100.269 73.1664C99.5574 72.908 98.5027 71.744 98.3516 71.0507C98.1545 70.1604 98.5564 69.1371 99.409 68.3465C99.9389 67.8528 100.364 67.7172 101.357 67.7172C102.458 67.7172 102.74 67.8323 103.495 68.587C104.975 70.0657 104.58 72.1943 102.676 72.9899C101.805 73.3532 100.955 73.4146 100.269 73.1664ZM90.3924 72.7418C89.6013 72.381 88.7488 71.0174 88.7488 70.1092C88.7514 69.3059 89.7268 67.9884 90.6382 67.5509C91.7928 67.0034 93.2085 67.2746 94.1634 68.2289C95.19 69.2548 95.1976 70.9509 94.1813 72.0868C93.3365 73.0334 91.6724 73.3199 90.3924 72.7418ZM81.5806 72.2915C79.955 71.6417 79.1716 69.9711 79.7963 68.4694C80.2033 67.4818 81.235 66.9497 82.7404 66.9497C83.7029 66.9497 84.0613 67.0879 84.6604 67.6839C85.0649 68.0882 85.4668 68.7047 85.5539 69.0552C85.7868 69.9864 85.0675 71.4651 84.0921 72.0587C83.1653 72.6241 82.5586 72.6804 81.5806 72.2915ZM175.87 24.4944C174.844 23.8676 174.511 23.2485 174.511 21.9668C174.511 19.9073 176.777 18.5821 178.722 19.5031C179.823 20.025 180.402 21.0151 180.392 22.3582C180.374 24.5456 177.885 25.7224 175.87 24.4944ZM166.398 24.1107C165.425 23.6834 164.783 22.5526 164.783 21.2709C164.783 19.8971 166.135 18.5975 167.566 18.5975C169.593 18.5975 171.201 20.9025 170.364 22.6064C169.662 24.0339 167.819 24.7323 166.398 24.1107ZM157.231 23.6655C153.534 22.6345 154.891 17.4002 158.677 18.0935C159.942 18.3237 160.845 19.1501 161.055 20.2681C161.232 21.2121 160.771 22.6012 160.093 23.1641C159.481 23.6706 158.109 23.9111 157.231 23.6655ZM11.9468 25.2875C9.7247 23.0669 11.7958 19.7385 14.8397 20.639C16.7905 21.2172 17.4843 23.8472 16.0634 25.2696C15.4285 25.9015 15.1111 26.0166 13.9949 26.0166C12.8864 26.0166 12.5587 25.9015 11.9468 25.2875ZM21.9004 24.6095C20.9864 24.1132 20.3055 22.614 20.5051 21.5421C20.5922 21.0791 20.9608 20.4037 21.3269 20.0404C23.2137 18.1523 26.3984 19.5389 26.3984 22.2482C26.3984 23.0797 26.2371 23.402 25.4486 24.1235C24.3888 25.0956 23.1164 25.2696 21.9004 24.6095ZM30.4817 22.8443C28.1649 20.529 31.0116 16.9448 33.9608 18.467C34.9977 19.0043 35.4994 19.8255 35.4994 20.9818C35.4994 21.7698 35.3202 22.1535 34.629 22.8443C33.8866 23.5862 33.582 23.7141 32.5554 23.7141C31.5288 23.7141 31.2241 23.5862 30.4817 22.8443ZM207.024 65.1589C206.694 64.944 206.699 64.9107 207.073 64.9082C207.311 64.9056 207.577 65.0182 207.664 65.1589C207.864 65.4838 207.526 65.4838 207.024 65.1589ZM210.288 65.2459C210.465 65.1742 210.751 65.1742 210.928 65.2459C211.105 65.3175 210.961 65.3738 210.608 65.3738C210.255 65.3738 210.111 65.3175 210.288 65.2459ZM200.496 64.6472C200.409 64.5065 200.524 64.3914 200.752 64.3914C200.98 64.3914 201.095 64.5065 201.008 64.6472C200.921 64.7879 200.805 64.9031 200.752 64.9031C200.698 64.9031 200.583 64.7879 200.496 64.6472ZM203.903 64.7291C204.088 64.6549 204.31 64.6626 204.395 64.7496C204.479 64.834 204.328 64.8928 204.059 64.8826C203.76 64.8698 203.698 64.811 203.903 64.7291ZM197.488 64.4784C197.664 64.4067 197.951 64.4067 198.128 64.4784C198.304 64.55 198.161 64.6063 197.808 64.6063C197.454 64.6063 197.311 64.55 197.488 64.4784ZM196.528 51.344C196.528 51.0242 196.799 51.0242 197.296 51.344C197.605 51.5435 197.57 51.5921 197.104 51.5947C196.786 51.5972 196.528 51.4847 196.528 51.344ZM193.648 51.1751C193.824 51.1035 194.111 51.1035 194.288 51.1751C194.464 51.2467 194.321 51.303 193.968 51.303C193.614 51.303 193.471 51.2467 193.648 51.1751Z" fill="black"/>
</svg>
