<svg width="247" height="218" viewBox="0 0 247 218" fill="none" xmlns="http://www.w3.org/2000/svg">
<path d="M137.371 90.7139L140.278 91.4788L144.714 93.9264L146.856 98.2096L147.773 107.388L143.49 115.649L137.371 117.331H119.32L116.414 118.249L105.552 125.592L106.47 117.331L104.482 115.649L100.81 112.742C100.402 111.467 99.4336 107.939 98.8217 104.023C98.2098 100.107 99.0766 98.5156 99.5865 98.2096L102.187 93.9264L106.47 90.7139H137.371Z" fill="white"/>
<path d="M170.241 21.1189L172.497 20.5716L176.487 20.6839L179.739 23.0346L184.272 29.4785L184.96 37.2358L181.619 40.8262L169.639 47.7427L168.102 49.536L164.754 57.2125L161.111 52.6663L159.072 52.1825L155.393 51.4373C154.577 50.6498 152.426 48.4084 150.346 45.7434C148.266 43.0784 148.161 41.5684 148.369 41.1465L148.264 36.9787L149.733 32.9591L170.241 21.1189Z" fill="white"/>
<path d="M173.288 76.9502L174.991 76.3331L178.096 76.0798L180.819 77.6258L184.885 82.2378L186.081 88.1965L183.795 91.2667L175.092 97.654L174.053 99.1762L170.72 106.623L168.897 102.201L167.274 102L164.356 101.735C163.657 101.194 161.797 99.6389 159.956 97.7491C158.115 95.8593 157.905 94.6968 158.03 94.3519L157.593 91.1279L158.39 87.8844L173.288 76.9502Z" fill="white"/>
<path d="M96.246 139.831L98.842 138.317L103.564 137.677L108 139.054L114.884 145.02L117.178 152.516L115.067 158.653L102.303 171.417L98.4093 177.603L96.9858 186.17L93.2173 180.503L90.6211 180.719L85.9698 181.26C84.78 180.647 81.5999 178.837 78.3981 176.501C75.1963 174.164 74.6843 172.426 74.8285 171.849L73.6386 166.982L74.3958 161.682L96.246 139.831Z" fill="white"/>
<path fill-rule="evenodd" clip-rule="evenodd" d="M105.363 126.357C105.458 126.357 106.804 125.418 108.355 124.267C109.903 123.117 112.412 121.293 113.926 120.213L116.68 118.249L127.847 118.09C138.54 117.937 139.088 117.901 140.743 117.237C145.794 115.214 148.416 110.87 148.437 104.482C148.465 95.8691 144.359 90.769 136.719 89.9276C133.599 89.5849 111.029 89.588 108.652 89.9307C105.026 90.4569 101.538 92.7026 99.8312 95.6183C97.4387 99.7027 97.2429 107.149 99.4182 111.414C100.367 113.275 102.557 115.468 104.454 116.46C104.52 116.494 104.584 116.527 104.645 116.559C105.251 116.872 105.638 117.073 105.852 117.393C106.239 117.961 106.065 118.906 105.583 121.536C105.554 121.698 105.523 121.866 105.491 122.04C104.916 125.191 104.882 126.357 105.363 126.357ZM96.7809 186.693C97.3255 187.069 97.4815 186.568 98.0016 182.805C98.4052 179.884 98.5867 178.332 99.192 176.968C99.9588 175.241 101.406 173.815 104.846 170.291C111.947 163.013 115.416 158.965 116.45 156.759C117.182 155.196 117.292 154.587 117.292 152.057C117.292 149.444 117.2 148.964 116.38 147.314C115.315 145.176 111.684 141.232 109.38 139.718C106.987 138.142 104.607 137.371 102.141 137.371C98.0322 137.371 95.8477 138.754 88.2266 146.182C85.0294 149.297 80.6941 153.516 78.5892 155.554C74.3793 159.641 73.0086 161.694 72.4365 164.799C71.7298 168.624 73.7735 173.602 77.4449 177.001C81.9668 181.189 87.3668 182.676 91.8184 180.957C92.1825 180.819 92.415 180.932 92.5527 181.321C92.7607 181.905 96.2241 186.308 96.7809 186.693ZM107.578 123.515C106.593 124.231 106.125 124.429 106.125 124.13C106.125 123.888 106.412 122.285 106.761 120.565C107.113 118.849 107.33 117.27 107.25 117.056C107.168 116.842 106.348 116.3 105.43 115.851C103.184 114.749 100.896 112.28 99.9995 109.979C99.0449 107.535 98.7787 101.618 99.513 99.1458C100.492 95.8508 102.423 93.5347 105.577 91.8734L107.195 91.0198H138.708L140.446 91.8337C145.295 94.1069 147.636 98.5982 147.357 105.093C147.192 108.884 146.381 111.056 144.243 113.418C141.324 116.64 138.925 117.246 129.377 117.172C125.926 117.145 121.59 117.139 119.739 117.154L116.374 117.188L112.702 119.822C110.683 121.272 108.376 122.933 107.578 123.515ZM96.6769 184.793C96.53 184.793 95.9304 184.209 95.3491 183.493C94.7647 182.777 93.9203 181.608 93.4705 180.892C93.0238 180.176 92.6047 179.592 92.5435 179.592C92.4823 179.592 91.849 179.797 91.1331 180.051C88.3612 181.03 83.9983 180.314 80.9542 178.381C79.0297 177.16 76.1385 174.256 75.1472 172.546C73.1157 169.046 72.8985 165.243 74.5384 161.997C75.3063 160.473 76.8697 158.8 83.8331 152.051C88.4377 147.587 92.9351 143.248 93.8315 142.413C99.9322 136.698 105.519 136.983 112.06 143.337C115.67 146.843 117.108 150.75 116.132 154.406C115.355 157.325 113.85 159.253 106.492 166.776C100.29 173.115 99.2468 174.324 98.4606 176.058C97.5641 178.035 96.9645 180.993 96.9522 183.493C96.9492 184.209 96.8237 184.793 96.6769 184.793ZM164.705 58.4363C164.79 58.4363 165.252 57.6439 165.733 56.6771C166.501 55.1259 167.137 53.1556 167.749 50.4051C167.853 49.9431 168.095 49.5637 168.284 49.5637C169.015 49.5637 181.318 41.1012 182.939 39.4858C184.943 37.4879 185.671 35.7165 185.671 32.8283C185.671 29.3313 183.94 25.8313 180.467 22.3067C177.31 19.1035 173.213 18.409 169.276 20.4129C167.403 21.3644 159.635 26.2871 155.055 29.4231C149.294 33.3668 147.122 36.1999 147.122 39.7734C147.122 44.2341 150.717 49.7106 155.076 51.8981C156.416 52.5682 157.298 52.767 159.409 52.8711L162.058 53.0026L162.691 54.7251C163.319 56.4292 164.408 58.4363 164.705 58.4363ZM164.579 56.6006C164.46 56.6006 163.989 55.5328 163.536 54.2295L162.71 51.8584H160.042C157.698 51.8584 157.154 51.7482 155.612 50.968C153.222 49.7565 150.426 46.7888 149.193 44.1546C147.339 40.1925 147.966 36.876 151.166 33.7615C153.733 31.2619 167.369 22.2609 170.606 20.93C174.666 19.2595 178.335 20.6944 181.715 25.2714C183.796 28.0831 184.448 29.8912 184.441 32.7947C184.432 35.9307 183.888 37.2493 181.795 39.1982C180.476 40.425 171.353 46.6939 168.199 48.5388C167.198 49.1262 167.03 49.4291 166.406 51.7452C165.61 54.7037 164.894 56.6006 164.579 56.6006ZM168.024 102.404L168.685 104.362C169.976 108.181 170.524 108.532 171.607 106.241C171.983 105.442 172.583 103.57 172.941 102.083L173.586 99.3784L176.034 97.6681C179.598 95.1807 183.872 91.7327 184.885 90.5334C186.142 89.0403 186.592 87.7737 186.577 85.7514C186.552 82.8204 185.433 80.5503 182.578 77.6652C180.58 75.6459 179.09 74.9575 176.707 74.9575C175.153 74.9575 174.388 75.1411 172.947 75.8662C171.319 76.6861 169.988 77.6529 163.796 82.5206C157.662 87.3454 156.435 89.0526 156.661 92.4731C157.004 97.6589 161.416 102.236 166.195 102.358L168.024 102.404ZM199.262 48.239C199.537 48.1319 201.103 47.6363 202.737 47.1345C208.018 45.513 215.202 44.3626 220.051 44.3626H221.935L222.654 41.5326C223.64 37.6409 225.787 31.7881 227.767 27.5874C228.679 25.6538 229.382 24.0292 229.327 23.9742C229.052 23.6988 222.498 21.7071 220.528 21.3002C216.832 20.5414 211.481 20.0335 210.603 20.3609C208.679 21.0799 203.563 29.6648 201.486 35.6584C200.461 38.6169 199.396 43.3132 198.962 46.7796C198.781 48.2359 198.818 48.4103 199.262 48.239ZM29.4843 90.5487C35.4167 91.1728 44.9348 91.3717 44.9348 90.876C44.9348 90.7139 44.4024 88.9547 43.7477 86.966C40.4128 76.8085 34.456 69.2913 27.3549 66.2839C22.7351 64.3227 17.2739 65.0448 13.1895 68.1563L12.1921 68.915L14.242 70.7874C18.3814 74.5781 21.958 80.5044 23.6529 86.3878C24.0843 87.8808 24.4362 89.2759 24.4362 89.4901C24.4362 89.9368 25.2163 90.102 29.4843 90.5487ZM170.833 105.369C170.414 105.923 170.377 105.91 170.047 105.063C169.857 104.573 169.502 103.524 169.263 102.725L168.823 101.278L167.076 101.318C164.454 101.376 162.857 100.761 161.049 98.9868C159.265 97.2428 157.928 94.7555 157.643 92.6597C157.35 90.4936 158.436 88.3979 161.076 86.042C163.744 83.6587 172.262 77.2399 173.785 76.4628C176.554 75.0524 180.027 76.166 182.636 79.2989C184.879 81.9943 185.469 83.316 185.488 85.6657C185.503 87.9726 185.007 89.1046 183.297 90.6741C181.465 92.3568 177.325 95.5999 174.893 97.2551L172.647 98.7848L171.959 101.786C171.582 103.438 171.074 105.048 170.833 105.369ZM25.1429 104.329L24.9257 99.8159C24.8064 97.3346 24.5433 94.2843 24.3444 93.036L23.9773 90.769L21.0707 90.1785C14.7621 88.8966 8.61249 86.501 5.21646 83.9983C4.18847 83.2426 3.29204 82.7256 3.21861 82.8449C2.94632 83.2977 1.80819 87.7492 1.32479 90.255C0.813854 92.8831 0.333515 102.958 0.673118 103.848C0.838331 104.274 2.24263 104.329 12.9998 104.329H25.1429ZM32.0115 174.887C32.4704 174.795 33.5382 174.633 34.3795 174.526C40.3578 173.773 54.0918 168.979 54.3672 167.55C54.4865 166.929 52.1766 163.089 50.0686 160.409C47.1712 156.719 41.5418 152.115 41.1563 153.118C40.8442 153.929 31.1732 158.968 26.1189 160.951C25.1093 161.345 24.2404 161.694 24.1914 161.725C24.1394 161.752 24.7085 162.722 25.4519 163.879C27.0276 166.323 29.1631 170.352 30.3441 173.115C31.1181 174.926 31.2252 175.04 32.0115 174.887ZM41.1838 125.711C41.2236 125.73 41.655 124.953 42.1414 123.986C44.1454 120.012 45.9199 113.219 46.336 107.924L46.5502 105.246H26.0394L25.8221 107.924C25.4122 113.036 24.5188 117.377 22.7932 122.652C22.6341 123.132 31.0722 124.686 36.9801 125.268C39.2533 125.491 41.1441 125.69 41.1838 125.711ZM246.283 50.1512C246.384 50.1634 246.555 49.2456 246.662 48.1105C246.916 45.4304 246.913 41.2878 246.659 38.8555L246.457 36.9281L243.434 33.789C239.359 29.5577 235.541 26.7277 231.674 25.0695L230.337 24.4973L229.073 27.0092C227.17 30.7938 225.264 35.7195 223.961 40.2292L222.792 44.2708L226.641 44.641C233.078 45.259 240.485 47.1773 244.414 49.2425C245.341 49.729 246.179 50.1359 246.283 50.1512ZM201.379 66.3909C201.443 66.3909 202.673 65.8464 204.114 65.1794C207.767 63.4936 212.644 61.9118 216.591 61.1317L219.938 60.4708V58.6107C219.938 56.2549 220.727 49.4597 221.275 47.0886L221.691 45.2805H219.733C215.198 45.2805 207.593 46.5471 201.887 48.2512L198.98 49.1201L199.02 54.0061C199.054 58.1823 199.173 59.3205 199.831 61.8017C200.62 64.7664 201.168 66.3909 201.379 66.3909ZM35.8267 198.546C35.946 198.555 35.9827 198.182 35.9062 197.72C34.3581 188.569 33.6942 185.69 31.7545 179.711L30.5521 176.009L25.8864 175.841C21.1533 175.67 16.4662 174.871 14.6305 173.926C14.1502 173.675 13.6821 173.473 13.5903 173.473C13.3241 173.473 13.4128 177.992 13.7218 180.388C13.8779 181.581 14.2358 183.569 14.5173 184.805C15.0986 187.36 15.3311 187.626 19.7919 190.83C22.9156 193.069 28.6063 196.003 32.6968 197.481C34.2969 198.059 35.7043 198.536 35.8267 198.546ZM242.134 63.9311C242.312 63.9372 242.979 62.5329 243.618 60.8074C244.735 57.7907 245.634 54.6517 246.069 52.25L246.274 51.1149L244.401 50.1695C239.457 47.673 229.346 45.3202 223.425 45.2866L222.48 45.2805L221.969 48.2635C221.314 52.1062 220.862 56.2854 220.859 58.5128L220.855 60.272H225.252C231.478 60.272 237.221 61.407 240.742 63.3314C241.33 63.6527 241.957 63.925 242.134 63.9311ZM21.7132 122.667C21.8111 122.676 22.2486 121.48 22.6831 120.009C23.9069 115.86 25.0481 109.221 25.0481 106.25V105.246H0.819972L1.02802 106.853C1.26666 108.698 2.28241 113.024 2.7138 114.043C2.87595 114.422 3.16049 114.731 3.34711 114.731C3.5368 114.731 4.05692 114.991 4.5036 115.306C6.41272 116.664 12.6908 119.559 16.9404 121.046C19.4645 121.93 21.6123 122.658 21.7132 122.667ZM215.688 80.6115C217.839 81.2142 223.172 81.049 225.215 80.3177C226.014 80.0301 226.668 79.7456 226.668 79.6844C226.668 79.6263 226.066 78.7084 225.328 77.6499C222.703 73.8714 221.158 69.8206 220.403 64.7419C220.158 63.0775 219.91 61.6701 219.852 61.6151C219.626 61.3887 215.627 62.1719 212.463 63.0622C209.177 63.9862 203.888 66.0881 202.508 67.0151C201.596 67.63 201.752 68.1043 203.998 71.5125C207.14 76.2823 211.022 79.3051 215.688 80.6115ZM41.4163 217.089C42.2546 217.435 46.7521 216.93 48.2941 216.315C52.3969 214.681 55.9336 211.16 58.2466 206.405C59.0023 204.851 59.6203 203.505 59.6203 203.413C59.6203 203.321 57.5888 203.159 55.1076 203.055C50.2491 202.853 45.3356 202.113 40.5719 200.871C38.929 200.442 37.4727 200.091 37.3319 200.091C37.1943 200.091 37.2126 200.95 37.3748 202.003C37.5339 203.055 37.6807 206.638 37.696 209.97L37.7266 216.021L39.4185 216.493C40.3486 216.75 41.2481 217.019 41.4163 217.089ZM46.5563 104.329L46.3697 100.581C46.1708 96.6524 45.6537 93.0911 45.204 92.519C45.0327 92.3048 42.5269 92.1121 38.2804 91.9897C34.6212 91.8826 30.1115 91.5981 28.2605 91.3564C26.4095 91.1177 24.8645 90.9495 24.8278 90.9862C24.788 91.0229 24.889 91.5277 25.045 92.109C25.4305 93.5133 25.9659 99.3447 25.9659 102.11V104.329H46.5563ZM227.531 79.2408C227.586 79.2408 228.62 78.6687 229.829 77.9681C232.188 76.5974 236.318 72.8036 238.457 70.0409C239.693 68.4439 241.66 65.3354 241.66 64.9805C241.66 64.6103 236.912 62.6706 234.568 62.0832C232.656 61.6028 230.637 61.404 226.439 61.2755C223.288 61.1806 220.855 61.2265 220.859 61.3795C220.859 61.5263 221.057 62.9551 221.299 64.5552C222.064 69.5912 223.477 73.3115 226.155 77.3286C226.855 78.3811 227.473 79.2408 227.531 79.2408ZM36.4171 215.385C36.5303 215.385 36.7231 214.32 36.8485 213.017C37.0566 210.836 36.5915 201.697 36.1969 200.241C36.0745 199.794 35.3402 199.387 33.5229 198.754C29.0315 197.193 22.6494 193.904 18.9719 191.261C17.0597 189.884 15.5881 189.003 15.7013 189.3C15.8176 189.597 16.1878 190.667 16.5213 191.677C17.4728 194.535 20.3059 200.253 22.1293 202.994C25.2378 207.666 29.5149 211.652 34.2327 214.278C35.3218 214.883 36.307 215.382 36.4171 215.385ZM19.9999 89.0312C23.555 89.845 23.6101 89.8389 23.3501 88.6487C22.9095 86.6172 21.5664 82.9917 20.3824 80.6176C18.6354 77.1236 16.5488 74.2324 13.8718 71.5921L11.5435 69.2975L10.1392 70.8272C9.36513 71.6686 8.05873 73.3849 7.23572 74.6393C5.81306 76.8085 3.63164 81.049 3.63164 81.6425C3.63164 82.0586 8.10768 84.907 10.3625 85.9227C12.7734 87.0088 16.6957 88.2755 19.9999 89.0312ZM21.3767 136.628C23.2766 137.157 27.3488 137.151 29.1172 136.612C32.9324 135.456 37.1881 132.112 39.8376 128.187L40.9666 126.51L39.6633 126.43C36.4171 126.232 29.7872 125.329 26.5778 124.653C24.6442 124.246 22.8911 123.912 22.6831 123.912C22.4781 123.909 21.6367 125.268 20.8137 126.929C19.3268 129.933 17.8522 132.326 16.7079 133.602L16.1082 134.269L18.0541 135.257C19.1249 135.799 20.6179 136.417 21.3767 136.628ZM230.409 22.6169C230.446 22.5537 230.487 22.485 230.533 22.4108C232.117 19.8041 233.815 17.329 235.091 15.7594L236.538 13.9849L235.81 13.4281C230.569 9.43547 224.047 9.51501 217.762 13.6514C215.746 14.9762 211.371 18.8159 211.371 19.2595C211.371 19.3849 212.919 19.5746 214.813 19.6756C218.622 19.8836 223.373 20.8841 227.127 22.2731C227.348 22.3546 227.552 22.4302 227.74 22.5C229.259 23.0641 229.752 23.2469 230.043 23.0808C230.182 23.0017 230.274 22.8456 230.409 22.6169ZM26.5228 174.96C29.9769 175.003 29.983 175.003 29.7781 174.314C29.3099 172.766 27.0551 168.232 25.2806 165.28C23.8946 162.976 23.2675 162.184 22.9248 162.315C22.6678 162.413 20.8015 162.979 18.7822 163.573C16.7599 164.166 15.0741 164.683 15.0374 164.72C14.5754 165.179 13.3516 172.488 13.7035 172.681C14.3246 173.023 18.1581 174.106 19.694 174.373C22.7535 174.902 22.9401 174.917 26.5228 174.96ZM16.2612 132.745C16.7416 132.176 17.69 130.772 18.3662 129.624C19.7246 127.315 21.5113 123.622 21.3369 123.487C21.2757 123.438 19.8133 122.958 18.0939 122.422C14.1043 121.174 10.7419 119.736 6.69113 117.543C4.92581 116.585 3.37159 115.756 3.24309 115.698C2.62201 115.422 6.39742 123.68 7.93329 125.953C9.54564 128.336 11.5527 130.591 13.5352 132.24L15.3862 133.779L16.2612 132.745ZM27.0981 159.487C27.3188 159.392 27.5529 159.291 27.8016 159.185C32.3021 157.261 40.9513 152.73 40.9544 152.292C40.9605 151.864 37.8306 150.484 35.5238 149.894C29.931 148.465 25.3326 149.808 21.1472 154.103C19.9265 155.355 18.9291 156.478 18.9291 156.6C18.9291 156.719 19.3329 157.059 19.8255 157.35C20.3212 157.64 21.3186 158.558 22.0437 159.387C22.1266 159.482 22.2041 159.571 22.2771 159.655C22.71 160.155 22.9866 160.474 23.3348 160.605C23.9491 160.837 24.7879 160.477 27.0981 159.487ZM245.561 34.8017C246.359 36.0163 246.494 35.5482 246.041 33.119C244.842 26.6635 243.431 22.7381 241.024 19.1524C239.329 16.6283 237.147 14.3918 236.829 14.8477C236.71 15.019 235.847 16.1878 234.911 17.4452C233.124 19.8469 230.808 23.5336 230.995 23.6805C231.056 23.7263 232.295 24.3903 233.751 25.1551C235.208 25.9231 237.416 27.3029 238.662 28.2238C240.923 29.8943 244.704 33.5014 245.561 34.8017ZM144.368 161.547C144.368 162.049 144.8 161.865 145.311 161.149C145.577 160.776 147.914 157.166 150.506 153.127C166.981 127.443 176.851 114.315 189.34 101.459C195.737 94.8717 203.652 88.2908 213.045 81.7465C213.843 81.1897 214.418 80.6573 214.323 80.5625C214.033 80.2688 209.967 82.9673 204.793 86.8834C185.01 101.853 171.711 117.588 151.053 150.469C150.068 152.035 149.263 153.384 149.263 153.464C149.263 153.547 149.123 153.779 148.951 153.981C148.327 154.721 144.368 161.253 144.368 161.547ZM100.312 184.509C100.312 185.154 101.3 184.708 102.973 183.303C105.632 181.07 112.305 174.128 115.946 169.802C123.267 161.104 129.735 152.32 135.386 143.398C137.007 140.841 138.916 137.855 139.626 136.759C140.339 135.664 142.569 132.222 144.582 129.11C149.248 121.902 155.468 113.005 158.69 108.936C160.066 107.195 161.195 105.65 161.195 105.507C161.195 104.971 160.33 105.274 159.874 105.969C159.614 106.366 159.213 106.883 158.983 107.116C157.218 108.906 150.805 117.953 144.726 127.223C136.64 139.556 128.037 152.335 125.617 155.606C123.23 158.83 115.701 168.425 114.902 169.257C114.694 169.471 113.724 170.612 112.745 171.79C110.711 174.241 102.413 182.701 101.153 183.615C100.691 183.949 100.312 184.353 100.312 184.509ZM42.3801 152.669C42.7136 152.669 44.4238 151.72 46.18 150.564C57.497 143.095 64.6777 136.056 74.8199 122.484C77.8855 118.381 90.4753 99.7271 94.4618 93.3787C95.2756 92.0815 98.534 87.0945 101.701 82.3003C107.743 73.1494 111.326 67.4281 111.326 66.9386C111.326 66.7764 111.2 66.6908 111.044 66.7489C110.775 66.8468 104.307 76.4995 94.3241 91.7143C77.4724 117.387 75.4256 120.373 70.0501 127.122C61.5692 137.769 55.2758 143.661 45.3937 150.206C45.136 150.376 44.8959 150.535 44.6724 150.683C42.5016 152.118 41.8927 152.521 41.9426 152.632C41.9622 152.674 42.0825 152.672 42.2494 152.67C42.2904 152.669 42.3342 152.669 42.3801 152.669ZM147.865 89.6431C147.917 89.6431 150.007 87.3362 152.513 84.5184C158.812 77.4265 167.648 68.5999 172.21 64.8398C177.698 60.3148 185.974 54.9515 192.531 51.6779C197.888 49.0008 199.029 48.3399 198.304 48.3399C197.668 48.3399 192.879 50.5091 188.764 52.6569C177.45 58.5648 166.907 67.2507 155.502 80.0607C152.996 82.8724 150.148 86.0451 149.175 87.1098C148.199 88.1745 147.483 89.1811 147.584 89.3432C147.688 89.5084 147.813 89.6431 147.865 89.6431ZM55.0311 167.691C55.0311 168.137 55.2636 168.036 57.7296 166.54C63.3774 163.114 67.3272 160.109 72.0082 155.679C75.2604 152.601 80.5931 146.21 84.8061 140.345C88.1287 135.725 95.8141 124.105 96.3954 122.826C96.8084 121.918 96.4076 121.379 95.9151 122.181C95.0798 123.548 85.8646 137.396 84.6898 139.054C77.5612 149.104 71.7145 155.499 64.8184 160.792C61.817 163.095 60.7156 163.851 56.6373 166.409C55.7531 166.966 55.0311 167.541 55.0311 167.691ZM40.6607 65.675C40.8687 66.3206 41.0982 66.9539 41.1716 67.0854C41.398 67.4801 41.8753 66.9998 41.8753 66.3787C41.8753 65.2742 42.8635 63.3253 43.7354 62.7012C44.2188 62.3585 45.1887 61.9792 45.8954 61.8598C47.6914 61.5539 47.673 61.0552 45.8526 60.636C43.6528 60.1282 42.5973 59.2378 42.0007 57.3899C41.7223 56.5363 41.3215 55.6491 41.1073 55.4196C40.7861 55.077 40.676 55.2391 40.4924 56.3313C40.1161 58.5586 38.9994 59.8834 36.7567 60.7615C36.0439 61.0399 35.5238 61.3703 35.6003 61.4927C35.6767 61.6181 36.3651 61.8935 37.13 62.1077C38.7424 62.5574 40.0946 63.928 40.6607 65.675ZM128.413 184.343C128.753 184.778 129.267 185.745 129.554 186.494C129.839 187.241 130.181 187.853 130.316 187.853C130.454 187.853 130.659 187.198 130.775 186.399C130.891 185.601 131.173 184.579 131.399 184.129C131.879 183.181 133.33 182.076 134.495 181.764C135.539 181.486 135.777 180.816 134.832 180.813C132.476 180.81 130.172 179.194 129.814 177.297C129.582 176.058 128.765 175.165 128.765 176.15C128.765 177.16 127.871 179.372 127.149 180.155C126.776 180.559 125.877 181.146 125.152 181.461C123.79 182.052 123.674 182.652 124.922 182.652C126.03 182.652 127.728 183.475 128.413 184.343ZM236.389 82.2269C238.322 82.8694 239.442 84.344 239.696 86.5775C239.809 87.5902 240.014 88.4193 240.149 88.4193C240.283 88.4193 240.611 87.6728 240.874 86.7641C241.489 84.65 242.657 83.6159 244.738 83.3405C246.552 83.0988 246.913 82.7225 245.732 82.2942C243.205 81.3763 242.327 80.33 242.094 77.9558C242.006 77.0655 241.819 76.218 241.678 76.0773C241.538 75.9365 241.082 76.5699 240.663 77.4816C239.772 79.4274 238.653 80.3208 236.483 80.8226C235.621 81.0214 234.96 81.3243 235.018 81.4926C235.073 81.6639 235.691 81.9943 236.389 82.2269ZM206.669 10.7082C206.776 11.2987 206.923 11.8831 206.996 12.0146C207.241 12.4429 207.651 11.9351 207.868 10.9346C208.171 9.51808 209.079 7.86289 209.777 7.44068C210.107 7.24182 210.912 6.98176 211.564 6.8655C213.399 6.53201 213.39 6.40657 211.475 5.63252C209.263 4.73609 208.731 4.10584 208.256 1.81122C208.033 0.722039 207.724 0 207.485 0C207.265 0 207.088 0.214164 207.088 0.47728C207.088 1.44714 205.8 3.91003 204.977 4.51887C204.509 4.86459 203.554 5.3174 202.853 5.5285C201.379 5.96907 201.229 6.33926 202.422 6.58708C204.79 7.07966 206.271 8.51762 206.669 10.7082ZM5.2287 153.693C7.1623 153.963 7.99142 154.55 8.82054 156.245C9.24887 157.12 9.68943 157.842 9.80264 157.851C9.91278 157.861 10.1606 157.148 10.3503 156.267C10.8123 154.103 11.3171 153.43 13.1987 152.457L14.7988 151.628L13.422 151.368C10.9836 150.906 9.98009 150.224 9.10813 148.44C8.67368 147.544 8.1964 146.816 8.05261 146.822C7.90881 146.825 7.6151 147.682 7.404 148.725C6.97261 150.842 6.30258 151.732 4.45159 152.647C3.15436 153.29 3.24921 153.418 5.2287 153.693ZM115.609 79.455C115.609 80.3177 116.154 79.712 118.21 76.5637C120.449 73.1341 124.026 67.9819 127.104 63.7384C128.101 62.3646 129.163 60.7982 129.462 60.2567C129.762 59.7151 130.065 59.3296 130.139 59.4C130.209 59.4704 130.139 60.4188 129.979 61.508C129.563 64.39 129.618 66.2991 130.151 67.3241C130.405 67.8197 130.677 68.2266 130.753 68.2266C130.827 68.2266 130.873 66.8682 130.854 65.21C130.836 63.5517 131.001 61.0766 131.225 59.709C131.445 58.3384 131.54 57.1329 131.433 57.0258C131.326 56.9188 130.799 57.2002 130.264 57.65C128.073 59.4918 123.704 61.0919 121.823 60.7401C121.003 60.5871 120.78 60.636 120.884 60.9389C120.981 61.2265 121.679 61.3397 123.288 61.3275C125.066 61.3153 125.929 61.1378 127.312 60.5045C128.278 60.0578 129.071 59.7549 129.071 59.8283C129.071 59.9048 128.618 60.48 128.061 61.1133C125.647 63.8607 115.609 78.6442 115.609 79.455ZM22.1263 52.0113C23.7356 52.0144 25.0787 53.4982 26.0669 56.3711C26.3667 57.2339 26.8838 56.9861 26.8838 55.9795C26.8838 53.9358 28.0556 52.3142 30.0289 51.632C31.4271 51.1486 31.4914 50.6835 30.185 50.4632C28.1841 50.1267 26.5778 48.4532 26.5778 46.7092C26.5778 45.9535 25.8313 45.0479 25.5743 45.4946C25.4978 45.6292 25.3479 46.2228 25.2408 46.8102C24.9196 48.5847 23.9467 49.8422 22.3007 50.604C21.1564 51.1333 20.878 51.3903 21.1442 51.6564C21.34 51.8522 21.7805 52.0113 22.1263 52.0113ZM120.734 84.7418C120.859 84.7387 121.719 83.6159 122.646 82.2452C127.272 75.3981 134.244 66.5439 141.869 57.8335C144.588 54.7251 146.816 52.0756 146.816 51.944C146.816 51.2893 146.005 52.0297 142.802 55.6062C133.431 66.0728 126.843 74.3487 122.135 81.5752C120.578 83.9647 120.229 84.754 120.734 84.7418ZM55.643 131.28C55.643 131.815 56.0438 131.543 58.0936 129.609C59.2685 128.499 60.9634 127.278 62.019 126.779C63.0378 126.293 63.8791 125.806 63.8883 125.693C63.8975 125.58 63.5028 125.399 63.0133 125.292C61.7803 125.023 58.7789 123.175 57.4083 121.844C56.7811 121.235 56.1815 120.822 56.0774 120.926C55.6338 121.37 59.3327 125.133 60.2139 125.133C60.3913 125.133 60.5382 125.271 60.5382 125.439C60.5382 125.635 57.237 125.745 51.2434 125.745C43.0991 125.745 41.8998 125.806 41.5448 126.235C41.1716 126.681 41.9395 126.712 50.4541 126.596C55.5818 126.525 60.0486 126.363 60.3852 126.238C60.7217 126.112 60.5137 126.391 59.9263 126.856C58.4914 127.991 55.643 130.934 55.643 131.28ZM60.3791 202.89C60.63 203.141 65.161 202.554 67.8779 201.914C75.034 200.231 79.608 198.484 85.5923 195.15C89.5115 192.965 96.1506 188.703 96.4902 188.156C96.9186 187.461 95.8661 187.963 93.0483 189.795C81.3733 197.386 72.0296 201.128 62.2974 202.11C60.4127 202.3 59.9691 202.48 60.3791 202.89ZM194.85 76.1354C196.998 76.9186 197.206 76.9248 196.545 76.1935C195.832 75.4073 193.562 74.673 191.582 74.5873C190.713 74.5506 190.059 74.4282 190.129 74.312C190.294 74.0427 199.965 67.63 200.534 67.4097C201.033 67.2201 201.122 66.6969 200.657 66.6969C200.348 66.6969 193.935 70.714 191.056 72.7088C190.233 73.2809 189.517 73.7031 189.465 73.6511C189.413 73.5991 189.566 73.0117 189.802 72.3447C190.49 70.4142 190.248 67.6606 189.367 67.3669C189.116 67.2843 189.037 67.3669 189.165 67.575C189.282 67.7646 189.382 68.5938 189.389 69.4168C189.404 71.179 188.529 73.339 187.177 74.878C186.467 75.6887 186.329 76.0192 186.623 76.2027C186.837 76.3343 187.287 76.3006 187.617 76.1232C187.948 75.9457 189.33 75.7377 190.692 75.6612C192.659 75.5511 193.513 75.649 194.85 76.1354ZM121.599 144.142C121.887 144.607 122.303 144.123 125.078 140.109C126.412 138.182 128.303 135.447 129.279 134.03L131.059 131.454L131.243 132.653C131.469 134.119 131.974 135.404 132.436 135.688C133.021 136.049 133.039 135.731 132.528 133.993C132.121 132.611 132.094 131.983 132.372 130.343C132.559 129.254 132.666 128.318 132.608 128.263C132.552 128.208 131.677 128.596 130.662 129.129C129.34 129.82 128.245 130.142 126.801 130.258C124.638 130.429 124.209 130.772 125.733 131.105C126.99 131.381 129.037 131.053 130.408 130.356C131.02 130.044 131.518 129.839 131.518 129.897C131.518 129.958 130.934 130.683 130.218 131.506C129.502 132.332 127.816 134.605 126.47 136.563C125.124 138.518 123.432 140.951 122.71 141.97C121.988 142.985 121.489 143.964 121.599 144.142ZM70.9313 87.5137C70.0562 88.7436 70.402 88.6518 72.1336 87.1924C72.9322 86.5193 74.517 85.4975 75.652 84.9253L77.7203 83.8851L75.2512 82.6032C73.8928 81.8964 72.36 80.8348 71.843 80.2474C71.3259 79.6569 70.8242 79.2561 70.7263 79.354C70.4937 79.5835 72.0174 81.615 73.2136 82.6705L74.1529 83.4996L63.6741 83.5118C56.9892 83.521 53.1954 83.6342 53.1954 83.827C53.1954 84.0197 57.2951 84.1574 64.439 84.2094C75.3614 84.2859 75.649 84.3043 74.517 84.8152C72.8832 85.5556 71.6839 86.4581 70.9313 87.5137ZM120.672 105.277C121.554 106.981 123.723 107.278 125.118 105.883C126.121 104.876 126.253 103.848 125.549 102.487C124.628 100.706 122.915 100.477 121.278 101.912C120.076 102.97 119.923 103.824 120.672 105.277ZM132.063 106.299C133.327 106.987 134.229 106.868 135.214 105.883C136.429 104.665 136.432 103.212 135.22 101.915C134.235 100.859 133.458 100.737 132.124 101.425C130.071 102.487 130.038 105.201 132.063 106.299ZM111.564 106.299C112.669 106.899 113.477 106.886 114.394 106.259C115.447 105.54 115.6 105.253 115.603 103.992C115.612 102.38 114.489 101.269 112.855 101.269C109.924 101.269 108.991 104.904 111.564 106.299ZM137.178 77.9405C136.894 78.8155 136.924 78.8094 139.014 77.7111C139.975 77.2062 141.055 76.7871 141.416 76.7779C141.777 76.7718 142.487 76.5638 142.991 76.319C143.885 75.8845 143.857 75.8754 142.025 75.9947L140.137 76.1171L142.025 73.596C143.062 72.207 145.32 69.2179 147.045 66.9539C150.028 63.0377 150.57 62.1077 149.875 62.1077C149.707 62.1077 149.569 62.2208 149.569 62.3616C149.569 62.4993 148.251 64.2554 146.638 66.2624C145.026 68.2664 142.75 71.2372 141.584 72.8587C138.772 76.7687 138.555 76.937 138.552 75.2237C138.546 73.6786 138.283 72.5099 137.94 72.5099C137.809 72.5099 137.634 73.5777 137.552 74.881C137.469 76.1844 137.301 77.5611 137.178 77.9405ZM85.3445 164.861C83.9586 167.452 87.4066 170.19 89.4656 168.134C90.9067 166.69 90.3835 164.393 88.4407 163.649C87.5565 163.313 85.8065 163.995 85.3445 164.861ZM99.5314 154.305C100.486 155.336 102.438 155.437 103.371 154.504C104.274 153.602 104.203 151.634 103.233 150.665C102.046 149.481 99.9658 149.738 99.2285 151.163C98.5829 152.412 98.6778 153.384 99.5314 154.305ZM70.7813 111.059C70.8609 111.059 71.9378 110.032 73.1739 108.777C74.9575 106.966 75.9672 106.232 78.0752 105.222C79.5345 104.518 80.7308 103.857 80.7308 103.75C80.7308 103.643 80.0088 103.298 79.1276 102.985C76.1569 101.93 74.2539 100.871 72.5834 99.3417C70.8701 97.7783 70.1664 97.6039 71.0567 98.9623C71.8216 100.128 74.5476 102.181 76.5454 103.096L78.326 103.909L77.0105 104.503C75.4838 105.191 72.8006 107.458 71.534 109.129C70.7354 110.181 70.3958 111.059 70.7813 111.059ZM142.456 81.3702C142.581 81.361 144.953 78.3291 147.724 74.6271L152.76 67.8962L153.274 69.4718C153.813 71.127 154.77 72.464 154.77 71.5645C154.77 71.3106 154.602 70.9343 154.394 70.7262C154.162 70.4937 154.027 69.4871 154.039 68.0522C154.058 66.0575 153.996 65.779 153.574 65.9687C153.308 66.088 151.864 66.498 150.368 66.8835C148.869 67.2659 147.492 67.7371 147.308 67.9237C147.057 68.1807 147.168 68.2266 147.734 68.1104C152.779 67.0518 152.953 67.0579 151.769 68.3031C150.652 69.478 149.242 71.2708 145.21 76.628C142.493 80.2412 141.817 81.4069 142.456 81.3702ZM66.6755 92.0907C80.5319 92.0907 87.7676 91.9866 87.7676 91.7847C87.7676 91.5828 80.4707 91.4788 66.4858 91.4788C52.3754 91.4788 45.2682 91.5828 45.3937 91.7847C45.5161 91.9836 52.9445 92.0907 66.6755 92.0907ZM64.439 209.753C65.8311 210.003 66.6051 210.628 67.1681 211.958C67.6668 213.136 68.1869 212.993 68.1869 211.68C68.1869 210.285 68.707 209.584 70.2796 208.859L71.7053 208.201L70.6345 208.113C68.8355 207.963 67.884 207.418 67.2476 206.167C66.9141 205.518 66.5807 204.986 66.5011 204.986C66.4246 204.986 66.2013 205.613 66.0085 206.375C65.7271 207.504 65.4364 207.892 64.4788 208.44C63.8271 208.813 63.2948 209.214 63.2948 209.33C63.2917 209.45 63.8088 209.639 64.439 209.753ZM18.7975 162.597C20.6057 162.031 22.2058 161.446 22.3496 161.302C22.6861 160.966 19.0607 157.472 18.5436 157.631C18.1092 157.769 16.0226 161.593 15.7136 162.814L15.5116 163.631L18.7975 162.597ZM94.2813 161.789C95.5693 162.129 96.2179 161.939 96.9522 161.003C98.3137 159.274 97.145 156.952 94.9146 156.952C91.8888 156.952 91.3595 161.018 94.2813 161.789ZM147.412 138.595C147.571 138.595 149.478 136.013 151.65 132.858C156.334 126.057 158.225 122.915 158.084 122.178C158.007 121.783 157.668 122.074 156.817 123.255C155.609 124.94 154.474 125.62 152.222 126.002C151.546 126.118 150.934 126.397 150.857 126.623C150.747 126.954 151.056 126.993 152.363 126.828C153.265 126.712 154.256 126.547 154.562 126.461C154.917 126.36 153.816 128.235 151.54 131.607C149.569 134.526 147.77 137.129 147.541 137.396C147.058 137.952 146.987 138.595 147.412 138.595ZM60.7921 104.941C68.5357 104.941 75.086 104.858 75.3522 104.754C75.6184 104.653 75.8356 104.482 75.8356 104.371C75.8356 104.264 69.3403 104.176 61.404 104.176C50.1328 104.176 46.9479 104.258 46.8469 104.558C46.746 104.861 49.6708 104.941 60.7921 104.941ZM164.9 38.4272C165.797 38.9259 166.262 38.9504 167.027 38.5404C167.348 38.366 167.822 37.8245 168.076 37.335C169.328 34.9118 166.045 32.7549 164.087 34.7099C163.674 35.123 163.343 35.7104 163.349 36.0102C163.365 36.8516 164.087 37.9775 164.9 38.4272ZM171.316 33.4739C172.464 34.4407 173.62 34.4866 174.562 33.6024C175.532 32.6906 175.511 31.115 174.519 30.1207C173.66 29.264 172.858 29.1784 171.619 29.8178C170.056 30.6286 169.918 32.299 171.316 33.4739ZM73.2534 143.065C73.5165 142.964 74.6271 142.676 75.7194 142.422C76.8146 142.168 78.0537 141.96 78.4729 141.96C78.9624 141.96 79.1613 141.838 79.0236 141.615C78.8798 141.382 78.1639 141.327 76.8728 141.449L74.9361 141.63L79.2561 135.921C83.8484 129.851 84.9651 128.193 84.4481 128.193C84.1605 128.193 79.663 133.819 77.2124 137.24C75.4777 139.663 73.7858 141.807 73.2809 142.227C72.6415 142.759 72.6231 143.31 73.2534 143.065ZM159.604 43.1143C159.653 43.1266 160.085 42.9369 160.562 42.6921C162.814 41.5265 161.921 38.5496 159.32 38.5496C156.377 38.5496 156.612 42.325 159.604 43.1143ZM70.252 141.948C70.3775 141.942 71.0261 141.15 71.69 140.189C72.357 139.228 74.5292 136.257 76.5179 133.587C80.4738 128.281 81.0276 127.431 80.3881 127.645C79.9353 127.795 77.0013 131.561 73.2932 136.747C70.9833 139.978 70.7813 140.183 70.7018 139.348C70.5978 138.243 69.7197 136.147 69.3648 136.147C69.013 136.147 69.0405 136.401 69.5545 137.83C69.7962 138.503 70.0012 139.709 70.0103 140.507C70.0165 141.306 70.1266 141.954 70.252 141.948ZM150.089 140.513C150.328 140.932 150.677 140.507 154.51 135.153L158.289 129.875L158.442 131.558C158.681 134.168 159.194 133.565 159.295 130.564C159.344 129.092 159.274 127.887 159.139 127.887C158.549 127.887 149.829 140.051 150.089 140.513ZM188.593 23.5856C188.113 24.0445 189.015 23.9038 191.79 23.0839C194.856 22.1813 203.453 20.6087 206.935 20.312C210.383 20.0213 211.148 19.6236 208.312 19.5991C203.802 19.5624 189.857 22.3832 188.593 23.5856ZM113.773 137.05C113.773 137.674 114.244 137.331 115.135 136.059C117.515 132.653 122.322 125.311 122.97 124.09C123.371 123.334 123.579 122.609 123.435 122.471C123.291 122.337 123.12 122.373 123.056 122.554C122.992 122.735 120.874 125.996 118.356 129.805C115.835 133.614 113.773 136.872 113.773 137.05ZM123.105 105.858C122.759 105.858 122.169 105.644 121.795 105.381C120.929 104.775 120.896 103.325 121.728 102.493C122.998 101.223 125.093 102.083 125.093 103.87C125.093 104.999 124.234 105.858 123.105 105.858ZM134.63 105.354C133.929 105.987 133.076 105.996 132.198 105.381C130.827 104.423 131.745 101.881 133.461 101.881C135.003 101.881 135.814 104.283 134.63 105.354ZM114.691 103.986C114.691 105.595 113.079 106.348 111.699 105.381C111.023 104.907 110.787 103.619 111.255 102.921C111.506 102.545 112.672 101.881 113.085 101.881C113.697 101.881 114.691 103.181 114.691 103.986ZM102.566 154.113C101.759 154.703 100.979 154.587 100.143 153.755C99.2683 152.88 99.2162 152.445 99.871 151.512C100.437 150.704 102.166 150.579 102.768 151.301C103.322 151.971 103.203 153.648 102.566 154.113ZM96.6402 159.479C96.6402 160.966 95.0003 161.761 93.8101 160.853C92.9535 160.198 92.8311 158.925 93.5531 158.203C94.783 156.973 96.6402 157.741 96.6402 159.479ZM89.6033 166.237C89.6033 167.786 87.6789 168.489 86.5438 167.354C85.3782 166.188 86.1767 164.295 87.8349 164.295C88.6059 164.295 89.6033 165.39 89.6033 166.237ZM171.604 91.1728C172.332 91.1728 172.601 90.9923 172.855 90.3315C173.299 89.1872 172.852 88.0399 171.827 87.6789C171.136 87.4341 170.866 87.5075 170.224 88.1103C169.802 88.508 169.456 89.0832 169.456 89.3891C169.456 90.2488 170.57 91.1728 171.604 91.1728ZM173.853 33.0211C172.938 33.7401 172.867 33.7523 172.136 33.327C170.524 32.3878 171.032 30.289 172.87 30.289C174.617 30.289 175.211 31.9503 173.853 33.0211ZM167.253 37.5705C166.696 38.1274 165.552 38.0111 164.867 37.3258C164.105 36.564 164.087 35.7379 164.815 35.0771C165.512 34.4468 166.069 34.4376 166.941 35.0495C167.691 35.5727 167.862 36.9617 167.253 37.5705ZM174.489 86.452C175.144 87.4494 176.71 87.4922 177.068 86.5193C177.582 85.1334 176.716 83.9371 175.434 84.2584C174.305 84.5429 173.883 85.525 174.489 86.452ZM160.767 41.453C160.241 42.2485 159.384 42.3648 158.518 41.7529C157.674 41.1593 157.637 40.3486 158.417 39.6418C159.693 38.4884 161.703 40.0334 160.767 41.453ZM171.151 90.5609C170.579 90.5609 170.334 90.3559 170.181 89.7471C169.857 88.456 171.387 87.581 172.216 88.5814C172.812 89.2973 172.133 90.5609 171.151 90.5609ZM167.186 94.2323C167.525 94.2323 167.969 94.0671 168.171 93.8652C168.373 93.6632 168.538 93.1401 168.538 92.7026C168.538 91.7266 168.024 91.1728 167.122 91.1728C166.381 91.1728 165.479 91.9071 165.479 92.5129C165.479 92.7209 165.687 93.1584 165.944 93.4858C166.384 94.0548 166.4 94.0457 166.228 93.293C166.026 92.3935 166.721 91.6073 167.464 91.8948C168.147 92.158 168.024 93.2104 167.247 93.755C166.592 94.2139 166.589 94.2323 167.186 94.2323ZM176.34 85.7973C176.34 86.8467 175.841 87.1098 175.153 86.4245C174.77 86.042 174.734 85.7912 174.985 85.32C175.468 84.4144 176.34 84.7234 176.34 85.7973Z" fill="#111111"/>
<path d="M39.085 216.967C33.5076 215.406 26.3239 209.905 22.2517 204.068C18.0541 198.053 14.8967 190.251 13.5658 182.606C12.9172 178.873 12.908 172.638 13.5475 168.765C14.1777 164.965 16.0623 160.079 18.0388 157.12C19.8378 154.431 22.9707 151.426 25.097 150.349C29.4721 148.131 34.7038 148.361 39.6786 150.989L41.6152 152.011L44.7267 149.995C54.052 143.958 60.7982 137.665 69.2944 127.076C74.8719 120.131 76.3343 118.011 91.9561 94.2323C93.8897 91.2891 98.6625 84.0411 102.557 78.1333C106.455 72.2223 109.781 67.1527 109.949 66.8682C110.448 66.0207 111.463 66.1064 111.567 67.0059C111.678 67.936 110.628 69.6891 103.062 81.2295C80.1862 116.12 81.8628 113.602 76.9217 120.529C68.2481 132.696 59.4765 141.914 50.7478 148.04C49.989 148.572 48.0279 149.921 46.388 151.038C44.7481 152.158 43.4081 153.155 43.4111 153.253C43.4172 153.351 43.9802 153.846 44.6655 154.351C47.5782 156.499 51.7635 161.538 54.5813 166.286C54.8628 166.761 55.2575 166.589 58.32 164.662C63.3162 161.52 65.9045 159.476 71.4514 154.299C73.5471 152.341 78.118 146.929 81.4987 142.404C84.5368 138.335 92.1274 127.113 94.1895 123.643C95.6519 121.18 96.1292 120.819 96.891 121.581C97.3652 122.055 97.3377 122.196 96.5055 123.686C92.9412 130.068 81.6425 145.977 76.8024 151.433C71.1974 157.747 64.1147 163.554 57.4022 167.339C56.4354 167.883 55.643 168.391 55.643 168.462C55.643 168.535 56.0438 169.392 56.5363 170.365C60.1588 177.539 62.331 188.945 61.4866 196.331C61.2786 198.148 61.0307 200.097 60.9359 200.666L60.7615 201.7L62.5635 201.486C73.3635 200.201 83.2365 195.96 95.8263 187.198C95.9793 187.091 95.2114 185.904 94.1161 184.558C93.0208 183.214 92.0754 181.957 92.0081 181.761C91.9193 181.495 91.644 181.495 90.8822 181.761C90.2886 181.966 88.7252 182.061 87.0639 181.988C84.699 181.884 83.9188 181.709 82.1779 180.895C78.3199 179.087 75.4134 176.413 73.4492 172.861C72.1918 170.588 71.7818 168.875 71.8154 166.039C71.8399 164.031 71.996 163.322 72.8067 161.602C73.8378 159.418 75.1931 157.992 88.2357 145.381C95.6489 138.216 97.971 136.759 101.985 136.759C105.24 136.759 107.764 137.781 111.24 140.507C117.787 145.641 119.632 151.784 116.478 157.968C115.649 159.592 112.216 163.45 105.941 169.805C99.6507 176.175 99.3692 176.658 98.6319 182.346C98.1271 186.259 97.7048 187.675 97.1541 187.333C96.9675 187.216 96.9186 187.339 97.0348 187.639C97.3805 188.541 92.5312 191.943 85.4455 195.777C78.1027 199.748 70.2979 202.361 63.1785 203.23L60.1588 203.6L58.9748 206.09C56.6985 210.885 53.4952 214.299 49.371 216.33C47.5598 217.221 47.0152 217.337 44.228 217.429C41.8814 217.505 40.6117 217.392 39.085 216.967ZM48.2941 216.315C52.3969 214.681 55.9336 211.16 58.2466 206.405C59.0023 204.851 59.6203 203.505 59.6203 203.413C59.6203 203.321 57.5888 203.159 55.1076 203.055C50.2491 202.853 45.3356 202.113 40.5719 200.871C38.929 200.442 37.4727 200.091 37.3319 200.091C37.1943 200.091 37.2126 200.95 37.3748 202.003C37.5339 203.055 37.6807 206.638 37.696 209.97L37.7266 216.021L39.4185 216.493C40.3486 216.75 41.2481 217.019 41.4163 217.089C42.2546 217.435 46.7521 216.93 48.2941 216.315ZM36.8485 213.017C37.0566 210.836 36.5915 201.697 36.1969 200.241C36.0745 199.794 35.3402 199.387 33.5229 198.754C29.0315 197.193 22.6494 193.904 18.9719 191.261C17.0597 189.884 15.5881 189.003 15.7013 189.3C15.8176 189.597 16.1878 190.667 16.5213 191.677C17.4728 194.535 20.3059 200.253 22.1293 202.994C25.2378 207.666 29.5149 211.652 34.2327 214.278C35.3218 214.883 36.307 215.382 36.4171 215.385C36.5303 215.385 36.7231 214.32 36.8485 213.017ZM67.8779 201.914C75.034 200.231 79.608 198.484 85.5923 195.15C89.5115 192.965 96.1506 188.703 96.4902 188.156C96.9186 187.461 95.8661 187.963 93.0483 189.795C81.3733 197.386 72.0296 201.128 62.2974 202.11C60.4127 202.3 59.9691 202.48 60.3791 202.89C60.63 203.141 65.161 202.554 67.8779 201.914ZM60.1741 201.78C60.2261 201.728 60.4647 200.467 60.7064 198.977C61.8996 191.631 60.7217 182.07 57.6347 174.054C56.8025 171.897 55.4992 169.009 55.1932 168.651C55.1565 168.605 53.6941 169.254 51.941 170.089C46.336 172.769 40.5536 174.464 32.5958 175.768C31.6413 175.921 31.4638 176.055 31.6474 176.474C31.7728 176.759 32.5316 179.136 33.3362 181.758C34.6335 185.98 35.1199 188.146 36.7384 196.86L37.1331 198.98L39.7336 199.687C46.4217 201.504 52.1337 202.278 57.0197 202.027C58.7025 201.939 60.1221 201.828 60.1741 201.78ZM35.9062 197.72C34.3581 188.569 33.6942 185.69 31.7545 179.711L30.5521 176.009L25.8864 175.841C21.1533 175.67 16.4662 174.871 14.6305 173.926C14.1502 173.675 13.6821 173.473 13.5903 173.473C13.3241 173.473 13.4128 177.992 13.7218 180.388C13.8779 181.581 14.2358 183.569 14.5173 184.805C15.0986 187.36 15.3311 187.626 19.7919 190.83C22.9156 193.069 28.6063 196.003 32.6968 197.481C34.2969 198.059 35.7043 198.536 35.8267 198.546C35.946 198.555 35.9827 198.182 35.9062 197.72ZM98.0016 182.805C98.9164 176.184 98.69 176.597 104.846 170.291C111.947 163.013 115.416 158.965 116.45 156.759C117.182 155.196 117.292 154.587 117.292 152.057C117.292 149.444 117.2 148.964 116.38 147.314C115.315 145.176 111.684 141.232 109.38 139.718C106.987 138.142 104.607 137.371 102.141 137.371C98.0322 137.371 95.8477 138.754 88.2266 146.182C85.0294 149.297 80.6941 153.516 78.5892 155.554C74.3793 159.641 73.0086 161.694 72.4365 164.799C71.7298 168.624 73.7735 173.602 77.4449 177.001C81.9668 181.189 87.3668 182.676 91.8184 180.957C92.1825 180.819 92.415 180.932 92.5527 181.321C92.7607 181.905 96.2241 186.308 96.7809 186.693C97.3255 187.069 97.4815 186.568 98.0016 182.805ZM29.7781 174.314C29.3099 172.766 27.0551 168.232 25.2806 165.28C23.8946 162.976 23.2675 162.184 22.9248 162.315C22.6678 162.413 20.8015 162.979 18.7822 163.573C16.7599 164.166 15.0741 164.683 15.0374 164.72C14.5754 165.179 13.3516 172.488 13.7035 172.681C14.3246 173.023 18.1581 174.106 19.694 174.373C22.7535 174.902 22.9401 174.917 26.5228 174.96C29.9769 175.003 29.983 175.003 29.7781 174.314ZM34.3795 174.526C40.3578 173.773 54.0918 168.979 54.3672 167.55C54.4865 166.929 52.1766 163.089 50.0686 160.409C47.1712 156.719 41.5418 152.115 41.1563 153.118C40.8442 153.929 31.1732 158.968 26.1189 160.951C25.1093 161.345 24.2404 161.694 24.1914 161.725C24.1394 161.752 24.7085 162.722 25.4519 163.879C27.0276 166.323 29.1631 170.352 30.3441 173.115C31.1181 174.926 31.2252 175.04 32.0115 174.887C32.4704 174.795 33.5382 174.633 34.3795 174.526ZM57.7296 166.54C63.3774 163.114 67.3272 160.109 72.0082 155.679C75.2604 152.601 80.5931 146.21 84.8061 140.345C88.1287 135.725 95.8141 124.105 96.3954 122.826C96.8084 121.918 96.4076 121.379 95.9151 122.181C95.0798 123.548 85.8646 137.396 84.6898 139.054C77.5612 149.104 71.7145 155.499 64.8184 160.792C61.817 163.095 60.7156 163.851 56.6373 166.409C55.7531 166.966 55.0311 167.541 55.0311 167.691C55.0311 168.137 55.2636 168.036 57.7296 166.54ZM22.3496 161.302C22.6861 160.966 19.0607 157.472 18.5436 157.631C18.1092 157.769 16.0226 161.593 15.7136 162.814L15.5116 163.631L18.7975 162.597C20.6057 162.031 22.2058 161.446 22.3496 161.302ZM27.8016 159.185C32.3021 157.261 40.9513 152.73 40.9544 152.292C40.9605 151.864 37.8306 150.484 35.5238 149.894C29.931 148.465 25.3326 149.808 21.1472 154.103C19.9265 155.355 18.9291 156.478 18.9291 156.6C18.9291 156.719 19.3329 157.059 19.8255 157.35C20.3212 157.64 21.3186 158.558 22.0437 159.387C23.5673 161.128 23.2307 161.137 27.8016 159.185ZM46.18 150.564C57.497 143.095 64.6777 136.056 74.8199 122.484C77.8855 118.381 90.4753 99.7271 94.4618 93.3787C95.2756 92.0815 98.534 87.0945 101.701 82.3003C107.743 73.1494 111.326 67.4281 111.326 66.9386C111.326 66.7764 111.2 66.6908 111.044 66.7489C110.775 66.8468 104.307 76.4995 94.3241 91.7143C77.4724 117.387 75.4256 120.373 70.0501 127.122C61.5692 137.769 55.2758 143.661 45.3937 150.206C41.4072 152.846 41.6244 152.669 42.3801 152.669C42.7136 152.669 44.4238 151.72 46.18 150.564ZM99.8863 184.922C99.7822 184.656 99.6996 184.395 99.6996 184.347C99.6996 184.298 100.835 183.178 102.224 181.859C107.939 176.425 111.154 172.886 118.222 164.258C120.021 162.061 122.805 158.411 126.489 153.433C128.257 151.044 136.264 139.051 143.585 127.829C148.636 120.085 152.846 114.015 156.175 109.683C159.647 105.164 160.198 104.573 160.84 104.696C162.015 104.922 161.462 106.088 157.962 110.754C152.754 117.699 146.394 127.174 135.679 143.946C125.733 159.522 111.515 176.936 103.126 183.823C101.144 185.451 100.211 185.766 99.8863 184.922ZM102.973 183.303C105.632 181.07 112.305 174.128 115.946 169.802C123.267 161.104 129.735 152.32 135.386 143.398C137.007 140.841 138.916 137.855 139.626 136.759C140.339 135.664 142.569 132.222 144.582 129.11C149.248 121.902 155.468 113.005 158.69 108.936C160.066 107.195 161.195 105.65 161.195 105.507C161.195 104.971 160.33 105.274 159.874 105.969C159.614 106.366 159.213 106.883 158.983 107.116C157.218 108.906 150.805 117.953 144.726 127.223C136.64 139.556 128.037 152.335 125.617 155.606C123.23 158.83 115.701 168.425 114.902 169.257C114.694 169.471 113.724 170.612 112.745 171.79C110.711 174.241 102.413 182.701 101.153 183.615C100.691 183.949 100.312 184.353 100.312 184.509C100.312 185.154 101.3 184.708 102.973 183.303ZM143.885 162.049C143.677 161.507 144.191 160.452 146.439 156.799C156.784 139.993 164.769 128.107 172.222 118.414C178.463 110.298 188.945 99.2009 196.38 92.8402C200.182 89.588 206.13 85.0049 210.049 82.3033L212.861 80.3697L211.181 79.3571C210.254 78.8002 208.936 77.9007 208.247 77.3561C206.641 76.0803 203.753 72.4457 202.333 69.9063C201.721 68.814 201.082 67.9207 200.908 67.9207C200.556 67.9207 193.173 72.6812 192.301 73.4706C191.769 73.954 191.821 73.9968 193.311 74.315C195.914 74.8749 197.854 76.1966 197.328 77.0502C197.129 77.3684 196.695 77.3225 195.15 76.8146C192.84 76.0559 189.673 75.9855 187.792 76.6463C186.62 77.0624 186.421 77.0624 186.014 76.6555C185.607 76.2486 185.665 76.0436 186.54 74.829C188.171 72.5527 188.715 71.0414 188.725 68.762C188.731 66.3726 189.245 66.0177 190.264 67.6912C190.931 68.7835 191.041 70.1908 190.56 71.4544C190.15 72.5344 190.276 72.4793 194.59 69.6554C196.526 68.3857 198.616 67.1069 199.234 66.8131C200.482 66.2196 200.571 65.8463 199.907 63.9739C199.038 61.508 198.46 57.9284 198.264 53.7736L198.062 49.5668L195.293 50.8732C184.548 55.9458 174.079 63.2764 164.98 72.103C161.342 75.6306 153.075 84.4909 150.261 87.8839C148.226 90.3314 147.666 90.6588 147.146 89.6889C146.767 88.9791 147.061 88.5416 150.447 84.7479C159.981 74.0703 165.286 68.71 171.194 63.7873C178.365 57.8091 188.015 51.8737 195.615 48.7591C196.961 48.2084 198.154 47.5781 198.267 47.3609C198.38 47.1406 198.693 45.4977 198.965 43.7048C200.1 36.2091 203.217 28.6154 207.449 23.041C209.309 20.5904 209.315 20.572 208.532 20.676C208.159 20.725 206.409 20.9269 204.64 21.1227C200.534 21.5786 194.792 22.7228 191.558 23.7294C189.058 24.5065 187.813 24.5065 187.813 23.7294C187.813 22.319 199.457 19.5777 207.547 19.079L210.912 18.874L213.556 16.3958C216.389 13.7432 218.472 12.3481 221.535 11.0601C223.242 10.338 223.848 10.2493 226.974 10.2585C231.175 10.2677 232.763 10.7816 236.223 13.2568C241.198 16.815 244.775 23.5275 246.313 32.1889C246.873 35.3218 246.987 37.1453 246.999 43.1388C247.011 49.5821 246.941 50.659 246.304 53.5044C244.374 62.1199 240.898 68.6855 235.388 74.1253C229.789 79.6508 223.119 82.3248 217.218 81.4069L214.99 81.0612L210.511 84.2033C197.925 93.0299 188.422 102.144 176.456 116.873C170.086 124.714 163.334 134.29 154.015 148.691C149.352 155.896 148.728 156.851 146.941 159.522C145.124 162.239 144.24 162.97 143.885 162.049ZM145.311 161.149C145.577 160.776 147.914 157.166 150.506 153.127C166.981 127.443 176.851 114.315 189.34 101.459C195.737 94.8717 203.652 88.2908 213.045 81.7465C213.843 81.1897 214.418 80.6573 214.323 80.5625C214.033 80.2688 209.967 82.9673 204.793 86.8834C185.01 101.853 171.711 117.588 151.053 150.469C150.068 152.035 149.263 153.384 149.263 153.464C149.263 153.547 149.123 153.779 148.951 153.981C148.327 154.721 144.368 161.253 144.368 161.547C144.368 162.049 144.8 161.865 145.311 161.149ZM152.513 84.5184C158.812 77.4265 167.648 68.5999 172.21 64.8398C177.698 60.3148 185.974 54.9515 192.531 51.6779C197.888 49.0008 199.029 48.3399 198.304 48.3399C197.668 48.3399 192.879 50.5091 188.764 52.6569C177.45 58.5648 166.907 67.2507 155.502 80.0607C152.996 82.8724 150.148 86.0451 149.175 87.1098C148.199 88.1745 147.483 89.1811 147.584 89.3432C147.688 89.5084 147.813 89.6431 147.865 89.6431C147.917 89.6431 150.007 87.3362 152.513 84.5184ZM225.215 80.3177C226.014 80.0301 226.668 79.7456 226.668 79.6844C226.668 79.6263 226.066 78.7084 225.328 77.6499C222.703 73.8714 221.158 69.8206 220.403 64.7419C220.158 63.0775 219.91 61.6701 219.852 61.6151C219.626 61.3887 215.627 62.1719 212.463 63.0622C209.177 63.9862 203.888 66.0881 202.508 67.0151C201.596 67.63 201.752 68.1043 203.998 71.5125C207.14 76.2823 211.022 79.3051 215.688 80.6115C217.839 81.2142 223.172 81.049 225.215 80.3177ZM229.829 77.9681C232.188 76.5974 236.318 72.8036 238.457 70.0409C239.693 68.4439 241.66 65.3354 241.66 64.9805C241.66 64.6103 236.912 62.6706 234.568 62.0832C232.656 61.6028 230.637 61.404 226.439 61.2755C223.288 61.1806 220.855 61.2265 220.859 61.3795C220.859 61.5263 221.057 62.9551 221.299 64.5552C222.064 69.5912 223.477 73.3115 226.155 77.3286C226.855 78.3811 227.473 79.2408 227.531 79.2408C227.586 79.2408 228.62 78.6687 229.829 77.9681ZM196.545 76.1935C195.832 75.4073 193.562 74.673 191.582 74.5873C190.713 74.5506 190.059 74.4282 190.129 74.312C190.294 74.0427 199.965 67.63 200.534 67.4097C201.033 67.2201 201.122 66.6969 200.657 66.6969C200.348 66.6969 193.935 70.714 191.056 72.7088C190.233 73.2809 189.517 73.7031 189.465 73.6511C189.413 73.5991 189.566 73.0117 189.802 72.3447C190.49 70.4142 190.248 67.6606 189.367 67.3669C189.116 67.2843 189.037 67.3669 189.165 67.575C189.282 67.7646 189.382 68.5938 189.389 69.4168C189.404 71.179 188.529 73.339 187.177 74.878C186.467 75.6887 186.329 76.0192 186.623 76.2027C186.837 76.3343 187.287 76.3006 187.617 76.1232C187.948 75.9457 189.33 75.7377 190.692 75.6612C192.659 75.5511 193.513 75.649 194.85 76.1354C196.998 76.9186 197.206 76.9248 196.545 76.1935ZM204.114 65.1794C207.767 63.4936 212.644 61.9118 216.591 61.1317L219.938 60.4708V58.6107C219.938 56.2549 220.727 49.4597 221.275 47.0886L221.691 45.2805H219.733C215.198 45.2805 207.593 46.5471 201.887 48.2512L198.98 49.1201L199.02 54.0061C199.054 58.1823 199.173 59.3205 199.831 61.8017C200.62 64.7664 201.168 66.3909 201.379 66.3909C201.443 66.3909 202.673 65.8464 204.114 65.1794ZM243.618 60.8074C244.735 57.7907 245.634 54.6517 246.069 52.25L246.274 51.1149L244.401 50.1695C239.457 47.673 229.346 45.3202 223.425 45.2866L222.48 45.2805L221.969 48.2635C221.314 52.1062 220.862 56.2854 220.859 58.5128L220.855 60.272H225.252C231.478 60.272 237.221 61.407 240.742 63.3314C241.33 63.6527 241.957 63.925 242.134 63.9311C242.312 63.9372 242.979 62.5329 243.618 60.8074ZM246.662 48.1105C246.916 45.4304 246.913 41.2878 246.659 38.8555L246.457 36.9281L243.434 33.789C239.359 29.5577 235.541 26.7277 231.674 25.0695L230.337 24.4973L229.073 27.0092C227.17 30.7938 225.264 35.7195 223.961 40.2292L222.792 44.2708L226.641 44.641C233.078 45.259 240.485 47.1773 244.414 49.2425C245.341 49.729 246.179 50.1359 246.283 50.1512C246.384 50.1634 246.555 49.2456 246.662 48.1105ZM202.737 47.1345C208.018 45.513 215.202 44.3626 220.051 44.3626H221.935L222.654 41.5326C223.64 37.6409 225.787 31.7881 227.767 27.5874C228.679 25.6538 229.382 24.0292 229.327 23.9742C229.052 23.6988 222.498 21.7071 220.528 21.3002C216.832 20.5414 211.481 20.0335 210.603 20.3609C208.679 21.0799 203.563 29.6648 201.486 35.6584C200.461 38.6169 199.396 43.3132 198.962 46.7796C198.781 48.2359 198.818 48.4103 199.262 48.239C199.537 48.1319 201.103 47.6363 202.737 47.1345ZM246.041 33.119C244.842 26.6635 243.431 22.7381 241.024 19.1524C239.329 16.6283 237.147 14.3918 236.829 14.8477C236.71 15.019 235.847 16.1878 234.911 17.4452C233.124 19.8469 230.808 23.5336 230.995 23.6805C231.056 23.7263 232.295 24.3903 233.751 25.1551C235.208 25.9231 237.416 27.3029 238.662 28.2238C240.923 29.8943 244.704 33.5014 245.561 34.8017C246.359 36.0163 246.494 35.5482 246.041 33.119ZM191.79 23.0839C194.856 22.1813 203.453 20.6087 206.935 20.312C210.383 20.0213 211.148 19.6236 208.312 19.5991C203.802 19.5624 189.857 22.3832 188.593 23.5856C188.113 24.0445 189.015 23.9038 191.79 23.0839ZM230.533 22.4108C232.117 19.8041 233.815 17.329 235.091 15.7594L236.538 13.9849L235.81 13.4281C230.569 9.43547 224.047 9.51501 217.762 13.6514C215.746 14.9762 211.371 18.8159 211.371 19.2595C211.371 19.3849 212.919 19.5746 214.813 19.6756C218.622 19.8836 223.373 20.8841 227.127 22.2731C230.202 23.4112 229.93 23.399 230.533 22.4108ZM121.003 144.555C120.899 144.282 120.969 143.759 121.162 143.392C121.505 142.747 125.191 137.292 127.822 133.547L129.111 131.711L127.33 131.631C125.084 131.534 124.176 131.329 124.176 130.919C124.176 130.38 125.054 129.68 125.626 129.759C126.697 129.909 128.954 129.322 130.708 128.44C133.131 127.223 133.317 127.342 132.938 129.872C132.644 131.833 132.721 132.562 133.553 135.765C133.697 136.316 133.605 136.453 133.097 136.453C132.28 136.453 131.298 135.398 131.047 134.253C130.94 133.764 130.711 133.409 130.536 133.467C130.365 133.522 128.477 136.111 126.345 139.219C122.502 144.812 121.489 145.821 121.003 144.555ZM125.078 140.109C126.412 138.182 128.303 135.447 129.279 134.03L131.059 131.454L131.243 132.653C131.469 134.119 131.974 135.404 132.436 135.688C133.021 136.049 133.039 135.731 132.528 133.993C132.121 132.611 132.094 131.983 132.372 130.343C132.559 129.254 132.666 128.318 132.608 128.263C132.552 128.208 131.677 128.596 130.662 129.129C129.34 129.82 128.245 130.142 126.801 130.258C124.638 130.429 124.209 130.772 125.733 131.105C126.99 131.381 129.037 131.053 130.408 130.356C131.02 130.044 131.518 129.839 131.518 129.897C131.518 129.958 130.934 130.683 130.218 131.506C129.502 132.332 127.816 134.605 126.47 136.563C125.124 138.518 123.432 140.951 122.71 141.97C121.988 142.985 121.489 143.964 121.599 144.142C121.887 144.607 122.303 144.123 125.078 140.109ZM72.4793 142.955C72.4855 142.661 74.4894 139.803 76.934 136.606C84.8519 126.25 84.087 127.134 84.65 127.697C85.0477 128.095 85.0814 128.364 84.8275 129.034C84.5429 129.777 78.8584 137.542 76.8177 139.972L76.0467 140.89L77.7019 141.042C80.3025 141.284 79.8864 141.939 76.6005 142.774C73.2136 143.637 72.4671 143.668 72.4793 142.955ZM75.7194 142.422C76.8146 142.168 78.0537 141.96 78.4729 141.96C78.9624 141.96 79.1613 141.838 79.0236 141.615C78.8798 141.382 78.1639 141.327 76.8728 141.449L74.9361 141.63L79.2561 135.921C83.8484 129.851 84.9651 128.193 84.4481 128.193C84.1605 128.193 79.663 133.819 77.2124 137.24C75.4777 139.663 73.7858 141.807 73.2809 142.227C72.6415 142.759 72.6231 143.31 73.2534 143.065C73.5165 142.964 74.6271 142.676 75.7194 142.422ZM69.5239 142.202C69.3984 142 69.325 141.275 69.3587 140.596C69.3923 139.917 69.2302 138.653 68.9946 137.787C68.759 136.924 68.6703 136.052 68.7957 135.847C69.1629 135.251 70.1419 136.052 70.7446 137.445L71.2739 138.662L73.1708 135.933C76.0192 131.836 79.7732 127.048 80.2933 126.85C81.0949 126.544 81.1499 127.578 80.4095 128.905C79.7824 130.025 73.4156 138.849 71.2647 141.578C70.4417 142.624 69.9033 142.817 69.5239 142.202ZM71.69 140.189C72.357 139.228 74.5292 136.257 76.5179 133.587C80.4738 128.281 81.0276 127.431 80.3881 127.645C79.9353 127.795 77.0013 131.561 73.2932 136.747C70.9833 139.978 70.7813 140.183 70.7018 139.348C70.5978 138.243 69.7197 136.147 69.3648 136.147C69.013 136.147 69.0405 136.401 69.5545 137.83C69.7962 138.503 70.0012 139.709 70.0103 140.507C70.0165 141.306 70.1266 141.954 70.252 141.948C70.3775 141.942 71.0261 141.15 71.69 140.189ZM149.683 140.593C149.474 140.051 150.077 139.035 153.574 134.006C156.542 129.738 158.601 127.275 159.198 127.275C159.779 127.275 159.95 128.287 159.779 130.747C159.574 133.709 159.424 134.312 158.901 134.312C158.488 134.312 158.277 133.847 157.989 132.305C157.928 131.977 157.867 131.665 157.854 131.607C157.839 131.549 156.71 133.063 155.346 134.972C151.05 140.969 150.166 141.847 149.683 140.593ZM154.51 135.153L158.289 129.875L158.442 131.558C158.681 134.168 159.194 133.565 159.295 130.564C159.344 129.092 159.274 127.887 159.139 127.887C158.549 127.887 149.829 140.051 150.089 140.513C150.328 140.932 150.677 140.507 154.51 135.153ZM146.51 138.61C146.51 138.017 149.343 133.507 152.308 129.374C152.99 128.428 153.547 127.547 153.547 127.422C153.547 127.296 153.002 127.266 152.338 127.357C151.552 127.461 150.94 127.37 150.579 127.091C150.053 126.681 150.059 126.635 150.698 126.094C151.068 125.779 151.904 125.436 152.558 125.332C154.055 125.093 155.618 124.053 156.542 122.679C157.359 121.471 157.989 121.03 158.475 121.33C159.011 121.661 158.552 123.144 157.23 125.369C155.829 127.731 150.747 135.254 149.025 137.524C147.761 139.191 146.51 139.73 146.51 138.61ZM151.65 132.858C156.334 126.057 158.225 122.915 158.084 122.178C158.007 121.783 157.668 122.074 156.817 123.255C155.609 124.94 154.474 125.62 152.222 126.002C151.546 126.118 150.934 126.397 150.857 126.623C150.747 126.954 151.056 126.993 152.363 126.828C153.265 126.712 154.256 126.547 154.562 126.461C154.917 126.36 153.816 128.235 151.54 131.607C149.569 134.526 147.77 137.129 147.541 137.396C147.058 137.952 146.987 138.595 147.412 138.595C147.571 138.595 149.478 136.013 151.65 132.858ZM113.48 137.689C112.843 137.288 113.372 136.285 117.543 129.94C119.446 127.042 121.385 124.019 121.853 123.221C122.404 122.282 122.912 121.768 123.297 121.768C124.24 121.768 124.31 122.597 123.499 124.157C122.064 126.92 114.56 137.989 114.125 137.977C114.015 137.977 113.724 137.845 113.48 137.689ZM115.135 136.059C117.515 132.653 122.322 125.311 122.97 124.09C123.371 123.334 123.579 122.609 123.435 122.471C123.291 122.337 123.12 122.373 123.056 122.554C122.992 122.735 120.874 125.996 118.356 129.805C115.835 133.614 113.773 136.872 113.773 137.05C113.773 137.674 114.244 137.331 115.135 136.059ZM21.5786 137.194C18.2621 136.389 15.0986 134.455 11.8617 131.255C10.2463 129.655 8.33102 127.464 7.60898 126.384C4.69023 122.022 1.83266 114.446 0.734305 108.162C-1.82955 93.4521 2.48739 77.2185 11.0784 69.2668C14.193 66.3787 18.3906 64.5552 21.909 64.5552C26.2199 64.5552 31.7453 67.4679 35.8573 71.9103C39.6235 75.9763 42.0894 80.3697 44.1882 86.7365L45.4977 90.7139H66.6418C85.1059 90.7139 87.8257 90.772 88.0797 91.1728C88.2388 91.4267 88.3244 91.7694 88.2724 91.9377C88.2082 92.1365 80.7828 92.2712 67.0151 92.3232C55.3768 92.366 45.8526 92.5037 45.8526 92.6291C45.8526 92.7546 46.0606 94.0273 46.3115 95.4561C46.5624 96.8849 46.7705 98.8154 46.7735 99.7394C46.7766 100.663 46.8622 101.933 46.9663 102.557L47.1529 103.695L61.4958 103.711C69.3831 103.72 75.8356 103.668 75.8356 103.597C75.8356 103.527 75.2512 103.12 74.5353 102.695C73.8194 102.273 72.5681 101.33 71.7542 100.602C70.5825 99.5527 70.2673 99.0663 70.2245 98.2433C70.197 97.6712 70.3408 97.1449 70.5396 97.0746C70.7385 97.0042 71.7512 97.7262 72.7884 98.6808C74.517 100.269 75.7805 100.994 79.9139 102.765C81.8659 103.6 81.7251 104.197 79.3387 105.219C76.5362 106.418 74.4435 107.89 72.7149 109.879C71.1668 111.659 70.454 112.045 70.1541 111.264C69.8665 110.521 70.6222 109.193 72.3661 107.364L74.0917 105.552H47.1039L46.951 106.547C46.8684 107.094 46.7154 108.434 46.6114 109.53C46.2228 113.672 44.4636 120.223 42.839 123.585C42.478 124.332 42.1812 125.02 42.1812 125.115C42.1812 125.326 58.1793 125.145 58.3935 124.931C58.4791 124.846 58.3414 124.616 58.0906 124.42C56.9891 123.561 55.643 121.685 55.643 121.009C55.643 119.773 56.1294 119.868 57.7142 121.422C59.143 122.82 63.1387 125.133 64.13 125.133C64.4145 125.133 64.5124 125.311 64.3962 125.617C64.2921 125.883 64.2095 126.152 64.2095 126.213C64.2095 126.277 63.5793 126.608 62.8083 126.947C61.3214 127.605 58.0967 130.041 56.9463 131.375C56.2029 132.234 56.0132 132.298 55.3799 131.898C54.7251 131.482 55.1932 130.6 57.0993 128.664C58.0661 127.682 58.6046 126.966 58.2956 127.076C57.9865 127.186 53.9725 127.275 49.3741 127.275H41.0125L39.6143 129.23C35.0189 135.67 28.0311 138.757 21.5786 137.194ZM29.1172 136.612C32.9324 135.456 37.1881 132.112 39.8376 128.187L40.9666 126.51L39.6633 126.43C36.4171 126.232 29.7872 125.329 26.5778 124.653C24.6442 124.246 22.8911 123.912 22.6831 123.912C22.4781 123.909 21.6367 125.268 20.8137 126.929C19.3268 129.933 17.8522 132.326 16.7079 133.602L16.1082 134.269L18.0541 135.257C19.1249 135.799 20.6179 136.417 21.3767 136.628C23.2766 137.157 27.3488 137.151 29.1172 136.612ZM18.3662 129.624C19.7246 127.315 21.5113 123.622 21.3369 123.487C21.2757 123.438 19.8133 122.958 18.0939 122.422C14.1043 121.174 10.7419 119.736 6.69113 117.543C4.92581 116.585 3.37159 115.756 3.24309 115.698C2.62201 115.422 6.39742 123.68 7.93329 125.953C9.54564 128.336 11.5527 130.591 13.5352 132.24L15.3862 133.779L16.2612 132.745C16.7416 132.176 17.69 130.772 18.3662 129.624ZM58.0936 129.609C59.2685 128.499 60.9634 127.278 62.019 126.779C63.0378 126.293 63.8791 125.806 63.8883 125.693C63.8975 125.58 63.5028 125.399 63.0133 125.292C61.7803 125.023 58.7789 123.175 57.4083 121.844C56.7811 121.235 56.1815 120.822 56.0774 120.926C55.6338 121.37 59.3327 125.133 60.2139 125.133C60.3913 125.133 60.5382 125.271 60.5382 125.439C60.5382 125.635 57.237 125.745 51.2434 125.745C43.0991 125.745 41.8998 125.806 41.5448 126.235C41.1716 126.681 41.9395 126.712 50.4541 126.596C55.5818 126.525 60.0486 126.363 60.3852 126.238C60.7217 126.112 60.5137 126.391 59.9263 126.856C58.4914 127.991 55.643 130.934 55.643 131.28C55.643 131.815 56.0438 131.543 58.0936 129.609ZM42.1414 123.986C44.1454 120.012 45.9199 113.219 46.336 107.924L46.5502 105.246H26.0394L25.8221 107.924C25.4122 113.036 24.5188 117.377 22.7932 122.652C22.6341 123.132 31.0722 124.686 36.9801 125.268C39.2533 125.491 41.1441 125.69 41.1838 125.711C41.2236 125.73 41.655 124.953 42.1414 123.986ZM22.6831 120.009C23.9069 115.86 25.0481 109.221 25.0481 106.25V105.246H0.819972L1.02802 106.853C1.26666 108.698 2.28241 113.024 2.7138 114.043C2.87595 114.422 3.16049 114.731 3.34711 114.731C3.5368 114.731 4.05692 114.991 4.5036 115.306C6.41272 116.664 12.6908 119.559 16.9404 121.046C19.4645 121.93 21.6123 122.658 21.7132 122.667C21.8111 122.676 22.2486 121.48 22.6831 120.009ZM73.1739 108.777C74.9575 106.966 75.9672 106.232 78.0752 105.222C79.5345 104.518 80.7308 103.857 80.7308 103.75C80.7308 103.643 80.0088 103.298 79.1276 102.985C76.1569 101.93 74.2539 100.871 72.5834 99.3417C70.8701 97.7783 70.1664 97.6039 71.0567 98.9623C71.8216 100.128 74.5476 102.181 76.5454 103.096L78.326 103.909L77.0105 104.503C75.4838 105.191 72.8006 107.458 71.534 109.129C70.7354 110.181 70.3958 111.059 70.7813 111.059C70.8609 111.059 71.9378 110.032 73.1739 108.777ZM75.3522 104.754C75.6184 104.653 75.8356 104.482 75.8356 104.371C75.8356 104.264 69.3403 104.176 61.404 104.176C50.1328 104.176 46.9479 104.258 46.8469 104.558C46.746 104.861 49.6708 104.941 60.7921 104.941C68.5357 104.941 75.086 104.858 75.3522 104.754ZM24.9257 99.8159C24.8064 97.3346 24.5433 94.2843 24.3444 93.036L23.9773 90.769L21.0707 90.1785C14.7621 88.8966 8.61249 86.501 5.21646 83.9983C4.18847 83.2426 3.29204 82.7256 3.21861 82.8449C2.94632 83.2977 1.80819 87.7492 1.32479 90.255C0.813854 92.8831 0.333515 102.958 0.673118 103.848C0.838331 104.274 2.24263 104.329 12.9998 104.329H25.1429L24.9257 99.8159ZM46.3697 100.581C46.1708 96.6524 45.6537 93.0911 45.204 92.519C45.0327 92.3048 42.5269 92.1121 38.2804 91.9897C34.6212 91.8826 30.1115 91.5981 28.2605 91.3564C26.4095 91.1177 24.8645 90.9495 24.8278 90.9862C24.788 91.0229 24.889 91.5277 25.045 92.109C25.4305 93.5133 25.9659 99.3447 25.9659 102.11V104.329H46.5563L46.3697 100.581ZM87.7676 91.7847C87.7676 91.5828 80.4707 91.4788 66.4858 91.4788C52.3754 91.4788 45.2682 91.5828 45.3937 91.7847C45.5161 91.9836 52.9445 92.0907 66.6755 92.0907C80.5319 92.0907 87.7676 91.9866 87.7676 91.7847ZM44.9348 90.876C44.9348 90.7139 44.4024 88.9547 43.7477 86.966C40.4128 76.8085 34.456 69.2913 27.3549 66.2839C22.7351 64.3227 17.2739 65.0448 13.1895 68.1563L12.1921 68.915L14.242 70.7874C18.3814 74.5781 21.958 80.5044 23.6529 86.3878C24.0843 87.8808 24.4362 89.2759 24.4362 89.4901C24.4362 89.9368 25.2163 90.102 29.4843 90.5487C35.4167 91.1728 44.9348 91.3717 44.9348 90.876ZM23.3501 88.6487C22.9095 86.6172 21.5664 82.9917 20.3824 80.6176C18.6354 77.1236 16.5488 74.2324 13.8718 71.5921L11.5435 69.2975L10.1392 70.8272C9.36513 71.6686 8.05873 73.3849 7.23572 74.6393C5.81306 76.8085 3.63164 81.049 3.63164 81.6425C3.63164 82.0586 8.10768 84.907 10.3625 85.9227C12.7734 87.0088 16.6957 88.2755 19.9999 89.0312C23.555 89.845 23.6101 89.8389 23.3501 88.6487ZM104.671 126.461C104.145 126.247 104.188 125.393 104.895 122.043C105.644 118.491 105.656 117.824 104.977 117.573C103.79 117.13 101.171 114.933 100.036 113.424C98.0812 110.824 97.4417 108.532 97.4234 104.023C97.405 100.088 97.7293 98.485 99.1061 95.7467C99.9505 94.061 102.239 91.6929 103.888 90.7934C106.528 89.3585 107.428 89.2882 123.206 89.3188C137.304 89.3463 138.081 89.3769 139.88 89.9796C143.435 91.1728 145.054 92.4578 146.84 95.5081C148.324 98.0352 149.009 100.893 148.991 104.479C148.967 110.056 147.088 113.99 143.236 116.542C140.593 118.295 139.849 118.387 128.165 118.411L117.533 118.433L115.413 119.898C114.248 120.703 111.653 122.554 109.649 124.013C106.198 126.522 105.58 126.828 104.671 126.461ZM108.355 124.267C109.903 123.117 112.412 121.293 113.926 120.213L116.68 118.249L127.847 118.09C138.54 117.937 139.088 117.901 140.743 117.237C145.794 115.214 148.416 110.87 148.437 104.482C148.465 95.8691 144.359 90.769 136.719 89.9276C133.599 89.5849 111.029 89.588 108.652 89.9307C105.026 90.4569 101.538 92.7026 99.8312 95.6183C97.4387 99.7027 97.2429 107.149 99.4182 111.414C100.367 113.275 102.557 115.468 104.454 116.46C106.403 117.478 106.363 117.27 105.491 122.04C104.916 125.191 104.882 126.357 105.363 126.357C105.458 126.357 106.804 125.418 108.355 124.267ZM168.918 106.706C168.535 105.819 168.091 104.607 167.926 104.01C167.633 102.949 167.599 102.93 166.017 102.927C164.261 102.921 161.302 101.759 160.014 100.562C158.98 99.6048 157.108 96.7503 156.505 95.2205C155.753 93.2992 155.847 90.7353 156.744 88.8139C157.631 86.9048 159.507 85.0508 164.353 81.2845C172.739 74.7739 173.905 74.1559 177.322 74.4282C179.736 74.621 181.339 75.5388 183.686 78.0751C185.931 80.4982 186.987 82.7255 187.143 85.3751C187.369 89.1535 186.084 90.8179 178.665 96.3709L174.103 99.7853L173.446 102.441C172.595 105.886 171.408 108.125 170.374 108.236C169.716 108.306 169.514 108.095 168.918 106.706ZM171.607 106.241C171.983 105.442 172.583 103.57 172.941 102.083L173.586 99.3784L176.034 97.6681C179.598 95.1807 183.872 91.7327 184.885 90.5334C186.142 89.0403 186.592 87.7737 186.577 85.7514C186.552 82.8204 185.433 80.5503 182.578 77.6652C180.58 75.6459 179.09 74.9575 176.707 74.9575C175.153 74.9575 174.388 75.1411 172.947 75.8662C171.319 76.6861 169.988 77.6529 163.796 82.5206C157.662 87.3454 156.435 89.0526 156.661 92.4731C157.004 97.6589 161.416 102.236 166.195 102.358L168.024 102.404L168.685 104.362C169.976 108.181 170.524 108.532 171.607 106.241ZM70.2276 88.8262C69.7748 88.3764 70.0899 87.7095 71.4361 86.2684L72.8526 84.7571L52.7365 84.5949V83.0652L62.4503 82.9856C67.7922 82.9397 72.1642 82.7898 72.1642 82.6491C72.1642 82.5083 71.8736 82.132 71.5217 81.8138C70.1847 80.6023 69.7105 78.6289 70.7569 78.6289C70.9588 78.6289 71.6655 79.1888 72.3325 79.871C72.9964 80.5533 74.6087 81.6823 75.9182 82.3798C77.2246 83.0774 78.2465 83.7903 78.1914 83.9677C78.1363 84.1452 77.038 84.8397 75.7499 85.5127C74.4619 86.1858 72.8342 87.2536 72.1336 87.8839C70.8303 89.0587 70.5825 89.1811 70.2276 88.8262ZM72.1336 87.1924C72.9322 86.5193 74.517 85.4975 75.652 84.9253L77.7203 83.8851L75.2512 82.6032C73.8928 81.8964 72.36 80.8348 71.843 80.2474C71.3259 79.6569 70.8242 79.2561 70.7263 79.354C70.4937 79.5835 72.0174 81.615 73.2136 82.6705L74.1529 83.4996L63.6741 83.5118C56.9892 83.521 53.1954 83.6342 53.1954 83.827C53.1954 84.0197 57.2951 84.1574 64.439 84.2094C75.3614 84.2859 75.649 84.3043 74.517 84.8152C72.8832 85.5556 71.6839 86.4581 70.9313 87.5137C70.0562 88.7436 70.402 88.6518 72.1336 87.1924ZM120.192 84.8917C119.883 84.5215 119.88 84.2522 120.171 83.6159C120.926 81.9607 126.216 74.4588 129.765 70.0134L130.659 68.8967L130.034 68.2725C129.251 67.4893 128.942 65.8892 129.163 63.7598C129.319 62.2545 129.049 61.5478 128.679 62.4901C128.597 62.7012 127.452 64.3197 126.14 66.085C124.824 67.8503 122.046 71.8093 119.966 74.881C117.885 77.9527 116.089 80.4615 115.973 80.4585C115.331 80.4462 114.93 79.8557 115.101 79.1735C115.312 78.3352 123.111 66.4521 125.301 63.6282C126.085 62.6216 126.663 61.7374 126.589 61.664C126.513 61.5906 125.907 61.6548 125.237 61.8109C122.542 62.4381 119.755 61.9883 119.95 60.9603C120.033 60.532 120.507 60.3852 122.343 60.2169C124.919 59.9813 127.859 58.8126 129.802 57.2522C131.163 56.1569 131.301 56.1233 131.833 56.7627C132.149 57.1421 132.121 57.7938 131.693 60.2414C131.222 62.9245 131.105 67.9482 131.518 67.9023C131.604 67.8931 132.246 67.1007 132.947 66.1431C134.599 63.8883 138.164 59.7457 142.043 55.5695C143.744 53.743 145.179 52.1215 145.237 51.9716C145.564 51.0996 147.428 51.0048 147.428 51.8614C147.428 52.2194 144.206 56.0743 138.843 62.1352C134.979 66.5011 126.99 76.9156 122.117 83.9371C121.046 85.476 120.786 85.6076 120.192 84.8917ZM122.646 82.2452C127.272 75.3981 134.244 66.5439 141.869 57.8335C144.588 54.7251 146.816 52.0756 146.816 51.944C146.816 51.2893 146.005 52.0297 142.802 55.6062C133.431 66.0728 126.843 74.3487 122.135 81.5752C120.578 83.9647 120.229 84.754 120.734 84.7418C120.859 84.7387 121.719 83.6159 122.646 82.2452ZM118.21 76.5637C120.449 73.1341 124.026 67.9819 127.104 63.7384C128.101 62.3646 129.163 60.7982 129.462 60.2567C129.762 59.7151 130.065 59.3296 130.139 59.4C130.209 59.4704 130.139 60.4188 129.979 61.508C129.563 64.39 129.618 66.2991 130.151 67.3241C130.405 67.8197 130.677 68.2266 130.753 68.2266C130.827 68.2266 130.873 66.8682 130.854 65.21C130.836 63.5517 131.001 61.0766 131.225 59.709C131.445 58.3384 131.54 57.1329 131.433 57.0258C131.326 56.9188 130.799 57.2002 130.264 57.65C128.073 59.4918 123.704 61.0919 121.823 60.7401C121.003 60.5871 120.78 60.636 120.884 60.9389C120.981 61.2265 121.679 61.3397 123.288 61.3275C125.066 61.3153 125.929 61.1378 127.312 60.5045C128.278 60.0578 129.071 59.7549 129.071 59.8283C129.071 59.9048 128.618 60.48 128.061 61.1133C125.647 63.8607 115.609 78.6442 115.609 79.455C115.609 80.3177 116.154 79.712 118.21 76.5637ZM141.997 81.7771C140.963 81.4008 142.175 79.4029 147.798 72.2223C149.435 70.1266 150.738 68.3765 150.689 68.3276C150.643 68.2817 149.716 68.3857 148.633 68.5601C147.357 68.7651 146.409 69.1108 145.947 69.5453C145.179 70.2612 141.921 74.4955 141.921 74.7739C141.921 74.8657 142.367 75.0554 142.915 75.1961C143.597 75.3736 143.909 75.6367 143.909 76.0344C143.909 76.4872 143.426 76.7626 141.679 77.2919C140.452 77.6652 138.971 78.2526 138.39 78.5952C136.986 79.4244 136.294 79.1612 136.551 77.8977C136.658 77.3745 136.879 75.9182 137.044 74.6607C137.209 73.4063 137.487 72.2346 137.662 72.0602C138.173 71.5584 138.861 72.7638 138.867 74.1743L138.873 75.4164L139.494 74.6516C139.837 74.2293 140.458 73.3666 140.874 72.7302C141.293 72.0938 143.435 69.2975 145.638 66.5194C148.297 63.1632 149.811 61.4957 150.138 61.56C151.068 61.7405 150.842 62.7348 149.444 64.6164C148.673 65.6505 148.104 66.5592 148.18 66.6326C148.355 66.8101 151.224 66.1523 152.834 65.5649C153.537 65.3109 154.256 65.1916 154.434 65.3018C154.636 65.4241 154.694 66.1676 154.587 67.2476C154.468 68.4561 154.565 69.4076 154.905 70.3499C155.355 71.5921 155.355 71.7512 154.911 72.1856C154.471 72.6201 154.37 72.5925 153.813 71.9164C153.476 71.5064 153.124 70.7782 153.027 70.2979C152.932 69.8176 152.699 69.4749 152.513 69.5361C152.228 69.6279 148.639 74.1865 144.022 80.3116C143.001 81.667 142.566 81.9821 141.997 81.7771ZM147.724 74.6271L152.76 67.8962L153.274 69.4718C153.813 71.127 154.77 72.464 154.77 71.5645C154.77 71.3106 154.602 70.9343 154.394 70.7262C154.162 70.4937 154.027 69.4871 154.039 68.0522C154.058 66.0575 153.996 65.779 153.574 65.9687C153.308 66.088 151.864 66.498 150.368 66.8835C148.869 67.2659 147.492 67.7371 147.308 67.9237C147.057 68.1807 147.168 68.2266 147.734 68.1104C152.779 67.0518 152.953 67.0579 151.769 68.3031C150.652 69.478 149.242 71.2708 145.21 76.628C142.493 80.2412 141.817 81.4069 142.456 81.3702C142.581 81.361 144.953 78.3291 147.724 74.6271ZM139.014 77.7111C139.975 77.2062 141.055 76.7871 141.416 76.7779C141.777 76.7718 142.487 76.5638 142.991 76.319C143.885 75.8845 143.857 75.8754 142.025 75.9947L140.137 76.1171L142.025 73.596C143.062 72.207 145.32 69.2179 147.045 66.9539C150.028 63.0377 150.57 62.1077 149.875 62.1077C149.707 62.1077 149.569 62.2208 149.569 62.3616C149.569 62.4993 148.251 64.2554 146.638 66.2624C145.026 68.2664 142.75 71.2372 141.584 72.8587C138.772 76.7687 138.555 76.937 138.552 75.2237C138.546 73.6786 138.283 72.5099 137.94 72.5099C137.809 72.5099 137.634 73.5777 137.552 74.881C137.469 76.1844 137.301 77.5611 137.178 77.9405C136.894 78.8155 136.924 78.8094 139.014 77.7111ZM163.395 57.8458C163.083 57.3318 162.575 56.1692 162.266 55.2666L161.706 53.6206L159.219 53.4646C155.893 53.2596 153.794 52.2592 151.099 49.5943C148.263 46.7949 146.706 43.6406 146.559 40.4006C146.381 36.5303 147.746 34.15 151.983 30.9314C156.01 27.872 167.559 20.4527 169.915 19.4094C170.75 19.0423 171.916 18.8679 173.586 18.8648C175.661 18.8618 176.3 18.9933 177.793 19.7307C181.131 21.3767 184.79 25.9628 185.83 29.8056C186.901 33.7676 185.65 38.2069 182.817 40.477C181.045 41.8967 175.324 45.8312 171.549 48.2267L168.287 50.295L167.948 51.996C167.761 52.9292 167.155 54.7955 166.605 56.1416C165.739 58.2649 165.497 58.6015 164.784 58.6841C164.145 58.7606 163.839 58.577 163.395 57.8458ZM165.733 56.6771C166.501 55.1259 167.137 53.1556 167.749 50.4051C167.853 49.9431 168.095 49.5637 168.284 49.5637C169.015 49.5637 181.318 41.1012 182.939 39.4858C184.943 37.4879 185.671 35.7165 185.671 32.8283C185.671 29.3313 183.94 25.8313 180.467 22.3067C177.31 19.1035 173.213 18.409 169.276 20.4129C167.403 21.3644 159.635 26.2871 155.055 29.4231C149.294 33.3668 147.122 36.1999 147.122 39.7734C147.122 44.2341 150.717 49.7106 155.076 51.8981C156.416 52.5682 157.298 52.767 159.409 52.8711L162.058 53.0026L162.691 54.7251C163.319 56.4292 164.408 58.4363 164.705 58.4363C164.79 58.4363 165.252 57.6439 165.733 56.6771ZM95.3491 183.493C94.7647 182.777 93.9203 181.608 93.4705 180.892C93.0238 180.176 92.6047 179.592 92.5435 179.592C92.4823 179.592 91.849 179.797 91.1331 180.051C88.3612 181.03 83.9983 180.314 80.9542 178.381C79.0297 177.16 76.1385 174.256 75.1472 172.546C73.1157 169.046 72.8985 165.243 74.5384 161.997C75.3063 160.473 76.8697 158.8 83.8331 152.051C88.4377 147.587 92.9351 143.248 93.8315 142.413C99.9322 136.698 105.519 136.983 112.06 143.337C115.67 146.843 117.108 150.75 116.132 154.406C115.355 157.325 113.85 159.253 106.492 166.776C100.29 173.115 99.2468 174.324 98.4606 176.058C97.5641 178.035 96.9645 180.993 96.9522 183.493C96.9492 184.209 96.8237 184.793 96.6769 184.793C96.53 184.793 95.9304 184.209 95.3491 183.493ZM97.3958 177.08C98.1699 174.718 99.0051 173.632 103.356 169.343C109.004 163.771 113.886 158.173 114.905 156.095C116.606 152.632 115.71 148.092 112.66 144.702C110.937 142.786 107.235 140.146 105.338 139.479C102.297 138.411 99.1061 138.931 96.3648 140.948C95.1716 141.826 82.7745 153.626 78.2434 158.197C76.677 159.779 75.5817 161.217 74.9147 162.572C73.9907 164.448 73.9295 164.76 74.0642 166.966C74.1682 168.725 74.4282 169.811 75.0585 171.139C76.0406 173.201 79.3204 176.829 81.1928 177.928C84.3563 179.782 88.6335 180.44 91.026 179.439C92.623 178.772 92.828 178.839 93.703 180.329C94.1375 181.073 94.8718 182.131 95.3337 182.679L96.1751 183.68L96.5361 181.146C96.735 179.751 97.1205 177.922 97.3958 177.08ZM106.125 124.13C106.125 123.888 106.412 122.285 106.761 120.565C107.113 118.849 107.33 117.27 107.25 117.056C107.168 116.842 106.348 116.3 105.43 115.851C103.184 114.749 100.896 112.28 99.9995 109.979C99.0449 107.535 98.7787 101.618 99.513 99.1458C100.492 95.8508 102.423 93.5347 105.577 91.8734L107.195 91.0198H138.708L140.446 91.8337C145.295 94.1069 147.636 98.5982 147.357 105.093C147.192 108.884 146.381 111.056 144.243 113.418C141.324 116.64 138.925 117.246 129.377 117.172C125.926 117.145 121.59 117.139 119.739 117.154L116.374 117.188L112.702 119.822C110.683 121.272 108.376 122.933 107.578 123.515C106.593 124.231 106.125 124.429 106.125 124.13ZM110.943 120.324C116.591 116.15 114.878 116.57 126.339 116.567C136.548 116.567 139.008 116.362 140.994 115.346C142.658 114.495 144.607 112.335 145.684 110.154C146.556 108.382 146.669 107.838 146.767 104.937C146.99 98.4666 144.861 94.5046 139.926 92.2008C138.8 91.6776 137.549 91.6256 123.175 91.543L107.642 91.4512L105.516 92.5679C101.722 94.5627 100.021 97.4325 99.5405 102.646C99.0112 108.385 101.288 113.057 105.809 115.52C106.709 116.013 107.541 116.689 107.657 117.025C107.774 117.362 107.691 118.463 107.477 119.473C106.608 123.512 106.62 123.405 107.076 123.126C107.312 122.985 109.049 121.725 110.943 120.324ZM170.047 105.063C169.857 104.573 169.502 103.524 169.263 102.725L168.823 101.278L167.076 101.318C164.454 101.376 162.857 100.761 161.049 98.9868C159.265 97.2428 157.928 94.7555 157.643 92.6597C157.35 90.4936 158.436 88.3979 161.076 86.042C163.744 83.6587 172.262 77.2399 173.785 76.4628C176.554 75.0524 180.027 76.166 182.636 79.2989C184.879 81.9943 185.469 83.316 185.488 85.6657C185.503 87.9726 185.007 89.1046 183.297 90.6741C181.465 92.3568 177.325 95.5999 174.893 97.2551L172.647 98.7848L171.959 101.786C171.582 103.438 171.074 105.048 170.833 105.369C170.414 105.923 170.377 105.91 170.047 105.063ZM171.442 101.388C172.008 99.0969 172.356 98.2525 172.877 97.9037C177.83 94.6025 183.34 90.1448 184.227 88.7252C185.194 87.1771 185.157 84.4817 184.142 82.4624C183.196 80.5839 180.265 77.5428 178.815 76.937C177.408 76.3496 175.171 76.3618 174.005 76.9676C172.005 78.0017 162.921 84.9008 160.74 87.0425C159.883 87.8839 158.947 89.074 158.659 89.6889C157.438 92.2956 158.454 95.5173 161.437 98.5003C162.973 100.036 163.462 100.333 164.946 100.642C166.133 100.89 167.011 100.908 167.761 100.7C169.015 100.354 169.181 100.541 169.961 103.16C170.212 104.004 170.478 104.631 170.554 104.555C170.634 104.479 171.032 103.053 171.442 101.388ZM163.536 54.2295L162.71 51.8584H160.042C157.698 51.8584 157.154 51.7482 155.612 50.968C153.222 49.7565 150.426 46.7888 149.193 44.1546C147.339 40.1925 147.966 36.876 151.166 33.7615C153.733 31.2619 167.369 22.2609 170.606 20.93C174.666 19.2595 178.335 20.6944 181.715 25.2714C183.796 28.0831 184.448 29.8912 184.441 32.7947C184.432 35.9307 183.888 37.2493 181.795 39.1982C180.476 40.425 171.353 46.6939 168.199 48.5388C167.198 49.1262 167.03 49.4291 166.406 51.7452C165.61 54.7037 164.894 56.6006 164.579 56.6006C164.46 56.6006 163.989 55.5328 163.536 54.2295ZM165.417 53.1556C165.748 52.1062 166.179 50.659 166.375 49.9401C166.678 48.8233 166.972 48.4929 168.425 47.6454C170.499 46.4369 170.508 46.4308 175.93 42.8053C182.786 38.2192 183.93 36.7934 183.937 32.8222C183.937 30.8825 183.796 30.3287 182.792 28.2942C181.394 25.4641 178.429 22.1813 176.545 21.3736C173.617 20.1192 171.39 20.7158 165.785 24.2587C156.156 30.344 152.207 33.223 150.245 35.5941C147.489 38.9259 148.471 43.8303 152.742 48.0493C155.361 50.6346 156.722 51.2373 160.088 51.2893C163.117 51.3413 163.062 51.3015 163.848 53.7552C164.129 54.6333 164.463 55.285 164.588 55.2054C164.717 55.129 165.09 54.205 165.417 53.1556ZM86.1644 169.031C85.2435 168.517 84.4022 167.131 84.4022 166.13C84.4022 165.234 85.2129 163.762 85.9136 163.386C86.2379 163.212 87.0364 163.071 87.6881 163.071C89.3188 163.071 90.8271 164.582 90.8271 166.216C90.8271 168.523 88.147 170.141 86.1644 169.031ZM89.4656 168.134C90.9067 166.69 90.3835 164.393 88.4407 163.649C87.5565 163.313 85.8065 163.995 85.3445 164.861C83.9586 167.452 87.4066 170.19 89.4656 168.134ZM93.4277 162.104C90.6221 160.559 91.5614 156.34 94.7127 156.34C96.1017 156.34 97.0746 156.943 97.7324 158.215C99.0143 160.697 95.9334 163.481 93.4277 162.104ZM96.9522 161.003C98.3137 159.274 97.145 156.952 94.9146 156.952C91.8888 156.952 91.3595 161.018 94.2813 161.789C95.5693 162.129 96.2179 161.939 96.9522 161.003ZM99.8281 155.395C98.9439 154.942 98.1699 153.525 98.1699 152.363C98.1699 151.65 98.4636 151.09 99.2499 150.304C100.232 149.321 100.443 149.239 101.621 149.398C102.557 149.523 103.154 149.842 103.787 150.551C104.549 151.405 104.644 151.711 104.509 152.901C104.42 153.69 104.099 154.526 103.744 154.877C103.034 155.587 100.786 155.884 99.8281 155.395ZM103.371 154.504C104.274 153.602 104.203 151.634 103.233 150.665C102.046 149.481 99.9658 149.738 99.2285 151.163C98.5829 152.412 98.6778 153.384 99.5314 154.305C100.486 155.336 102.438 155.437 103.371 154.504ZM111.115 106.81C109.891 106.039 109.49 105.298 109.49 103.793C109.49 102.166 110.751 100.954 112.672 100.737C113.951 100.593 114.15 100.666 115.141 101.658C116.025 102.542 116.221 102.964 116.221 103.986C116.221 106.602 113.333 108.199 111.115 106.81ZM114.394 106.259C115.447 105.54 115.6 105.253 115.603 103.992C115.612 102.38 114.489 101.269 112.855 101.269C109.924 101.269 108.991 104.904 111.564 106.299C112.669 106.899 113.477 106.886 114.394 106.259ZM122.034 107.174C120.272 106.531 119.182 104.166 119.938 102.621C120.88 100.7 123.753 99.9015 125.158 101.174C125.892 101.838 126.623 103.19 126.623 103.885C126.623 106.021 124.013 107.893 122.034 107.174ZM125.118 105.883C126.121 104.876 126.253 103.848 125.549 102.487C124.628 100.706 122.915 100.477 121.278 101.912C120.076 102.97 119.923 103.824 120.672 105.277C121.554 106.981 123.723 107.278 125.118 105.883ZM131.919 106.954C129.368 105.809 129.426 101.857 132.008 100.777C134.804 99.6109 137.561 102.419 136.453 105.308C135.835 106.908 133.623 107.712 131.919 106.954ZM135.214 105.883C136.429 104.665 136.432 103.212 135.22 101.915C134.235 100.859 133.458 100.737 132.124 101.425C130.071 102.487 130.038 105.201 132.063 106.299C133.327 106.987 134.229 106.868 135.214 105.883ZM166.702 94.627C165.212 94.0793 164.735 92.5465 165.65 91.2401C166.286 90.3314 167.461 90.3743 168.428 91.3411C169.037 91.9499 169.162 92.3018 169.003 92.9473C168.627 94.4465 167.819 95.0369 166.702 94.627ZM168.171 93.8652C168.373 93.6632 168.538 93.1401 168.538 92.7026C168.538 91.7266 168.024 91.1728 167.122 91.1728C166.381 91.1728 165.479 91.9071 165.479 92.5129C165.479 92.7209 165.687 93.1584 165.944 93.4858C166.384 94.0548 166.4 94.0457 166.228 93.293C166.026 92.3935 166.721 91.6073 167.464 91.8948C168.147 92.158 168.024 93.2104 167.247 93.755C166.592 94.2139 166.589 94.2323 167.186 94.2323C167.525 94.2323 167.969 94.0671 168.171 93.8652ZM169.985 91.1759C169.34 90.6649 169.15 90.255 169.15 89.3616C169.15 87.9175 169.894 87.1955 171.374 87.1955C172.678 87.1955 173.439 88.046 173.424 89.4809C173.403 91.439 171.509 92.3721 169.985 91.1759ZM172.855 90.3315C173.299 89.1872 172.852 88.0399 171.827 87.6789C171.136 87.4341 170.866 87.5075 170.224 88.1103C169.802 88.508 169.456 89.0832 169.456 89.3891C169.456 90.2488 170.57 91.1728 171.604 91.1728C172.332 91.1728 172.601 90.9923 172.855 90.3315ZM174.336 87.2444C173.47 86.5438 173.424 84.806 174.256 84.3104C175.446 83.6067 176.165 83.573 176.946 84.1849C177.897 84.9345 177.971 86.3296 177.105 87.1955C176.34 87.9603 175.242 87.9787 174.336 87.2444ZM177.068 86.5193C177.582 85.1334 176.716 83.9371 175.434 84.2584C174.305 84.5429 173.883 85.525 174.489 86.452C175.144 87.4494 176.71 87.4922 177.068 86.5193ZM158.17 43.0164C156.484 42.0833 156.175 40.1558 157.5 38.8311C159.222 37.1086 161.394 37.8642 162.236 40.4801C162.459 41.1746 161.688 42.7105 160.908 43.1296C160.115 43.5518 159.057 43.509 158.17 43.0164ZM160.562 42.6921C162.814 41.5265 161.921 38.5496 159.32 38.5496C156.377 38.5496 156.612 42.325 159.604 43.1143C159.653 43.1266 160.085 42.9369 160.562 42.6921ZM165.173 39.2502C164.919 39.1584 164.334 38.7331 163.872 38.3018C163.212 37.6837 163.031 37.2401 163.031 36.2244C163.031 33.2658 166.816 32.3052 168.333 34.8751C168.615 35.3493 168.844 36.0163 168.844 36.3529C168.844 37.2677 167.862 38.831 167.161 39.033C165.983 39.3726 165.629 39.4124 165.173 39.2502ZM167.027 38.5404C167.348 38.366 167.822 37.8245 168.076 37.335C169.328 34.9118 166.045 32.7549 164.087 34.7099C163.674 35.123 163.343 35.7104 163.349 36.0102C163.365 36.8516 164.087 37.9775 164.9 38.4272C165.797 38.9259 166.262 38.9504 167.027 38.5404ZM171.677 34.5631C171.298 34.4131 170.713 33.8349 170.374 33.2811C169.135 31.268 170.49 29.0652 172.965 29.0652C174.076 29.0652 174.428 29.2212 175.089 30.0075C177.144 32.4489 174.663 35.7654 171.677 34.5631ZM174.562 33.6024C175.532 32.6906 175.511 31.115 174.519 30.1207C173.66 29.264 172.858 29.1784 171.619 29.8178C170.056 30.6286 169.918 32.299 171.316 33.4739C172.464 34.4407 173.62 34.4866 174.562 33.6024ZM86.5438 167.354C85.3782 166.188 86.1767 164.295 87.8349 164.295C88.6059 164.295 89.6033 165.39 89.6033 166.237C89.6033 167.786 87.6789 168.489 86.5438 167.354ZM88.6243 166.987C89.6125 165.999 88.0889 164.313 87.0119 165.206C86.143 165.925 86.6448 167.354 87.7676 167.354C88.0369 167.354 88.4223 167.189 88.6243 166.987ZM93.8101 160.853C92.9535 160.198 92.8311 158.925 93.5531 158.203C94.783 156.973 96.6402 157.741 96.6402 159.479C96.6402 160.966 95.0003 161.761 93.8101 160.853ZM95.7101 160.18C96.1537 159.644 95.8814 158.607 95.2297 158.359C94.6851 158.148 93.5806 158.662 93.5806 159.124C93.5806 160.378 94.9727 161.07 95.7101 160.18ZM100.143 153.755C99.2683 152.88 99.2162 152.445 99.871 151.512C100.437 150.704 102.166 150.579 102.768 151.301C103.322 151.971 103.203 153.648 102.566 154.113C101.759 154.703 100.979 154.587 100.143 153.755ZM102.441 153.302C102.823 152.589 102.576 151.839 101.826 151.436C101.055 151.023 101.003 151.041 100.431 151.913C99.9566 152.635 99.9597 152.724 100.471 153.29C101.165 154.055 102.034 154.061 102.441 153.302ZM111.699 105.381C111.023 104.907 110.787 103.619 111.255 102.921C111.506 102.545 112.672 101.881 113.085 101.881C113.697 101.881 114.691 103.181 114.691 103.986C114.691 105.595 113.079 106.348 111.699 105.381ZM113.712 104.879C114.777 103.815 113.25 101.838 112.1 102.793C111.188 103.548 111.708 105.246 112.855 105.246C113.125 105.246 113.51 105.081 113.712 104.879ZM121.795 105.381C120.929 104.775 120.896 103.325 121.728 102.493C122.998 101.223 125.093 102.083 125.093 103.87C125.093 104.999 124.234 105.858 123.105 105.858C122.759 105.858 122.169 105.644 121.795 105.381ZM124.001 104.766C124.264 104.5 124.481 104.099 124.481 103.87C124.481 103.64 124.264 103.239 124.001 102.973C123.077 102.049 121.728 102.582 121.728 103.87C121.728 105.158 123.077 105.69 124.001 104.766ZM132.198 105.381C130.827 104.423 131.745 101.881 133.461 101.881C135.003 101.881 135.814 104.283 134.63 105.354C133.929 105.987 133.076 105.996 132.198 105.381ZM134.287 104.769C134.572 104.427 134.599 104.056 134.394 103.469C134.039 102.456 132.861 102.349 132.25 103.273C131.408 104.537 133.317 105.938 134.287 104.769ZM170.181 89.7471C169.857 88.456 171.387 87.581 172.216 88.5814C172.812 89.2973 172.133 90.5609 171.151 90.5609C170.579 90.5609 170.334 90.3559 170.181 89.7471ZM171.766 89.6155C172.081 89.1076 171.374 88.5202 170.952 88.9424C170.597 89.2973 170.821 89.949 171.292 89.949C171.442 89.949 171.653 89.7991 171.766 89.6155ZM175.153 86.4245C174.77 86.042 174.734 85.7912 174.985 85.32C175.468 84.4144 176.34 84.7234 176.34 85.7973C176.34 86.8467 175.841 87.1098 175.153 86.4245ZM175.881 85.6657C175.881 85.4974 175.743 85.3598 175.575 85.3598C175.407 85.3598 175.269 85.4974 175.269 85.6657C175.269 85.834 175.407 85.9717 175.575 85.9717C175.743 85.9717 175.881 85.834 175.881 85.6657ZM158.518 41.7529C157.674 41.1593 157.637 40.3486 158.417 39.6418C159.693 38.4884 161.703 40.0334 160.767 41.453C160.241 42.2485 159.384 42.3648 158.518 41.7529ZM160.125 40.6943C160.125 40.1986 159.929 39.8958 159.556 39.8254C158.772 39.6755 158.341 40.1956 158.592 40.9849C158.898 41.9517 160.125 41.7192 160.125 40.6943ZM164.867 37.3258C164.105 36.564 164.087 35.7379 164.815 35.0771C165.512 34.4468 166.069 34.4376 166.941 35.0495C167.691 35.5727 167.862 36.9617 167.253 37.5705C166.696 38.1274 165.552 38.0111 164.867 37.3258ZM166.914 36.824C167.168 36.1662 166.623 35.3371 165.938 35.3371C165.638 35.3371 165.252 35.5604 165.081 35.8297C164.613 36.5731 165.044 37.3258 165.938 37.3258C166.381 37.3258 166.806 37.1086 166.914 36.824ZM172.136 33.327C170.524 32.3878 171.032 30.289 172.87 30.289C174.617 30.289 175.211 31.9503 173.853 33.0211C172.938 33.7401 172.867 33.7523 172.136 33.327ZM173.739 32.2776C174.25 31.6627 173.635 30.9008 172.632 30.9008C172.072 30.9008 171.904 31.0661 171.904 31.6137C171.904 32.0084 171.995 32.4214 172.109 32.5316C172.463 32.8895 173.345 32.7518 173.739 32.2776Z" fill="#111111"/>
<path d="M57.0197 202.027C58.7025 201.939 60.1221 201.828 60.1741 201.78C60.2261 201.728 60.4647 200.467 60.7064 198.977C61.8996 191.631 60.7217 182.07 57.6347 174.054C56.8025 171.897 55.4992 169.009 55.1932 168.651C55.1565 168.605 53.6941 169.254 51.941 170.089C46.336 172.769 40.5536 174.464 32.5958 175.768C31.6413 175.921 31.4638 176.055 31.6474 176.474C31.7728 176.759 32.5316 179.136 33.3362 181.758C34.6335 185.98 35.1199 188.146 36.7384 196.86L37.1331 198.98L39.7336 199.687C46.4217 201.504 52.1337 202.278 57.0197 202.027Z" fill="#111111"/>
</svg>
