<svg width="211" height="210" viewBox="0 0 211 210" fill="none" xmlns="http://www.w3.org/2000/svg">
<path d="M187.018 100.449L194.316 92.351H179.72L187.018 100.449Z" fill="white"/>
<path d="M24.0079 123.096L31.3059 114.999H16.71L24.0079 123.096Z" fill="white"/>
<path d="M34.0156 39.3496C34.0156 36.5882 36.2542 34.3496 39.0156 34.3496H175.961C178.723 34.3496 180.961 36.5882 180.961 39.3496V170.238C180.961 173 178.723 175.238 175.961 175.238H39.0156C36.2542 175.238 34.0156 173 34.0156 170.238V39.3496Z" fill="white"/>
<path d="M112.229 7.85522C112.229 6.19837 113.572 4.85522 115.229 4.85522H152.68C154.337 4.85522 155.68 6.19837 155.68 7.85522V41.8834C155.68 43.5402 154.337 44.8834 152.68 44.8834H115.229C113.572 44.8834 112.229 43.5402 112.229 41.8834V7.85522Z" fill="white"/>
<path d="M4.52148 89.755C4.52148 88.0982 5.86463 86.755 7.52148 86.755H40.2329C41.8898 86.755 43.2329 88.0982 43.2329 89.755V115.62C43.2329 117.276 41.8898 118.62 40.2329 118.62H7.52149C5.86463 118.62 4.52148 117.276 4.52148 115.62V89.755Z" fill="white"/>
<path d="M167.53 66.3175C167.53 64.6607 168.873 63.3175 170.53 63.3175H203.242C204.899 63.3175 206.242 64.6607 206.242 66.3175V92.182C206.242 93.8389 204.899 95.182 203.242 95.182H170.53C168.873 95.182 167.53 93.8389 167.53 92.182V66.3175Z" fill="white"/>
<path d="M21.9722 207.727C21.6646 205.811 20.5982 204.548 18.8984 204.09C17.7181 203.773 17.1735 203.423 17.8594 203.418C18.6136 203.413 20.6438 202.347 20.9628 201.787C21.1291 201.495 21.48 200.643 21.7397 199.891L22.2137 198.528L22.7081 200.157C23.0659 201.335 23.3985 201.948 23.9044 202.374C24.2894 202.7 24.6745 202.969 24.7588 202.974C24.8431 202.981 25.4242 203.122 26.0508 203.288L27.1901 203.591L26.1943 203.865C25.6452 204.015 24.85 204.359 24.4262 204.632C23.558 205.191 22.519 207.039 22.519 208.023C22.519 208.991 22.1408 208.786 21.9722 207.727ZM83.1355 206.319C82.8256 206.161 82.338 205.687 82.0531 205.264L81.5336 204.491L81.5359 194.215C81.5405 186.452 81.6111 183.802 81.8253 183.376C81.9825 183.066 82.4565 182.578 82.8803 182.294L83.6527 181.774H111.601H139.55L140.751 180.749C141.412 180.186 142.109 179.723 142.3 179.723C142.494 179.723 143.264 180.186 144.014 180.749L145.379 181.774H171.566C200.399 181.774 198.879 181.699 199.784 183.184C200.228 183.911 200.244 184.31 200.246 194.147C200.246 205.414 200.262 205.28 198.811 206.164C198.093 206.601 197.214 206.608 140.89 206.606C95.5969 206.603 83.5821 206.544 83.1355 206.319ZM198.219 205.177L198.993 204.655L199.052 194.281L199.112 183.909L198.522 183.353L197.931 182.799L171.222 182.685L144.513 182.572L143.515 181.717C142.966 181.248 142.451 180.863 142.369 180.863C142.287 180.863 141.767 181.27 141.214 181.769L140.206 182.676L112.028 182.738L83.8486 182.799L83.2608 183.351L82.6729 183.904V194.019C82.6729 200.492 82.7572 204.291 82.9076 204.571C83.5365 205.749 79.9842 205.681 140.913 205.69L197.444 205.699L198.219 205.177ZM39.3917 183.711C38.8517 182.394 38.3049 181.318 38.175 181.318C38.0474 181.318 37.0266 181.945 35.9101 182.708C34.7959 183.474 33.8275 184.046 33.7614 183.98C33.6976 183.914 33.7546 183.141 33.8913 182.262C34.028 181.382 34.1396 180.298 34.1396 179.851C34.1396 179.085 34.0986 179.04 33.3991 179.051C32.9913 179.058 31.8884 179.202 30.9497 179.37C30.0109 179.541 29.1997 179.639 29.1519 179.593C29.1018 179.546 29.6008 178.687 30.257 177.686C30.9155 176.684 31.4692 175.688 31.4874 175.472C31.5102 175.189 30.9838 174.845 29.5871 174.223C28.523 173.751 27.6253 173.284 27.5934 173.184C27.5592 173.084 28.4546 172.557 29.5825 172.013C30.7104 171.47 31.6332 170.942 31.6332 170.842C31.6332 170.739 31.0568 169.718 30.3527 168.572C29.6463 167.426 29.1132 166.446 29.1633 166.394C29.2157 166.344 29.9198 166.405 30.7309 166.53C31.5398 166.658 32.6518 166.822 33.1986 166.895L34.1943 167.029L34.0257 166.027C33.9346 165.478 33.8161 154.748 33.7637 142.184L33.668 119.342H31.2208H28.7736L26.9576 121.18C25.9574 122.192 24.8477 123.231 24.49 123.491L23.8428 123.96L21.5278 121.661L19.2151 119.362L12.7098 119.294C5.60072 119.221 5.48908 119.2 4.57765 117.81C4.20625 117.243 4.17207 116.104 4.10599 102.831C4.05814 92.7895 4.11283 88.2074 4.29055 87.6013C4.45689 87.0293 4.78956 86.585 5.27033 86.2934C5.97213 85.865 6.52354 85.849 19.8371 85.8468H33.6771L33.7363 60.7257L33.7979 35.6046L34.4313 34.3149C35.1604 32.8293 36.4729 31.551 37.9859 30.8515L39.0385 30.3639L75.3246 30.3047L111.611 30.2454V17.9754V5.70763L112.171 5.10382C112.481 4.76887 112.998 4.39519 113.326 4.27214C113.7 4.12859 121.267 4.04657 133.899 4.04657C152.463 4.04657 153.935 4.07619 154.675 4.44531C156.216 5.21547 156.27 5.53674 156.27 13.7737V21.1061L157.068 20.9785C157.811 20.8578 157.865 20.8897 157.865 21.4479C157.865 22.0335 157.53 22.1907 156.555 22.0631C156.336 22.0358 156.27 22.9791 156.27 26.1235V30.2203L166.467 30.2933L176.663 30.3639L177.953 30.9973C179.439 31.7265 180.717 33.0389 181.416 34.5519C181.895 35.5841 181.906 35.8643 181.968 49.105L182.032 62.6055H186.495C190.373 62.6055 190.925 62.5622 190.686 62.2751C190.401 61.9333 190.558 61.0105 190.902 61.0105C191.551 61.0105 191.784 61.2953 191.574 61.8422C191.456 62.1521 191.36 62.4528 191.36 62.5075C191.36 62.5599 194.338 62.6055 197.979 62.6055C203.45 62.6055 204.715 62.6647 205.266 62.9518C206.665 63.6741 206.626 63.2093 206.626 79.2845C206.624 93.2179 206.604 93.9698 206.196 94.6374C205.362 96.0069 204.84 96.1003 198.016 96.1003H191.866L189.537 98.6067C188.257 99.9852 187.029 101.113 186.81 101.113C186.584 101.113 185.491 100.026 184.285 98.6067C183.116 97.2282 182.102 96.1003 182.032 96.1003C181.961 96.1003 181.931 103.802 181.963 113.215C182.02 129.349 182.045 130.322 182.419 130.203C185.167 129.322 186.402 129.091 188.352 129.105C192.406 129.13 195.461 130.393 198.576 133.33C200.549 135.187 202.142 137.616 203.003 140.076C203.783 142.307 203.883 146.438 203.218 148.874C201.734 154.308 197.444 158.421 192.085 159.549C189.018 160.194 184.647 159.879 182.704 158.875L182.045 158.535L181.975 164.856C181.906 170.894 181.881 171.229 181.38 172.318C180.717 173.76 179.71 174.813 178.258 175.585L177.119 176.192L114.63 176.251C52.5686 176.308 52.1402 176.305 52.1402 175.859C52.1402 175.613 52.3385 175.303 52.58 175.175C52.8808 175.014 72.5652 174.938 114.529 174.938C182.884 174.938 177.153 175.075 178.912 173.391C179.398 172.926 179.983 172.136 180.218 171.634C180.623 170.757 180.642 169.294 180.646 133.423L180.651 96.1231L175.125 96.0547C169.119 95.9795 168.718 95.9043 167.798 94.6602C167.328 94.0245 167.321 93.8194 167.26 79.3962C167.214 68.7166 167.269 64.6038 167.46 64.139C167.606 63.7881 167.982 63.3004 168.294 63.0544C168.827 62.6351 169.242 62.6055 174.756 62.6055H180.651V59.4155V56.2255H107.851H35.0511V71.0361V85.8468H38.1841C41.7569 85.849 42.5566 86.1225 43.1536 87.5534C43.6412 88.7223 43.6412 116.466 43.1536 117.635C42.5612 119.052 41.7455 119.339 38.298 119.342H35.2789V139.894V160.444L34.6933 161.055L34.1077 161.668L35.8896 163.104C36.8694 163.892 37.799 164.635 37.954 164.751C38.1476 164.897 38.2821 164.833 38.3846 164.539C38.4666 164.307 38.9747 163.092 39.5125 161.841C40.6313 159.241 40.3328 159.109 41.7888 162.862C42.2695 164.097 42.6501 164.771 42.8415 164.724C43.0055 164.683 43.9876 164.079 45.0266 163.382C46.0633 162.684 46.977 162.181 47.0591 162.263C47.1388 162.342 47.0773 163.391 46.9201 164.591C46.7629 165.792 46.6922 166.831 46.7629 166.902C46.8335 166.975 47.6059 166.913 48.4786 166.77C50.7025 166.403 51.7666 166.423 51.6093 166.829C51.541 167.007 50.9622 167.998 50.3197 169.03C49.4356 170.456 49.226 170.955 49.4516 171.099C49.6133 171.202 50.6478 171.612 51.7483 172.008C52.8489 172.402 53.8013 172.812 53.8651 172.915C53.9289 173.018 52.9514 173.619 51.6937 174.25C50.4359 174.881 49.406 175.433 49.406 175.476C49.406 175.517 49.9711 176.394 50.6592 177.424C51.3473 178.454 51.9124 179.391 51.9124 179.505C51.9124 179.618 51.6299 179.662 51.2858 179.603C49.6657 179.32 47.6469 179.042 47.1844 179.042C46.7492 179.04 46.6717 179.161 46.6717 179.851C46.6717 180.298 46.7834 181.375 46.9178 182.246C47.0522 183.118 47.1274 183.939 47.0841 184.069C47.0408 184.201 46.0588 183.681 44.9036 182.913C42.9873 181.64 42.3425 181.414 42.3425 182.02C42.3425 182.284 40.5766 186.103 40.4558 186.103C40.408 186.103 39.9295 185.028 39.3917 183.711ZM186.347 158.833C186.347 158.747 186.147 158.259 185.903 157.751C185.659 157.241 185.263 156.054 185.021 155.115L184.581 153.406L183.827 153.483C181.59 153.718 181.448 154.52 183.237 156.801C184.137 157.949 186.347 159.394 186.347 158.833ZM189.467 158.246C190.148 157.239 191.305 154.607 191.483 153.668C191.611 152.987 191.565 152.884 191.096 152.798C190.802 152.741 190.141 152.738 189.624 152.788L188.685 152.88L188.544 154.053C188.466 154.7 188.4 155.614 188.4 156.083C188.398 156.721 188.305 156.938 188.027 156.938C187.698 156.938 187.676 156.696 187.817 154.878L187.979 152.816L186.764 152.971C186.097 153.055 185.511 153.16 185.461 153.201C185.29 153.349 185.926 156.07 186.377 157.122C186.994 158.562 187.425 158.988 188.261 158.986C188.801 158.986 189.084 158.813 189.467 158.246ZM191.474 158.444C192.101 158.148 192.987 157.507 193.445 157.022C194.32 156.095 196.02 153.545 195.865 153.392C195.717 153.244 192.659 152.852 192.488 152.957C192.399 153.012 192.208 153.531 192.062 154.112C191.77 155.268 190.688 157.662 190.089 158.476C189.583 159.162 189.982 159.152 191.474 158.444ZM183.128 157.64C182.241 156.612 181.956 156.5 182.059 157.223C182.118 157.635 183.314 158.53 183.811 158.533C183.857 158.533 183.549 158.132 183.128 157.64ZM194.655 157.977C195.345 157.671 196.298 157.138 196.769 156.794C197.802 156.04 199.563 154.395 199.563 154.185C199.563 154.103 199.23 153.978 198.822 153.907C198.414 153.834 197.763 153.709 197.375 153.627C196.703 153.483 196.633 153.54 195.926 154.791C195.518 155.514 194.669 156.651 194.037 157.318C193.406 157.986 193.003 158.533 193.144 158.533C193.283 158.533 193.962 158.282 194.655 157.977ZM200.54 152.889C201.033 152.346 202.252 149.708 202.434 148.792L202.582 148.051H201.445C200.821 148.051 199.85 147.988 199.289 147.912L198.266 147.771L197.783 149.792C197.517 150.902 197.234 152.03 197.159 152.296C197.034 152.725 197.145 152.807 198.121 153.01C199.761 153.351 200.139 153.333 200.54 152.889ZM184.438 151.834C184.367 151.446 184.242 150.332 184.16 149.362L184.005 147.596H183.011H182.018V150.177C182.018 151.599 182.07 152.814 182.136 152.88C182.2 152.943 182.774 152.893 183.408 152.768C184.54 152.545 184.561 152.526 184.438 151.834ZM196.781 150.957C197.04 150.047 197.321 148.972 197.401 148.564L197.549 147.824H195.708C194.696 147.824 193.791 147.798 193.7 147.767C193.609 147.735 193.422 148.375 193.283 149.191C193.146 150.006 192.957 150.995 192.866 151.389L192.7 152.109L194.138 152.331C194.928 152.451 195.739 152.563 195.94 152.579C196.207 152.602 196.437 152.16 196.781 150.957ZM188.086 152.064C188.102 152.05 188.188 151.039 188.277 149.817L188.441 147.596H186.566H184.693L184.853 149.475C185.11 152.526 185.021 152.392 186.655 152.228C187.425 152.153 188.07 152.078 188.086 152.064ZM192.205 151.018C192.363 150.471 192.52 149.503 192.554 148.867L192.613 147.71L190.868 147.644L189.125 147.577L188.963 149.519C188.874 150.585 188.851 151.59 188.913 151.749C188.988 151.943 189.498 152.034 190.471 152.025L191.916 152.014L192.205 151.018ZM202.887 146.543C203.072 145.559 202.819 142.139 202.536 141.797C202.311 141.526 198.414 141.676 198.421 141.956C198.421 142.05 198.424 143.25 198.424 144.622V147.119L199.962 147.199C200.807 147.242 201.778 147.299 202.115 147.322C202.655 147.363 202.751 147.265 202.887 146.543ZM197.596 146.627C197.808 145.834 197.765 142.904 197.53 142.289C197.328 141.756 197.259 141.742 195.537 141.847C194.555 141.908 193.734 141.972 193.709 141.99C193.686 142.009 193.645 143.098 193.62 144.41L193.575 146.798L194.575 146.935C196.824 147.242 197.448 147.179 197.596 146.627ZM184.069 144.558C184.069 143.262 184.023 142.157 183.966 142.102C183.911 142.045 183.449 142.038 182.941 142.086L182.018 142.175V144.545V146.912H183.043H184.069V144.558ZM188.348 144.463L188.414 142.127H186.582H184.752V144.529V146.928L186.518 146.864L188.284 146.798L188.348 144.463ZM192.775 146.614C193.035 146.206 192.992 142.177 192.725 142.011C192.597 141.933 191.7 141.938 190.731 142.022L188.968 142.175L189.038 144.531L189.111 146.887H190.857C191.962 146.887 192.666 146.787 192.775 146.614ZM187.316 141.298L188.17 141.156V139.263C188.17 138.222 188.09 137.319 187.992 137.258C187.892 137.199 187.19 137.078 186.432 136.991L185.051 136.836L184.914 138.953C184.839 140.117 184.827 141.154 184.891 141.257C185.028 141.478 186.117 141.496 187.316 141.298ZM184.167 139.45C184.249 138.479 184.369 137.415 184.431 137.087C184.538 136.54 184.461 136.469 183.524 136.232C182.961 136.091 182.392 135.975 182.26 135.975C182.105 135.975 182.018 136.907 182.018 138.595V141.216H183.016H184.016L184.167 139.45ZM192.729 140.931C192.729 140.774 192.609 139.851 192.461 138.88L192.192 137.114H190.524H188.854V139.165V141.216H190.79C192.187 141.216 192.727 141.136 192.729 140.931ZM197.264 140.851C197.401 140.724 196.84 138.336 196.459 137.426L196.134 136.647L194.602 136.798C193.759 136.882 193.035 136.978 192.992 137.014C192.916 137.078 193.377 140.405 193.536 140.929C193.6 141.136 194.088 141.175 195.395 141.074C196.373 141.002 197.211 140.899 197.264 140.851ZM202.256 140.641C202.45 140.471 200.812 137.037 200.253 136.438L199.615 135.756L198.394 136.116C197.722 136.315 197.129 136.517 197.079 136.565C197.029 136.613 197.216 137.447 197.496 138.42C197.776 139.395 198.059 140.377 198.123 140.607C198.228 140.988 198.417 141.011 200.21 140.865C201.295 140.778 202.215 140.676 202.256 140.641ZM191.531 136.242C192.23 135.8 189.706 130.509 188.635 130.167C187.812 129.907 187.026 130.463 186.463 131.703C185.896 132.958 185.256 135.645 185.475 135.861C185.545 135.932 186.135 136.052 186.789 136.13L187.974 136.271L187.81 134.043C187.676 132.186 187.701 131.83 187.965 131.919C188.184 131.992 188.341 132.626 188.464 133.943C188.562 134.998 188.687 135.989 188.74 136.146C188.851 136.465 191.059 136.542 191.531 136.242ZM195.655 135.85C195.894 135.636 194.033 132.739 193.003 131.726C191.962 130.7 190.64 130.012 190.321 130.331C190.266 130.383 190.574 131.138 191 132.006C191.426 132.872 191.946 134.18 192.158 134.909L192.54 136.235L194.058 136.078C194.892 135.991 195.612 135.888 195.655 135.85ZM184.613 135.462C184.657 135.305 184.864 134.467 185.078 133.598C185.292 132.73 185.666 131.632 185.907 131.158C186.149 130.684 186.347 130.244 186.347 130.181C186.347 130.007 184.716 130.971 184.094 131.514C183.31 132.195 182.246 133.927 182.246 134.519C182.246 134.909 182.469 135.105 183.214 135.369C184.44 135.802 184.522 135.809 184.613 135.462ZM198.216 135.376C198.706 135.298 199.107 135.152 199.107 135.054C199.107 134.419 194.151 130.734 193.295 130.734C193.203 130.734 193.488 131.131 193.926 131.616C194.365 132.101 195.154 133.236 195.682 134.139C196.364 135.307 196.74 135.743 196.981 135.649C197.17 135.576 197.726 135.453 198.216 135.376ZM183.925 130.554C183.911 130.518 183.474 130.657 182.957 130.864C182.143 131.19 182.018 131.334 182.018 131.935V132.63L182.986 131.625C183.52 131.074 183.941 130.591 183.925 130.554ZM34.8118 117.974C41.1462 117.974 41.2989 117.963 41.8161 117.48L42.3425 116.983V102.651V88.319L41.6771 87.6514L41.0095 86.986H23.5785H6.14758L5.67364 87.5853C5.20881 88.18 5.20198 88.3646 5.20198 102.48C5.20198 116.596 5.20881 116.78 5.67364 117.375L6.14758 117.974H12.8853H19.6252L21.8127 120.132L24.0001 122.29L26.1693 120.132L28.3384 117.974H34.8118ZM197.997 94.7331C204.273 94.7331 204.596 94.7126 205.031 94.2774C205.478 93.8308 205.487 93.5187 205.487 79.3415V64.8635L204.929 64.303L204.368 63.7448H186.83H169.292L168.818 64.344C168.353 64.9387 168.347 65.1233 168.347 79.2276V93.5096L168.985 94.1202L169.625 94.7331H176.151C182.451 94.7331 182.688 94.7491 183 95.1957C183.178 95.4509 184.112 96.5241 185.074 97.5813L186.823 99.5022L189.12 97.1188L191.417 94.7331H197.997ZM52.0537 46.9039C53.8925 46.0677 54.9748 43.6935 54.4302 41.6792C54.0975 40.4534 52.6165 38.7968 51.5273 38.4391C51.0853 38.2933 50.1214 38.2181 49.3855 38.2705C47.8292 38.3821 46.6717 39.1523 45.8218 40.6402C44.5299 42.896 45.7557 46.0745 48.3123 47.0999C49.1941 47.4531 51.0557 47.3551 52.0537 46.9039ZM66.3812 46.9062C68.1517 46.0882 69.0016 44.7416 69.0016 42.757C69.0016 40.1526 67.0124 38.2249 64.3282 38.2249C62.9087 38.2249 62.1135 38.5553 61.2226 39.5146C60.2952 40.5149 59.8873 41.5129 59.8873 42.7798C59.8873 46.1429 63.3188 48.3258 66.3812 46.9062ZM81.0118 46.8606C83.7165 45.5505 84.3317 42.0666 82.2628 39.7721C81.2169 38.6146 80.3169 38.2249 78.6809 38.2249C77.2226 38.2249 76.4707 38.5553 75.475 39.6285C74.4906 40.6903 74.1671 41.6473 74.2901 43.1329C74.559 46.3753 78.0338 48.303 81.0118 46.8606ZM135.93 40.1617L138.094 37.9971H145.939H153.784L154.345 37.4388C154.848 36.9353 154.903 36.6915 154.905 34.9894C154.905 33.9481 154.972 27.1329 155.054 19.8438L155.202 6.58716L154.5 5.88764L153.798 5.18584H133.77H113.741L113.187 5.77599L112.636 6.36386L112.702 21.6689L112.768 36.9717L113.34 37.4844C113.912 37.9948 113.955 37.9971 121.531 37.9971H129.146L131.372 40.1526C132.596 41.3397 133.635 42.3127 133.683 42.3172C133.729 42.3218 134.74 41.3534 135.93 40.1617ZM27.7825 170.63C27.4088 170.393 27.6093 169.698 28.0513 169.698C28.5458 169.698 29.2111 170.29 29.0334 170.575C28.842 170.885 28.2291 170.912 27.7825 170.63ZM25.1462 169.784C24.7247 169.363 24.7907 168.932 25.292 168.834C25.7682 168.741 26.7321 169.563 26.5293 169.889C26.2946 170.27 25.5746 170.215 25.1462 169.784ZM22.699 168.877C22.0565 168.54 22.0405 168.021 22.6671 167.779C23.1046 167.613 23.8861 168.025 23.8861 168.424C23.8861 169.019 23.353 169.221 22.699 168.877ZM19.8303 167.601C19.165 166.936 19.8166 166.264 20.6779 166.726C21.341 167.082 21.3068 167.875 20.6278 167.875C20.3384 167.875 19.9807 167.752 19.8303 167.601ZM17.3102 166.2C16.8659 165.726 16.8477 165.63 17.1553 165.375C17.4401 165.141 17.6087 165.154 18.0735 165.46C18.7138 165.879 18.7685 166.066 18.372 166.462C17.9938 166.84 17.8867 166.813 17.3102 166.2ZM14.9018 164.783C14.1043 163.985 14.8289 163.263 15.7107 163.976C16.032 164.238 16.1618 164.523 16.0707 164.762C15.8884 165.239 15.3666 165.248 14.9018 164.783ZM12.6301 162.887C12.2427 162.459 12.286 161.495 12.6939 161.495C13.0607 161.495 13.881 162.47 13.8126 162.823C13.7078 163.37 13.0972 163.404 12.6301 162.887ZM10.5429 160.934C10.1237 160.296 10.2672 159.9 10.9166 159.9C11.5227 159.9 12.0354 160.984 11.5683 161.281C11.0761 161.591 10.9439 161.547 10.5429 160.934ZM8.74058 158.998C8.26891 158.476 8.42158 157.849 9.02312 157.849C9.87985 157.849 10.3675 159.023 9.62693 159.305C9.15072 159.487 9.20312 159.506 8.74058 158.998ZM7.38256 156.808C6.93824 156.364 6.93824 156.227 7.36661 155.671C7.70155 155.238 7.7175 155.238 8.1641 155.767C8.73146 156.436 8.73374 156.632 8.18005 156.929C7.84738 157.106 7.65143 157.077 7.38256 156.808ZM6.10429 154.185C5.77389 153.57 5.97896 153.064 6.55772 153.064C7.03849 153.064 7.42813 153.962 7.14787 154.418C6.90406 154.812 6.37543 154.693 6.10429 154.185ZM5.47768 151.882C5.14046 151.544 5.11539 150.638 5.43895 150.437C5.83086 150.195 6.3686 150.82 6.29569 151.433C6.21594 152.091 5.87643 152.28 5.47768 151.882ZM145.454 151.077C145.124 149.318 143.934 147.967 142.476 147.694C141.273 147.468 141.328 147.211 142.658 146.823C144.335 146.336 145.561 144.882 145.561 143.383C145.561 142.344 145.948 142.606 146.224 143.829C146.564 145.351 147.694 146.479 149.28 146.878C149.865 147.026 150.346 147.19 150.346 147.24C150.346 147.293 149.804 147.493 149.143 147.685C148.466 147.883 147.676 148.313 147.334 148.669C146.664 149.368 146.017 150.74 146.017 151.462C146.017 152.244 145.62 151.975 145.454 151.077ZM4.90349 149.27C4.8169 149.186 4.74627 148.824 4.74627 148.468C4.74627 147.972 4.85336 147.824 5.20881 147.824C5.46401 147.824 5.73744 147.992 5.81491 148.197C6.04732 148.801 5.30679 149.674 4.90349 149.27ZM4.60044 146.447C4.21536 146.062 4.50474 145.089 5.0083 145.089C5.53693 145.089 5.81491 145.702 5.5073 146.19C5.21109 146.657 4.89893 146.746 4.60044 146.447ZM4.51841 143.836C4.28828 143.558 4.28144 143.353 4.48879 142.9C4.77361 142.273 5.13818 142.268 5.52553 142.881C5.98808 143.613 5.06299 144.492 4.51841 143.836ZM4.90349 141.295C4.8169 141.211 4.74627 140.849 4.74627 140.493C4.74627 139.997 4.85336 139.849 5.20881 139.849C5.46401 139.849 5.73744 140.017 5.81491 140.222C6.04732 140.826 5.30679 141.699 4.90349 141.295ZM5.25666 138.424C4.95589 138.051 5.30907 137.114 5.75111 137.114C6.22277 137.114 6.40733 137.502 6.24556 138.153C6.09289 138.753 5.62579 138.882 5.25666 138.424ZM5.72832 135.601C5.53692 135.102 5.94706 134.494 6.47797 134.494C6.98837 134.494 7.17293 135.18 6.78785 135.645C6.42328 136.084 5.90605 136.064 5.72832 135.601ZM6.48025 133.111C6.3048 132.653 6.71494 131.874 7.13192 131.874C7.30736 131.874 7.51699 132.083 7.59902 132.341C7.86333 133.175 6.79013 133.915 6.48025 133.111ZM7.46458 130.602C7.05217 130.105 7.48965 129.461 8.18233 129.543C8.90919 129.629 8.93653 129.702 8.49677 130.372C8.05017 131.058 7.87472 131.097 7.46458 130.602ZM8.67678 128.305C8.28942 128.148 8.31676 127.435 8.72235 127.098C9.11198 126.774 9.98695 126.991 9.98695 127.41C9.98695 127.572 9.8001 127.87 9.56997 128.08C9.12793 128.479 9.11654 128.483 8.67678 128.305ZM82.8142 127.975C81.0096 127.551 78.9976 126.38 77.4368 124.842C74.7754 122.224 73.6476 119.203 73.8526 115.24C73.9871 112.654 74.4861 111.043 75.7188 109.202C76.7692 107.634 79.2574 105.634 80.8865 105.048C81.9347 104.67 81.9506 104.649 82.2195 103.289C82.9668 99.4748 85.692 96.8089 89.5701 96.0912C91.1423 95.7995 93.1702 96.0934 94.8222 96.8499L96.007 97.3922L96.8022 96.0091C98.3722 93.2794 101.738 90.5451 105.055 89.3056C107.151 88.5241 110.059 88.2256 112.406 88.5537C116.259 89.0937 118.866 90.4062 121.734 93.2521C124.787 96.2803 126.364 99.7391 126.59 103.904L126.711 106.126H127.371C127.734 106.126 128.643 106.333 129.392 106.584C134.599 108.338 137.718 113.422 136.923 118.863C136.265 123.365 132.603 127.171 128.146 127.982C126.458 128.289 84.1244 128.283 82.8142 127.975ZM129.383 124.785C131.145 123.949 132.592 122.577 133.489 120.896C134.139 119.677 134.271 119.164 134.355 117.562C134.485 115.097 133.883 113.44 132.193 111.601C130.443 109.699 129.178 109.099 126.31 108.808C124.954 108.671 123.897 108.457 123.84 108.309C123.785 108.165 123.849 107.16 123.983 106.074C124.468 102.154 123.069 98.4221 119.939 95.2891C117.918 93.2657 116.366 92.2905 114.024 91.5659C112.126 90.9804 109.211 90.9302 107.199 91.4497C103.549 92.3908 100.181 95.1296 98.4018 98.6067C97.8572 99.6708 97.299 100.619 97.1623 100.71C96.661 101.049 96.0549 100.867 95.1776 100.117C92.6553 97.9596 88.5402 98.274 86.3254 100.796C85.3001 101.965 84.9173 102.982 84.7509 104.968L84.6097 106.661L82.9987 107.151C77.2021 108.919 74.6387 115.174 77.4983 120.563C78.731 122.885 80.5151 124.377 83.0147 125.177C83.7324 125.405 88.6154 125.459 106.028 125.423L128.13 125.38L129.383 124.785ZM9.84795 125.626C9.7796 125.448 9.83884 125.088 9.97783 124.826C10.1852 124.439 10.3173 124.393 10.6796 124.587C11.1877 124.858 11.2538 125.275 10.8528 125.676C10.4837 126.045 10.0006 126.02 9.84795 125.626ZM11.1513 123.359C10.7366 122.86 11.0966 122.304 11.8349 122.304C12.5959 122.304 12.7007 122.73 12.0764 123.295C11.5705 123.751 11.4817 123.757 11.1513 123.359ZM12.7349 120.839C12.5184 120.579 12.5594 120.415 12.9331 120.041C13.1929 119.781 13.5096 119.569 13.6395 119.569C14.02 119.569 14.143 120.178 13.8696 120.69C13.5757 121.242 13.1177 121.301 12.7349 120.839ZM191.741 60.4021C191.141 59.8051 192.205 58.659 192.855 59.199C193.274 59.5477 193.267 59.7527 192.825 60.197C192.449 60.573 191.996 60.6596 191.741 60.4021ZM193.037 57.9344C192.748 57.1802 193.62 56.344 194.149 56.8726C194.334 57.0572 194.331 57.2805 194.138 57.6997C193.848 58.3377 193.242 58.4653 193.037 57.9344ZM4.67335 55.3027C4.22903 53.7806 3.62749 53.17 2.03478 52.6277L0.833984 52.2198L2.0644 51.8325C3.60699 51.3449 4.21308 50.7069 4.74171 49.0139C5.13818 47.747 5.16552 47.7151 5.30679 48.3645C5.65769 49.9777 6.32303 50.9985 7.31192 51.4474C7.84283 51.6889 8.50816 51.8894 8.7907 51.8917C9.63833 51.8985 9.36946 52.2403 8.28486 52.5297C6.88583 52.9034 5.96757 53.8102 5.46173 55.3141L5.04248 56.5673L4.67335 55.3027ZM193.955 55.4463C193.771 54.9632 194.297 54.1361 194.735 54.2204C194.944 54.2614 195.149 54.4779 195.193 54.7012C195.348 55.5101 194.238 56.1777 193.955 55.4463ZM194.639 52.9398C194.477 52.5183 194.962 51.616 195.291 51.7254C195.796 51.894 196.02 52.5229 195.705 52.9034C195.334 53.35 194.805 53.3682 194.639 52.9398ZM195.386 50.6043C195.161 50.381 195.202 49.4377 195.441 49.2896C195.785 49.0754 196.373 49.4126 196.373 49.8251C196.373 50.4517 195.735 50.9552 195.386 50.6043ZM195.543 47.9088C195.471 47.7197 195.475 47.3186 195.55 47.0179C195.728 46.3047 196.601 46.4619 196.601 47.207C196.601 48.0569 195.803 48.5855 195.543 47.9088ZM195.455 45.0469C195.24 44.6482 195.259 44.4818 195.541 44.1993C195.837 43.9031 195.954 43.8963 196.259 44.1492C196.715 44.5274 196.614 45.3728 196.104 45.4707C195.89 45.5117 195.603 45.3226 195.455 45.0469ZM195.218 42.6499C195.001 42.3878 194.983 42.1828 195.158 41.9093C195.701 41.0458 196.567 41.5835 196.25 42.5861C196.084 43.1056 195.619 43.1329 195.218 42.6499ZM194.468 39.9338C194.272 39.4212 194.545 38.9085 195.015 38.9085C195.452 38.9085 195.819 39.6536 195.578 40.0455C195.361 40.3964 194.616 40.3212 194.468 39.9338ZM193.673 37.4115C193.47 36.9649 193.463 36.7256 193.652 36.5001C194.049 36.0216 194.812 36.5958 194.73 37.3112C194.639 38.095 194.01 38.152 193.673 37.4115ZM192.825 35.3152C192.05 34.7866 192.381 33.465 193.181 33.8934C193.725 34.1873 193.933 34.7957 193.614 35.1785C193.322 35.5317 193.176 35.5567 192.825 35.3152ZM191.278 32.6926C190.847 32.3804 190.957 31.7333 191.469 31.5351C191.891 31.3756 192.543 32.1526 192.367 32.6106C192.194 33.0594 191.816 33.0891 191.278 32.6926ZM189.437 30.4277C189.118 29.972 189.118 29.89 189.439 29.5732C189.758 29.2588 189.852 29.2907 190.376 29.8945C190.923 30.5257 190.934 30.5758 190.533 30.733C189.884 30.9905 189.817 30.9723 189.437 30.4277ZM187.4 28.3975C187.147 28.0352 187.113 27.8051 187.281 27.6C187.655 27.1534 188.665 27.6934 188.58 28.295C188.485 28.9512 187.828 29.0082 187.4 28.3975ZM185.11 26.6202C184.659 26.1235 184.768 25.465 185.299 25.465C185.773 25.465 186.384 26.1395 186.299 26.5724C186.195 27.117 185.579 27.142 185.11 26.6202ZM182.519 25.1916C182.159 24.8316 182.173 24.4419 182.558 24.1229C182.989 23.7652 183.978 24.5513 183.772 25.0868C183.604 25.5288 182.913 25.5858 182.519 25.1916ZM206.05 23.5852C205.735 21.694 204.778 20.6299 203.074 20.2744L202.211 20.0967L203.553 19.42C205.141 18.6202 205.669 17.9663 206.057 16.3166C206.214 15.6467 206.394 15.2525 206.456 15.4394C206.517 15.6262 206.738 16.3667 206.948 17.0822C207.378 18.5564 207.943 19.1124 209.472 19.5658C210.037 19.7322 210.5 19.9349 210.5 20.017C210.5 20.099 210.106 20.2289 209.623 20.3063C209.14 20.3838 208.461 20.6709 208.112 20.9443C207.426 21.4844 206.64 23.0019 206.631 23.7994C206.622 24.7176 206.214 24.5672 206.05 23.5852ZM179.869 23.968C179.673 23.7698 179.512 23.5123 179.512 23.3915C179.512 23.0156 180.197 22.888 180.778 23.1523C181.41 23.4394 181.512 23.9817 180.974 24.1867C180.434 24.3941 180.261 24.3599 179.869 23.968ZM176.916 22.7581C176.527 22.3274 176.529 22.3024 176.987 22.0563C177.588 21.735 178.432 22.1338 178.327 22.6897C178.222 23.2411 177.39 23.2821 176.916 22.7581ZM174.045 22.1634C173.387 21.3704 174.403 20.7962 175.301 21.4525C175.67 21.7213 175.688 21.8261 175.431 22.136C175.05 22.5963 174.414 22.6077 174.045 22.1634ZM171.211 21.7441C170.377 21.1357 171.297 20.32 172.186 20.8828C172.578 21.1289 172.437 21.9082 171.985 21.9948C171.796 22.0312 171.448 21.9173 171.211 21.7441ZM159.255 21.612C158.686 21.2497 159.155 20.68 160.023 20.68C160.661 20.68 160.827 20.7689 160.827 21.1107C160.827 21.7418 159.918 22.0312 159.255 21.612ZM162.251 21.4411C162.094 21.3773 161.967 21.1312 161.967 20.8942C161.967 20.2767 163.026 20.0443 163.523 20.5502C163.878 20.9102 163.874 20.958 163.461 21.2633C163.006 21.6006 162.744 21.6393 162.251 21.4411ZM168.044 21.4388C167.959 21.3568 167.891 21.0993 167.891 20.8692C167.891 20.5456 168.066 20.4522 168.675 20.4522C169.566 20.4522 169.882 20.7712 169.477 21.2588C169.194 21.6006 168.315 21.7099 168.044 21.4388ZM165.015 21.0332C164.819 20.5205 165.12 20.2243 165.84 20.2243C166.578 20.2243 166.82 20.4658 166.615 21.0013C166.437 21.4616 165.189 21.4866 165.015 21.0332ZM47.729 8.60368C47.6674 8.41684 47.5011 7.88138 47.3576 7.41427C47.0363 6.37297 46.0497 5.5094 44.7805 5.16306L43.8235 4.90103L44.7395 4.6276C45.2431 4.47721 45.9266 4.17644 46.2593 3.9577C46.9041 3.53617 47.5831 2.11891 47.5831 1.19381C47.5831 0.33024 47.9682 0.521639 48.1459 1.47635C48.4581 3.12831 49.5814 4.49772 50.6318 4.50683C50.8984 4.50683 51.2607 4.60253 51.4385 4.71418C51.6777 4.86685 51.5159 4.98533 50.8164 5.17445C49.4789 5.53446 48.7543 6.24993 48.2644 7.69454C48.0275 8.39861 47.7928 8.79508 47.729 8.60368ZM93.4756 200.146C93.4095 199.975 93.5234 198.941 93.7285 197.847C93.9335 196.756 94.0406 195.792 93.9654 195.71C93.8902 195.628 93.0996 194.826 92.2064 193.928C91.1491 192.866 90.6296 192.178 90.7139 191.955C90.8142 191.695 91.418 191.57 93.1634 191.446L95.4807 191.282L96.5174 189.033C97.0871 187.799 97.6362 186.787 97.7364 186.787C98.0714 186.787 98.4314 187.334 99.3861 189.293L100.332 191.23L102.601 191.403C103.852 191.501 104.975 191.681 105.101 191.807C105.251 191.957 104.702 192.663 103.451 193.921L101.576 195.805L102.036 198.043C102.289 199.273 102.496 200.321 102.496 200.369C102.496 200.675 101.505 200.319 99.7894 199.396L97.8139 198.337L96.0025 199.396C94.0771 200.524 93.667 200.645 93.4756 200.146ZM111.611 199.946C111.611 199.663 111.768 198.617 111.957 197.619L112.306 195.808L110.419 193.91C108.974 192.456 108.61 191.966 108.854 191.816C109.029 191.706 110.193 191.542 111.442 191.453L113.711 191.292L114.281 190.006C115.493 187.279 115.762 186.787 116.045 186.787C116.206 186.787 116.838 187.787 117.448 189.008C118.257 190.626 118.683 191.241 119.016 191.276C119.267 191.301 120.369 191.387 121.465 191.467C123.06 191.583 123.459 191.683 123.459 191.971C123.459 192.167 122.689 193.073 121.75 193.987C119.868 195.814 119.866 195.824 120.383 198.18C120.866 200.372 120.843 200.538 120.112 200.353C119.775 200.269 118.809 199.797 117.965 199.303C117.12 198.811 116.316 198.407 116.175 198.407C116.033 198.407 115.12 198.87 114.142 199.433C112.126 200.595 111.611 200.7 111.611 199.946ZM129.935 200.151C129.864 199.964 129.973 198.916 130.179 197.82L130.552 195.826L128.795 194.06C127.652 192.909 127.087 192.176 127.173 191.952C127.271 191.695 127.879 191.57 129.62 191.446L131.938 191.282L132.974 189.033C133.551 187.78 134.148 186.787 134.323 186.787C134.496 186.787 135.121 187.787 135.713 189.008C136.75 191.153 136.816 191.232 137.586 191.285C140.742 191.506 141.688 191.638 141.688 191.861C141.688 191.998 140.876 192.941 139.885 193.957L138.083 195.805L138.509 197.847C139.022 200.306 139.031 200.458 138.668 200.463C138.511 200.463 137.454 199.987 136.317 199.403L134.25 198.339L132.671 199.255C130.682 200.41 130.106 200.599 129.935 200.151ZM148.067 199.857C148.067 199.499 148.218 198.435 148.4 197.496L148.733 195.787L146.887 194.039C145.707 192.918 145.089 192.171 145.169 191.959C145.265 191.715 145.926 191.585 147.719 191.465L150.141 191.298L151.212 189.1C151.832 187.828 152.422 186.901 152.611 186.901C152.802 186.901 153.235 187.58 153.636 188.507C154.807 191.212 154.937 191.342 156.446 191.36C158.428 191.387 159.802 191.642 159.802 191.989C159.802 192.153 159.009 193.076 158.041 194.039L156.279 195.787L156.731 197.929C156.979 199.107 157.182 200.16 157.182 200.265C157.182 200.645 156.58 200.449 154.552 199.405L152.492 198.346L150.827 199.289C149.911 199.809 148.915 200.294 148.614 200.369C148.134 200.492 148.067 200.431 148.067 199.857ZM166.305 199.832C166.31 199.488 166.451 198.487 166.622 197.61C166.793 196.733 166.85 195.862 166.747 195.673C166.647 195.484 165.838 194.643 164.952 193.803C163.951 192.852 163.389 192.153 163.466 191.95C163.555 191.718 164.263 191.57 165.997 191.428L168.406 191.23L169.361 189.065C170.056 187.491 170.429 186.901 170.725 186.901C171.022 186.901 171.402 187.498 172.106 189.065L173.077 191.23L175.549 191.408C176.909 191.506 178.122 191.686 178.245 191.809C178.393 191.957 177.809 192.697 176.552 193.962L174.633 195.892L174.936 197.548C175.103 198.46 175.289 199.488 175.351 199.832C175.506 200.702 175.201 200.652 172.778 199.405L170.716 198.344L168.909 199.401C166.784 200.645 166.291 200.727 166.305 199.832ZM183.506 199.262C183.597 198.603 183.759 197.829 183.868 197.537C183.98 197.248 184.069 196.669 184.069 196.25C184.069 195.598 183.825 195.263 182.36 193.894C181.421 193.016 180.651 192.151 180.651 191.968C180.651 191.624 182.357 191.344 184.454 191.344H185.454L186.527 189.122C187.177 187.776 187.735 186.901 187.942 186.901C188.145 186.901 188.674 187.691 189.239 188.838C189.763 189.902 190.305 190.902 190.444 191.059C190.601 191.239 191.314 191.344 192.365 191.344C194.356 191.344 195.461 191.535 195.461 191.879C195.461 192.018 194.639 192.959 193.634 193.969L191.807 195.805L192.251 197.961C192.547 199.394 192.62 200.194 192.47 200.344C192.317 200.497 191.565 200.21 190.219 199.49C189.104 198.895 188.104 198.407 187.992 198.407C187.883 198.407 186.983 198.87 185.992 199.433C185.003 199.996 184.003 200.458 183.768 200.458C183.385 200.458 183.36 200.337 183.506 199.262ZM21.7215 109.332C16.0844 104.376 13.8787 101.2 13.865 98.0279C13.8582 96.1664 14.5304 94.8562 15.9932 93.8787C16.9411 93.2452 17.3034 93.1381 18.486 93.1381C20.3248 93.1381 21.4845 93.7237 23.1046 95.4714C24.2781 96.7428 24.4125 96.8249 24.6267 96.4261C25.0391 95.6582 27.0875 93.7944 27.8873 93.4594C28.3088 93.284 29.2521 93.1381 29.9836 93.1381C31.7153 93.1381 33.1052 93.8308 34.0234 95.1524C34.6409 96.041 34.7093 96.3145 34.7093 97.8867C34.7093 99.3837 34.6045 99.8553 33.9688 101.193C32.7839 103.697 30.7924 105.964 26.3675 109.845C25.4128 110.683 24.49 111.36 24.3168 111.351C24.1413 111.344 22.9747 110.435 21.7215 109.332ZM185.322 86.9473C179.653 82.0416 177.206 78.7103 176.864 75.436C176.688 73.775 177.01 72.6721 177.994 71.5534C179.981 69.2908 183.517 69.7032 186.053 72.4899L187.138 73.6815L188.102 72.4967C191.303 68.5685 197.027 69.7123 197.442 74.3628C197.685 77.1131 196.238 79.8929 192.755 83.354C190.44 85.6554 187.359 88.3623 187.081 88.3395C186.992 88.3327 186.199 87.7061 185.322 86.9473ZM130.844 29.3887C127.431 26.3309 125.617 24.4009 124.468 22.6077C122.201 19.0645 121.987 16.2528 123.824 14.1087C126.221 11.306 130.691 12.083 133.444 15.7811L133.952 16.4647L134.337 15.8951C136.889 12.1058 141.612 11.306 144.183 14.2272C146.482 16.8407 145.602 20.5319 141.621 24.9683C139.874 26.9164 134.312 32.0797 133.977 32.066C133.895 32.0637 132.484 30.8583 130.844 29.3887Z" fill="black"/>
</svg>
